<svg viewBox="0 0 26 32" fill="none" xmlns="http://www.w3.org/2000/svg">
    <mask id="path-1-inside-1_1958_21952" fill="white">
        <path
                fill-rule="evenodd"
                clip-rule="evenodd"
                d="M3 0C1.34315 0 0 1.34315 0 3V29C0 30.6569 1.34315 32 3 32H23C24.6569 32 26 30.6569 26 29V8L18.8787 0.87868C18.3161 0.316071 17.553 0 16.7574 0H3ZM21.5322 25.6319C21.6842 25.3279 21.7602 24.9799 21.7602 24.5879C21.7602 23.9399 21.5202 23.4279 21.0402 23.0519C20.5602 22.6759 19.9322 22.4119 19.1562 22.2599L18.9642 22.2239V20.0879C19.2842 20.1519 19.5442 20.2799 19.7442 20.4719C19.9442 20.6639 20.0642 20.8999 20.1042 21.1799H21.5922C21.5362 20.4839 21.2642 19.9319 20.7762 19.5239C20.2962 19.1079 19.6922 18.8599 18.9642 18.7799V17.7839H18.0642V18.7799C17.6882 18.8119 17.3362 18.8959 17.0082 19.0319C16.6802 19.1599 16.3962 19.3319 16.1562 19.5479C15.9162 19.7559 15.7282 20.0039 15.5922 20.2919C15.4562 20.5799 15.3882 20.8999 15.3882 21.2519C15.3882 21.8439 15.5922 22.3239 16.0002 22.6919C16.4162 23.0519 17.0122 23.3119 17.7882 23.4719L18.0642 23.5319V25.8239C17.6962 25.7679 17.3842 25.6279 17.1282 25.4039C16.8722 25.1799 16.7202 24.8799 16.6722 24.5039H15.1602C15.2322 25.3199 15.5362 25.9439 16.0722 26.3759C16.6162 26.8079 17.2802 27.0559 18.0642 27.1199V28.0799H18.9642V27.1199C19.3402 27.0879 19.6962 27.0119 20.0322 26.8919C20.3762 26.7719 20.6722 26.6079 20.9202 26.3999C21.1762 26.1839 21.3802 25.9279 21.5322 25.6319ZM17.1882 21.7079C17.0122 21.5719 16.9242 21.3719 16.9242 21.1079C16.9242 20.8359 17.0322 20.6119 17.2482 20.4359C17.4642 20.2519 17.7362 20.1319 18.0642 20.0759V22.0439C17.6642 21.9559 17.3722 21.8439 17.1882 21.7079ZM19.8762 24.1199C20.1002 24.2719 20.2122 24.4839 20.2122 24.7559C20.2122 25.0519 20.0962 25.2919 19.8642 25.4759C19.6322 25.6599 19.3322 25.7799 18.9642 25.8359V23.7239C19.3562 23.8279 19.6602 23.9599 19.8762 24.1199Z"
        ></path>
    </mask>
    <path
            fill-rule="evenodd"
            clip-rule="evenodd"
            d="M3 0C1.34315 0 0 1.34315 0 3V29C0 30.6569 1.34315 32 3 32H23C24.6569 32 26 30.6569 26 29V8L18.8787 0.87868C18.3161 0.316071 17.553 0 16.7574 0H3ZM21.5322 25.6319C21.6842 25.3279 21.7602 24.9799 21.7602 24.5879C21.7602 23.9399 21.5202 23.4279 21.0402 23.0519C20.5602 22.6759 19.9322 22.4119 19.1562 22.2599L18.9642 22.2239V20.0879C19.2842 20.1519 19.5442 20.2799 19.7442 20.4719C19.9442 20.6639 20.0642 20.8999 20.1042 21.1799H21.5922C21.5362 20.4839 21.2642 19.9319 20.7762 19.5239C20.2962 19.1079 19.6922 18.8599 18.9642 18.7799V17.7839H18.0642V18.7799C17.6882 18.8119 17.3362 18.8959 17.0082 19.0319C16.6802 19.1599 16.3962 19.3319 16.1562 19.5479C15.9162 19.7559 15.7282 20.0039 15.5922 20.2919C15.4562 20.5799 15.3882 20.8999 15.3882 21.2519C15.3882 21.8439 15.5922 22.3239 16.0002 22.6919C16.4162 23.0519 17.0122 23.3119 17.7882 23.4719L18.0642 23.5319V25.8239C17.6962 25.7679 17.3842 25.6279 17.1282 25.4039C16.8722 25.1799 16.7202 24.8799 16.6722 24.5039H15.1602C15.2322 25.3199 15.5362 25.9439 16.0722 26.3759C16.6162 26.8079 17.2802 27.0559 18.0642 27.1199V28.0799H18.9642V27.1199C19.3402 27.0879 19.6962 27.0119 20.0322 26.8919C20.3762 26.7719 20.6722 26.6079 20.9202 26.3999C21.1762 26.1839 21.3802 25.9279 21.5322 25.6319ZM17.1882 21.7079C17.0122 21.5719 16.9242 21.3719 16.9242 21.1079C16.9242 20.8359 17.0322 20.6119 17.2482 20.4359C17.4642 20.2519 17.7362 20.1319 18.0642 20.0759V22.0439C17.6642 21.9559 17.3722 21.8439 17.1882 21.7079ZM19.8762 24.1199C20.1002 24.2719 20.2122 24.4839 20.2122 24.7559C20.2122 25.0519 20.0962 25.2919 19.8642 25.4759C19.6322 25.6599 19.3322 25.7799 18.9642 25.8359V23.7239C19.3562 23.8279 19.6602 23.9599 19.8762 24.1199Z"
            fill="#5E5E6B"
    ></path>
    <path
            d="M26 8H27V7.58579L26.7071 7.29289L26 8ZM18.8787 0.87868L18.1716 1.58579V1.58579L18.8787 0.87868ZM21.5322 25.6319L22.4218 26.0888L22.4266 26.0792L21.5322 25.6319ZM21.0402 23.0519L21.6568 22.2647V22.2647L21.0402 23.0519ZM19.1562 22.2599L19.3484 21.2786L19.3405 21.2771L19.1562 22.2599ZM18.9642 22.2239H17.9642V23.0539L18.7799 23.2068L18.9642 22.2239ZM18.9642 20.0879L19.1603 19.1074L17.9642 18.8681V20.0879H18.9642ZM19.7442 20.4719L19.0516 21.1933L19.0516 21.1933L19.7442 20.4719ZM20.1042 21.1799L19.1142 21.3214L19.2369 22.1799H20.1042V21.1799ZM21.5922 21.1799V22.1799H22.6758L22.5889 21.0997L21.5922 21.1799ZM20.7762 19.5239L20.1212 20.2796L20.1279 20.2854L20.1347 20.2911L20.7762 19.5239ZM18.9642 18.7799H17.9642V19.6761L18.8549 19.774L18.9642 18.7799ZM18.9642 17.7839H19.9642V16.7839H18.9642V17.7839ZM18.0642 17.7839V16.7839H17.0642V17.7839H18.0642ZM18.0642 18.7799L18.149 19.7763L19.0642 19.6984V18.7799H18.0642ZM17.0082 19.0319L17.3717 19.9635L17.3815 19.9597L17.3912 19.9557L17.0082 19.0319ZM16.1562 19.5479L16.8111 20.3036L16.8182 20.2975L16.8251 20.2912L16.1562 19.5479ZM15.5922 20.2919L16.4964 20.7189V20.7189L15.5922 20.2919ZM16.0002 22.6919L15.3304 23.4345L15.338 23.4414L15.3458 23.4481L16.0002 22.6919ZM17.7882 23.4719L18.0006 22.4947L17.9901 22.4925L17.7882 23.4719ZM18.0642 23.5319H19.0642V22.726L18.2766 22.5548L18.0642 23.5319ZM18.0642 25.8239L17.9137 26.8126L19.0642 26.9876V25.8239H18.0642ZM17.1282 25.4039L16.4697 26.1565L16.4697 26.1565L17.1282 25.4039ZM16.6722 24.5039L17.6641 24.3773L17.5526 23.5039H16.6722V24.5039ZM15.1602 24.5039V23.5039H14.068L14.164 24.5918L15.1602 24.5039ZM16.0722 26.3759L15.4446 27.1546L15.4503 27.159L16.0722 26.3759ZM18.0642 27.1199H19.0642V26.1982L18.1455 26.1233L18.0642 27.1199ZM18.0642 28.0799H17.0642V29.0799H18.0642V28.0799ZM18.9642 28.0799V29.0799H19.9642V28.0799H18.9642ZM18.9642 27.1199L18.8794 26.1235L17.9642 26.2014V27.1199H18.9642ZM20.0322 26.8919L19.7028 25.9477L19.6958 25.9502L20.0322 26.8919ZM20.9202 26.3999L21.5628 27.1661L21.565 27.1642L20.9202 26.3999ZM17.1882 21.7079L16.5767 22.4992L16.5852 22.5058L16.5938 22.5121L17.1882 21.7079ZM17.2482 20.4359L17.8798 21.2112L17.8883 21.2043L17.8966 21.1972L17.2482 20.4359ZM18.0642 20.0759H19.0642V18.8907L17.8959 19.0902L18.0642 20.0759ZM18.0642 22.0439L17.8493 23.0206L19.0642 23.2879V22.0439H18.0642ZM19.8762 24.1199L19.2809 24.9235L19.2975 24.9358L19.3147 24.9474L19.8762 24.1199ZM18.9642 25.8359H17.9642V26.9996L19.1146 26.8246L18.9642 25.8359ZM18.9642 23.7239L19.2206 22.7574L17.9642 22.424V23.7239H18.9642ZM1 3C1 1.89543 1.89543 1 3 1V-1C0.790861 -1 -1 0.790861 -1 3H1ZM1 29V3H-1V29H1ZM3 31C1.89543 31 1 30.1046 1 29H-1C-1 31.2091 0.790862 33 3 33V31ZM23 31H3V33H23V31ZM25 29C25 30.1046 24.1046 31 23 31V33C25.2091 33 27 31.2091 27 29H25ZM25 8V29H27V8H25ZM18.1716 1.58579L25.2929 8.70711L26.7071 7.29289L19.5858 0.171573L18.1716 1.58579ZM16.7574 1C17.2878 1 17.7965 1.21071 18.1716 1.58579L19.5858 0.171573C18.8356 -0.578573 17.8182 -1 16.7574 -1V1ZM3 1H16.7574V-1H3V1ZM20.7602 24.5879C20.7602 24.8485 20.7104 25.0394 20.6377 25.1847L22.4266 26.0792C22.6579 25.6164 22.7602 25.1113 22.7602 24.5879H20.7602ZM20.4235 23.8392C20.6445 24.0123 20.7602 24.225 20.7602 24.5879H22.7602C22.7602 23.6549 22.3958 22.8436 21.6568 22.2647L20.4235 23.8392ZM18.9639 23.2413C19.6295 23.3717 20.099 23.585 20.4235 23.8392L21.6568 22.2647C21.0213 21.7669 20.2348 21.4522 19.3484 21.2786L18.9639 23.2413ZM18.7799 23.2068L18.9719 23.2428L19.3405 21.2771L19.1485 21.2411L18.7799 23.2068ZM17.9642 20.0879V22.2239H19.9642V20.0879H17.9642ZM20.4367 19.7505C20.0765 19.4048 19.6334 19.202 19.1603 19.1074L18.768 21.0685C18.9349 21.1019 19.0118 21.1551 19.0516 21.1933L20.4367 19.7505ZM21.0941 21.0385C21.0232 20.5422 20.8013 20.1006 20.4367 19.7505L19.0516 21.1933C19.087 21.2273 19.1051 21.2576 19.1142 21.3214L21.0941 21.0385ZM21.5922 20.1799H20.1042V22.1799H21.5922V20.1799ZM20.1347 20.2911C20.3958 20.5094 20.5586 20.8027 20.5954 21.2601L22.5889 21.0997C22.5137 20.1652 22.1325 19.3545 21.4176 18.7567L20.1347 20.2911ZM18.8549 19.774C19.4129 19.8353 19.8173 20.0162 20.1212 20.2796L21.4311 18.7682C20.775 18.1997 19.9714 17.8846 19.0734 17.7859L18.8549 19.774ZM17.9642 17.7839V18.7799H19.9642V17.7839H17.9642ZM18.0642 18.7839H18.9642V16.7839H18.0642V18.7839ZM19.0642 18.7799V17.7839H17.0642V18.7799H19.0642ZM17.3912 19.9557C17.6183 19.8615 17.8691 19.8002 18.149 19.7763L17.9794 17.7835C17.5073 17.8237 17.054 17.9304 16.6251 18.1082L17.3912 19.9557ZM16.8251 20.2912C16.9677 20.1629 17.1458 20.0516 17.3717 19.9635L16.6446 18.1004C16.2145 18.2682 15.8246 18.501 15.4872 18.8046L16.8251 20.2912ZM16.4964 20.7189C16.5732 20.5563 16.6764 20.4203 16.8111 20.3036L15.5012 18.7922C15.1559 19.0916 14.8831 19.4516 14.6879 19.8649L16.4964 20.7189ZM16.3882 21.2519C16.3882 21.0319 16.4298 20.8599 16.4964 20.7189L14.6879 19.8649C14.4825 20.2999 14.3882 20.768 14.3882 21.2519H16.3882ZM16.6699 21.9494C16.4898 21.7869 16.3882 21.5855 16.3882 21.2519H14.3882C14.3882 22.1024 14.6945 22.861 15.3304 23.4345L16.6699 21.9494ZM17.9901 22.4925C17.3124 22.3528 16.8967 22.1454 16.6545 21.9358L15.3458 23.4481C15.9356 23.9585 16.7119 24.2711 17.5862 24.4513L17.9901 22.4925ZM18.2766 22.5548L18.0006 22.4948L17.5757 24.4491L17.8517 24.5091L18.2766 22.5548ZM19.0642 25.8239V23.5319H17.0642V25.8239H19.0642ZM16.4697 26.1565C16.8825 26.5177 17.3758 26.7307 17.9137 26.8126L18.2146 24.8353C18.0165 24.8052 17.8858 24.7381 17.7867 24.6514L16.4697 26.1565ZM15.6802 24.6306C15.7553 25.2192 16.0084 25.7529 16.4697 26.1565L17.7867 24.6514C17.736 24.607 17.685 24.5407 17.6641 24.3773L15.6802 24.6306ZM15.1602 25.5039H16.6722V23.5039H15.1602V25.5039ZM16.6997 25.5973C16.4151 25.368 16.2093 25.0168 16.1563 24.416L14.164 24.5918C14.255 25.6231 14.6572 26.5199 15.4446 27.1545L16.6997 25.5973ZM18.1455 26.1233C17.5319 26.0732 17.0631 25.8859 16.694 25.5928L15.4503 27.159C16.1693 27.73 17.0284 28.0387 17.9828 28.1166L18.1455 26.1233ZM19.0642 28.0799V27.1199H17.0642V28.0799H19.0642ZM18.9642 27.0799H18.0642V29.0799H18.9642V27.0799ZM17.9642 27.1199V28.0799H19.9642V27.1199H17.9642ZM19.6958 25.9502C19.4455 26.0396 19.1744 26.0984 18.8794 26.1235L19.049 28.1163C19.5059 28.0774 19.9468 27.9843 20.3685 27.8337L19.6958 25.9502ZM20.2775 25.6337C20.1332 25.7548 19.9467 25.8626 19.7028 25.9477L20.3615 27.8361C20.8056 27.6812 21.2111 27.4611 21.5628 27.1661L20.2775 25.6337ZM20.6426 25.1751C20.5514 25.3527 20.4309 25.5044 20.2753 25.6356L21.565 27.1642C21.9214 26.8635 22.2089 26.5032 22.4217 26.0887L20.6426 25.1751ZM15.9242 21.1079C15.9242 21.6167 16.1085 22.1374 16.5767 22.4992L17.7996 20.9166C17.8413 20.9488 17.881 20.9975 17.9055 21.0532C17.9277 21.1037 17.9242 21.1296 17.9242 21.1079H15.9242ZM16.6165 19.6607C16.174 20.0212 15.9242 20.5269 15.9242 21.1079H17.9242C17.9242 21.1064 17.9243 21.113 17.9215 21.1257C17.9187 21.1387 17.9137 21.1542 17.9059 21.1702C17.889 21.2053 17.8717 21.2178 17.8798 21.2112L16.6165 19.6607ZM17.8959 19.0902C17.4215 19.1712 16.9747 19.3552 16.5997 19.6747L17.8966 21.1972C17.9536 21.1486 18.0508 21.0927 18.2325 21.0617L17.8959 19.0902ZM19.0642 22.0439V20.0759H17.0642V22.0439H19.0642ZM16.5938 22.5121C16.9475 22.7735 17.4036 22.9225 17.8493 23.0206L18.279 21.0673C18.1138 21.0309 17.991 20.9939 17.9033 20.9603C17.813 20.9256 17.781 20.9026 17.7825 20.9038L16.5938 22.5121ZM21.2122 24.7559C21.2122 24.1544 20.9375 23.6316 20.4377 23.2925L19.3147 24.9474C19.3089 24.9435 19.2738 24.9166 19.244 24.8601C19.2142 24.8037 19.2122 24.7606 19.2122 24.7559H21.2122ZM20.4856 26.2594C20.9566 25.8858 21.2122 25.3573 21.2122 24.7559H19.2122C19.2122 24.7644 19.2114 24.7637 19.213 24.7559C19.2148 24.7478 19.2184 24.736 19.2248 24.7228C19.2312 24.7095 19.2382 24.6994 19.2434 24.693C19.2484 24.6869 19.2495 24.6871 19.2428 24.6924L20.4856 26.2594ZM19.1146 26.8246C19.6112 26.749 20.0863 26.5761 20.4856 26.2594L19.2428 24.6924C19.178 24.7438 19.0532 24.8109 18.8137 24.8473L19.1146 26.8246ZM17.9642 23.7239V25.8359H19.9642V23.7239H17.9642ZM20.4714 23.3164C20.1158 23.0529 19.6788 22.8789 19.2206 22.7574L18.7077 24.6905C19.0335 24.7769 19.2046 24.8669 19.2809 24.9235L20.4714 23.3164Z"
            fill="black"
            fill-opacity="0.1"
            mask="url(#path-1-inside-1_1958_21952)"
    ></path>
</svg>
