<svg viewBox="0 0 32 28" fill="none" xmlns="http://www.w3.org/2000/svg">
    <path
            d="M0 4C0 1.79086 1.79086 0 4 0H19C19.5523 0 20 0.447715 20 1V27C20 27.5523 19.5523 28 19 28H4C1.79086 28 0 26.2091 0 24V4Z"
            fill="#5E5E6B"
    ></path>
    <path
            d="M0.5 4C0.5 2.067 2.067 0.5 4 0.5H19C19.2761 0.5 19.5 0.723858 19.5 1V27C19.5 27.2761 19.2761 27.5 19 27.5H4C2.067 27.5 0.5 25.933 0.5 24V4Z"
            stroke="black"
            stroke-opacity="0.1"
    ></path>
    <path
            d="M32 4C32 1.79086 30.2091 0 28 0H23C22.4477 0 22 0.447715 22 1V27C22 27.5523 22.4477 28 23 28H28C30.2091 28 32 26.2091 32 24V4Z"
            fill="#B9BAC0"
    ></path>
    <path
            d="M31.5 4C31.5 2.067 29.933 0.5 28 0.5H23C22.7239 0.5 22.5 0.723858 22.5 1V27C22.5 27.2761 22.7239 27.5 23 27.5H28C29.933 27.5 31.5 25.933 31.5 24V4Z"
            stroke="black"
            stroke-opacity="0.1"
    ></path>
    <path
            d="M3.75 24.25L8.90679 16.971L14.0636 21.1304L21.1778 9.7935L28.25 6.75"
            stroke="white"
            stroke-width="1.5"
            stroke-linecap="round"
            stroke-linejoin="round"
    ></path>
</svg>
