<svg width="48" height="51" viewBox="0 0 48 51" fill="none" xmlns="http://www.w3.org/2000/svg">
    <g filter="url(#filter0_ddd_904_9876)">
        <path d="M11 11.6C11 9.61177 12.6118 8 14.6 8H27.1716C27.7907 8 28.3859 8.23926 28.8327 8.66778L36.2612 15.7915C36.7331 16.2441 37 16.8697 37 17.5237V38.4C37 40.3882 35.3882 42 33.4 42H14.6C12.6118 42 11 40.3882 11 38.4V11.6Z" fill="#4FA46C"></path>
        <path d="M37.5 38.4V17.5237C37.5 16.7335 37.1776 15.9775 36.6072 15.4306L29.1788 8.3069C28.6388 7.7891 27.9197 7.5 27.1716 7.5H14.6C12.3356 7.5 10.5 9.33563 10.5 11.6V38.4C10.5 40.6644 12.3356 42.5 14.6 42.5H33.4C35.6644 42.5 37.5 40.6644 37.5 38.4Z" stroke="#439A61"></path>
    </g>
    <mask id="mask0_904_9876" maskUnits="userSpaceOnUse" x="11" y="8" width="26" height="34">
        <path d="M11 11.6C11 9.61177 12.6118 8 14.6 8H27.1716C27.7907 8 28.3859 8.23926 28.8327 8.66778L36.2612 15.7915C36.7331 16.2441 37 16.8697 37 17.5237V38.4C37 40.3882 35.3882 42 33.4 42H14.6C12.6118 42 11 40.3882 11 38.4V11.6Z" fill="#4FA46C"></path>
    </mask>
    <g mask="url(#mask0_904_9876)">
        <path d="M27 16.8V7.7561V7.2C27 6.53726 27.5373 6 28.2 6H37.8C38.4627 6 39 6.53726 39 7.2V16.8C39 17.4627 38.4627 18 37.8 18H28.2C27.5373 18 27 17.4627 27 16.8Z" fill="#5CCB82"></path>
        <path d="M17.75 29.25V25.25H24M17.75 29.25H30.25M17.75 29.25V33.25M30.25 29.25V25.25H24M30.25 29.25V33.25M30.25 33.25V37.25H24M30.25 33.25H17.75M17.75 33.25V37.25H24M24 25.25V37.25" stroke="white" stroke-width="1.5"></path>
    </g>
    <defs>
        <filter id="filter0_ddd_904_9876" x="3.4" y="0.4" width="41.2" height="50.4" filterUnits="userSpaceOnUse" color-interpolation-filters="sRGB">
            <feFlood flood-opacity="0" result="BackgroundImageFix"></feFlood>
            <feColorMatrix in="SourceAlpha" type="matrix" values="0 0 0 0 0 0 0 0 0 0 0 0 0 0 0 0 0 0 127 0" result="hardAlpha"></feColorMatrix>
            <feOffset dy="1.2"></feOffset>
            <feGaussianBlur stdDeviation="1.2"></feGaussianBlur>
            <feColorMatrix type="matrix" values="0 0 0 0 0.0627451 0 0 0 0 0.0980392 0 0 0 0 0.141176 0 0 0 0.05 0"></feColorMatrix>
            <feBlend mode="normal" in2="BackgroundImageFix" result="effect1_dropShadow_904_9876"></feBlend>
            <feColorMatrix in="SourceAlpha" type="matrix" values="0 0 0 0 0 0 0 0 0 0 0 0 0 0 0 0 0 0 127 0" result="hardAlpha"></feColorMatrix>
            <feOffset dy="3"></feOffset>
            <feGaussianBlur stdDeviation="2.4"></feGaussianBlur>
            <feColorMatrix type="matrix" values="0 0 0 0 0.0627451 0 0 0 0 0.0980392 0 0 0 0 0.141176 0 0 0 0.03 0"></feColorMatrix>
            <feBlend mode="normal" in2="effect1_dropShadow_904_9876" result="effect2_dropShadow_904_9876"></feBlend>
            <feColorMatrix in="SourceAlpha" type="matrix" values="0 0 0 0 0 0 0 0 0 0 0 0 0 0 0 0 0 0 127 0" result="hardAlpha"></feColorMatrix>
            <feOffset></feOffset>
            <feGaussianBlur stdDeviation="3.3"></feGaussianBlur>
            <feColorMatrix type="matrix" values="0 0 0 0 0 0 0 0 0 0 0 0 0 0 0 0 0 0 0.06 0"></feColorMatrix>
            <feBlend mode="normal" in2="effect2_dropShadow_904_9876" result="effect3_dropShadow_904_9876"></feBlend>
            <feBlend mode="normal" in="SourceGraphic" in2="effect3_dropShadow_904_9876" result="shape"></feBlend>
        </filter>
    </defs>
</svg>
