<svg width="106" height="31" viewBox="0 0 106 31"
     fill="none" xmlns="http://www.w3.org/2000/svg">
    <path d="M11.48 5.47412V13.9491H3.694V5.47412H0V25.7051H3.695V17.5051H11.479V25.7051H15.175V5.47412H11.48ZM27.002
          19.1661C27.002 19.977 26.6799 20.7547 26.1065 21.3281C25.5331
          21.9015 24.7554 22.2236 23.9445 22.2236C23.1336 22.2236 22.3559
          21.9015 21.7825 21.3281C21.2091 20.7547 20.887 19.977 20.887
          19.1661V10.5001H17.382V19.1661C17.382 20.9049 18.0727 22.5724
          19.3022 23.8019C20.5317 25.0314 22.1992 25.7221 23.938
          25.7221C25.6768 25.7221 27.3443 25.0314 28.5738 23.8019C29.8033
          22.5724 30.494 20.9049 30.494 19.1661V10.5001H27.002V19.1661ZM52.973
          11.3931C52.973 9.61612 54.148 9.05312 55.435 9.05312C56.473
          9.05312 57.843 9.84312 58.74 10.8011L61.035 8.09512C59.889
          6.54512 57.565 5.47412 55.662 5.47412C51.859 5.47412 49.109
          7.70112 49.109 11.3931C49.109 18.2431 57.481 16.0691 57.481
          19.9031C57.481 21.0851 56.333 22.1291 55.019 22.1291C52.946
          22.1291 52.274 21.1161 51.322 20.0441L48.774 22.6931C50.404
          24.6931 52.414 25.7091 54.821 25.7091C58.434 25.7091 61.34
          23.4551 61.34 19.9311C61.34 12.3271 52.967 14.6901 52.967
          11.3931M104.767 22.4731C102.696 22.4731 102.107 21.5771
          102.107 20.2051V14.1301H105.327V11.0521H102.107V6.99112L98.553
          8.58612V20.9601C98.553 24.1251 100.737 25.7201 103.731
          25.7201C104.201 25.7281 104.671 25.6901 105.133 25.6081L106
          22.4161C105.609 22.4431 105.16 22.4701 104.767 22.4701M40.344
          10.6011C38.608 10.6011 37.396 11.1051 36.224
          12.2541V5.59512H32.714V17.9381C32.714 22.5581 36.054 25.7241
          39.808 25.7241C43.972 25.7241 47.635 22.5021 47.635
          18.1641C47.635 13.8801 44.264 10.6041 40.344 10.6041M40.322
          22.1911C39.7989 22.1911 39.2809 22.0881 38.7976 21.8879C38.3143 21.6877 37.8751 21.3943 37.5052 21.0244C37.1353 20.6545 36.8419 20.2153 36.6417 19.732C36.4415 19.2487 36.3385 18.7307 36.3385 18.2076C36.3385 17.6845 36.4415 17.1665 36.6417 16.6832C36.8419 16.1999 37.1353 15.7608 37.5052 15.3909C37.8751 15.021 38.3143 14.7275 38.7976 14.5273C39.2809 14.3272 39.7989 14.2241 40.322 14.2241C41.3785 14.2241 42.3917 14.6438 43.1388 15.3909C43.8858 16.1379 44.3055 17.1511 44.3055 18.2076C44.3055 19.2641 43.8858 20.2773 43.1388 21.0244C42.3917 21.7714 41.3785 22.1911 40.322 22.1911ZM78.464 17.9801C78.464 13.6341 74.809 10.4201 70.637 10.4201C66.884 10.4201 63.543 13.5851 63.543 18.2061V30.5561H67.053V23.8881C68.223 25.0351 69.437 25.5411 71.171 25.5411C75.091 25.5411 78.464 22.2651 78.464 17.9801ZM75.14 17.9361C75.14 18.9926 74.7203 20.0058 73.9733 20.7529C73.2262 21.4999 72.213 21.9196 71.1565 21.9196C70.1 21.9196 69.0868 21.4999 68.3397 20.7529C67.5927 20.0058 67.173 18.9926 67.173 17.9361C67.173 16.8796 67.5927 15.8664 68.3397 15.1194C69.0868 14.3723 70.1 13.9526 71.1565 13.9526C72.213 13.9526 73.2262 14.3723 73.9733 15.1194C74.7203 15.8664 75.14 16.8796 75.14 17.9361Z" fill="#33475B"></path>
    <path d="M89.8079 10.25V6.72305C90.274 6.50522 90.6686 6.15949 90.9459 5.72611C91.2231 5.29272 91.3716 4.78951 91.3739 4.27505V4.19405C91.3739 2.69405 90.1579 1.47805 88.6579 1.47805H88.5769C87.8566 1.47805 87.1658 1.76419 86.6564 2.27354C86.1471 2.78289 85.8609 3.47372 85.8609 4.19405V4.27505C85.8633 4.78951 86.0118 5.29272 86.289 5.72611C86.5662 6.15949 86.9609 6.50522 87.4269 6.72305V10.25C86.0874 10.4552 84.8258 11.0106 83.7699 11.86L74.0969 4.32605C74.1659 4.07705 74.2019 3.82105 74.2059 3.56405C74.2071 2.95875 74.0288 2.3667 73.6934 1.86279C73.3581 1.35887 72.8808 0.965727 72.322 0.733086C71.7632 0.500445 71.148 0.438757 70.5541 0.555825C69.9602 0.672894 69.4144 0.963459 68.9857 1.39077C68.557 1.81808 68.2647 2.36293 68.1457 2.95641C68.0267 3.54989 68.0863 4.16534 68.3172 4.7249C68.548 5.28446 68.9395 5.763 69.4424 6.09998C69.9452 6.43696 70.5366 6.61725 71.1419 6.61805C71.6715 6.61555 72.1911 6.47418 72.6489 6.20805L82.1739 13.62C81.3183 14.9127 80.8719 16.4332 80.8929 17.9832C80.914 19.5333 81.4015 21.0411 82.2919 22.31L79.3949 25.208C79.1608 25.1332 78.9168 25.0934 78.6709 25.09C78.1741 25.0904 77.6885 25.2381 77.2755 25.5144C76.8626 25.7907 76.5408 26.1832 76.3508 26.6423C76.1609 27.1014 76.1113 27.6065 76.2083 28.0938C76.3053 28.5811 76.5446 29.0287 76.896 29.38C77.2473 29.7313 77.6949 29.9706 78.1822 30.0677C78.6695 30.1647 79.1746 30.1151 79.6337 29.9251C80.0928 29.7352 80.4853 29.4134 80.7616 29.0004C81.0379 28.5875 81.1855 28.1019 81.1859 27.605C81.1827 27.3592 81.1429 27.1152 81.0679 26.881L83.9339 24.014C84.8685 24.7336 85.9554 25.2296 87.1113 25.4642C88.2672 25.6987 89.4615 25.6656 90.6026 25.3673C91.7437 25.0691 92.8014 24.5135 93.6947 23.7433C94.5879 22.9731 95.2931 22.0087 95.756 20.9239C96.219 19.8391 96.4275 18.6627 96.3656 17.4849C96.3037 16.307 95.973 15.159 95.3988 14.1287C94.8247 13.0984 94.0224 12.2132 93.0533 11.5409C92.0842 10.8686 90.974 10.427 89.8079 10.25ZM88.6199 21.85C88.0903 21.8646 87.563 21.7729 87.0694 21.5802C86.5758 21.3876 86.1258 21.098 85.746 20.7285C85.3662 20.359 85.0644 19.9172 84.8582 19.429C84.6521 18.9409 84.5459 18.4164 84.5459 17.8865C84.5459 17.3567 84.6521 16.8322 84.8582 16.3441C85.0644 15.8559 85.3662 15.4141 85.746 15.0446C86.1258 14.6751 86.5758 14.3855 87.0694 14.1928C87.563 14.0002 88.0903 13.9085 88.6199 13.923C89.6465 13.959 90.6191 14.3919 91.3328 15.1307C92.0465 15.8695 92.4457 16.8564 92.4462 17.8836C92.4467 18.9108 92.0485 19.8981 91.3356 20.6376C90.6226 21.3771 89.6505 21.8111 88.6239 21.848" fill="#FF7A59"></path>
</svg>
