<?xml version="1.0" standalone="no"?>
<!DOCTYPE svg PUBLIC "-//W3C//DTD SVG 20010904//EN"
 "http://www.w3.org/TR/2001/REC-SVG-20010904/DTD/svg10.dtd">
<svg version="1.0" xmlns="http://www.w3.org/2000/svg"
 width="512.000000pt" height="512.000000pt" viewBox="0 0 512.000000 512.000000"
 preserveAspectRatio="xMidYMid meet">
<metadata>
Created by potrace 1.16, written by Peter Selinger 2001-2019
</metadata>
<g transform="translate(0.000000,512.000000) scale(0.100000,-0.100000)"
fill="#000000" stroke="none">
<path d="M2460 3939 c-85 -14 -210 -79 -274 -141 -31 -30 -56 -59 -56 -66 0
-11 97 -82 112 -82 4 0 9 39 10 87 2 58 7 88 16 91 9 3 12 -26 12 -125 l0
-128 -114 3 -114 3 -7 -33 c-3 -18 -9 -41 -11 -50 -5 -16 5 -18 120 -18 l126
0 0 -115 c0 -96 -3 -115 -15 -115 -12 0 -15 17 -15 90 0 89 0 90 -27 96 -26 7
-57 -7 -160 -68 -31 -19 -45 -48 -23 -48 11 0 134 75 163 98 9 9 20 13 23 10
3 -4 -39 -34 -94 -67 l-99 -61 9 -51 c27 -146 122 -365 241 -556 70 -110 238
-343 264 -364 18 -16 30 -2 173 197 134 187 196 292 182 306 -8 8 -16 8 -28
-2 -14 -12 -16 -11 -12 10 2 18 -3 25 -22 31 -22 5 -23 7 -7 14 17 7 17 8 0
27 -17 19 -17 20 2 17 16 -3 19 1 17 21 -2 19 0 22 10 12 18 -18 28 -15 28 11
1 21 1 21 12 2 16 -30 18 -31 28 -15 7 11 10 8 10 -14 0 -28 1 -29 19 -12 48
44 128 302 137 446 12 188 -83 382 -236 480 -107 69 -272 102 -400 79z m-50
-204 c0 -52 2 -95 4 -95 2 0 66 35 142 79 77 43 155 81 174 85 50 9 34 -1
-139 -95 -133 -73 -150 -84 -124 -87 23 -2 68 17 177 77 81 45 151 81 157 81
6 0 9 -12 7 -27 -3 -24 -18 -36 -98 -80 l-95 -53 93 0 c85 0 92 -1 92 -20 0
-19 -7 -20 -215 -20 l-215 0 0 118 c0 120 2 132 27 132 10 0 13 -22 13 -95z
m395 -275 c0 -12 -19 -16 -90 -20 l-89 -5 87 -53 c85 -52 109 -72 88 -72 -6 0
-62 30 -125 66 -73 42 -122 64 -137 62 -18 -2 10 -22 118 -83 78 -44 142 -84
143 -88 0 -4 -24 -5 -52 -1 -41 5 -83 24 -189 85 -75 43 -139 79 -143 79 -3 0
-6 -40 -6 -90 0 -83 -1 -90 -20 -90 -19 0 -20 7 -20 108 0 60 3 112 7 116 4 3
102 5 217 4 180 -3 211 -5 211 -18z"/>
<path d="M1777 1986 c-46 -17 -64 -32 -83 -67 -29 -57 -11 -139 38 -171 13 -8
52 -25 88 -38 82 -29 99 -43 80 -66 -20 -23 -93 -12 -135 20 l-32 25 -32 -46
c-18 -25 -30 -51 -27 -59 20 -52 217 -84 286 -46 48 26 80 76 80 124 0 78 -36
113 -157 152 -63 21 -81 39 -62 62 16 19 68 12 116 -16 l33 -19 25 43 c14 23
25 48 25 54 0 21 -80 53 -143 58 -40 3 -75 -1 -100 -10z"/>
<path d="M806 1764 c-42 -124 -76 -230 -76 -236 0 -5 30 -8 68 -6 l67 3 9 38
10 38 75 -3 75 -3 9 -37 9 -38 70 0 c54 0 69 3 66 14 -2 8 -37 113 -78 235
l-75 221 -76 0 -77 0 -76 -226z"/>
<path d="M1220 1820 c0 -192 7 -221 62 -263 98 -75 263 -45 312 56 13 28 16
68 16 206 l0 171 -65 0 -65 0 0 -155 c0 -153 0 -156 -25 -181 -29 -29 -58 -26
-87 8 -16 17 -18 42 -18 174 l0 154 -65 0 -65 0 0 -170z"/>
<path d="M2060 1930 l0 -60 60 0 60 0 0 -175 0 -176 63 3 62 3 3 173 2 172 60
0 60 0 0 60 0 60 -185 0 -185 0 0 -60z"/>
<path d="M2482 1758 l3 -233 65 0 65 0 3 78 c3 72 4 77 25 77 17 0 30 -16 62
-78 l40 -77 64 -3 c35 -2 67 1 72 5 4 4 -15 44 -43 89 l-49 81 30 30 c80 81
47 224 -58 253 -20 5 -91 10 -159 10 l-122 0 2 -232z"/>
<path d="M3050 1987 c0 -2 -34 -102 -75 -223 -41 -120 -75 -225 -75 -231 0 -9
20 -13 65 -13 l64 0 12 40 12 40 73 0 73 0 12 -40 12 -40 69 0 c37 0 68 1 68
3 0 1 -36 106 -79 232 l-78 230 -77 3 c-42 2 -76 1 -76 -1z"/>
<path d="M3390 1755 l0 -235 160 0 160 0 0 60 0 60 -95 0 -95 0 0 175 0 175
-65 0 -65 0 0 -235z"/>
<path d="M3752 1758 l3 -233 65 0 65 0 0 230 0 230 -68 3 -67 3 2 -233z"/>
<path d="M4006 1762 c-42 -125 -76 -231 -76 -235 0 -4 30 -7 68 -5 l67 3 9 38
10 38 74 -3 75 -3 12 -35 c12 -35 12 -35 79 -38 60 -3 67 -1 64 15 -2 10 -37
116 -78 236 l-75 217 -77 0 -76 0 -76 -228z"/>
<path d="M1679 1396 c-2 -2 -3 -43 -1 -90 3 -83 4 -86 28 -86 19 0 24 5 24 25
0 23 4 25 43 25 24 0 48 5 55 12 18 18 15 73 -5 90 -17 14 -134 34 -144 24z"/>
<path d="M2126 1318 c-16 -46 -31 -89 -34 -95 -2 -9 5 -13 22 -13 15 0 29 7
32 15 4 9 19 15 35 15 17 0 32 -6 35 -15 7 -18 54 -20 54 -2 0 7 -13 49 -29
93 -26 72 -31 79 -57 82 -28 3 -30 -1 -58 -80z"/>
<path d="M2339 1371 c-42 -42 -41 -99 2 -135 46 -39 129 -31 129 13 0 21 -26
36 -35 21 -4 -6 -17 -10 -31 -10 -32 0 -51 38 -34 70 10 19 17 21 51 16 31 -5
41 -3 46 10 9 23 -23 44 -65 44 -24 0 -42 -8 -63 -29z"/>
<path d="M2542 1308 l3 -93 73 -3 c71 -3 72 -3 72 23 0 23 -3 25 -50 25 -27 0
-50 5 -50 10 0 6 20 10 43 10 50 0 57 4 50 31 -4 15 -14 19 -49 19 -24 0 -44
5 -44 10 0 6 23 10 50 10 47 0 50 2 50 25 0 24 -2 25 -75 25 l-76 0 3 -92z"/>
<path d="M2760 1304 c0 -93 1 -95 23 -92 18 2 23 11 27 48 l5 45 22 -34 21
-34 21 34 21 34 0 -35 c0 -44 12 -63 36 -58 17 3 19 13 19 93 0 89 0 90 -25
93 -19 2 -31 -6 -50 -34 l-24 -36 -29 36 c-16 20 -38 36 -48 36 -17 0 -19 -8
-19 -96z"/>
<path d="M3037 1393 c-4 -6 -2 -134 2 -176 1 -4 34 -7 74 -5 66 3 72 5 75 26
3 20 0 22 -47 22 -62 0 -68 18 -8 22 35 2 43 7 45 26 3 20 -1 22 -42 22 -61 0
-59 18 2 22 39 3 47 6 47 23 0 18 -8 20 -72 23 -39 2 -73 -1 -76 -5z"/>
<path d="M3259 1388 c-1 -12 0 -122 1 -161 0 -13 6 -17 23 -15 18 2 23 11 27
47 l5 44 34 -47 c24 -35 39 -46 55 -44 20 3 21 9 21 93 0 83 -1 90 -20 90 -17
0 -20 -8 -23 -48 l-3 -47 -40 50 c-38 48 -78 67 -80 38z"/>
<path d="M3548 1393 c-10 -2 -18 -13 -18 -23 0 -14 9 -20 33 -22 32 -3 32 -3
35 -64 2 -51 6 -63 22 -67 27 -7 30 -1 30 70 l0 63 30 0 c23 0 30 5 30 19 0
11 -9 21 -22 25 -26 6 -114 6 -140 -1z"/>
</g>
</svg>
