<svg viewBox="0 0 364 231"
     fill="none" xmlns="http://www.w3.org/2000/svg">
    <mask id="mask0_240_3579" style="mask-type:alpha" maskUnits="userSpaceOnUse" x="0" y="0" width="364" height="231">
        <rect width="364" height="231" fill="url(#paint0_linear_240_3579)"></rect>
    </mask>
    <g mask="url(#mask0_240_3579)">
        <path d="M-12 184.5H154.5C163.337 184.5 170.5 177.337 170.5 168.5V151.5C170.5 147.082 174.082 143.5 178.5 143.5H365.5" stroke="#1D1D20" stroke-opacity="0.1"></path>
        <path d="M-5.5 47.5H365.5" stroke="#1D1D20" stroke-opacity="0.1"></path>
        <path d="M330 244V-15" stroke="#1D1D20" stroke-opacity="0.1"></path>
        <path d="M34.5 244V-15" stroke="#1D1D20" stroke-opacity="0.1"></path>
        <path opacity="0.05" d="M154.5 184.5H34.5V47.5H329.5V143.5H178.5C174.082 143.5 170.5 147.082 170.5 151.5V168.5C170.5 177.337 163.337 184.5 154.5 184.5Z" fill="#1D1D20" stroke="#1D1D20"></path>
    </g>
    <g filter="url(#filter0_dd_240_3579)">
        <rect x="43" y="56" width="120" height="120" rx="8" fill="white"></rect>
    </g>
    <path d="M111 55.5H155C159.694 55.5 163.5 59.3056 163.5 64V168C163.5 172.694 159.694 176.5 155 176.5H111" stroke="#1f8bf6" stroke-opacity="0.4"></path>
    <g filter="url(#filter1_dd_240_3579)">
        <rect x="171" y="56" width="150" height="79" rx="8" fill="white"></rect>
    </g>
    <path d="M102.683 90.645C116.648 90.6583 127.957 102.031 127.943 116.047C127.93 130.062 116.599 141.413 102.635 141.399C88.6882 141.386 77.3853 130.04 77.375 116.041C77.3618 102.028 88.6676 90.6583 102.629 90.645C102.647 90.645 102.664 90.645 102.683 90.645ZM94.1835 129.053C99.6655 127.097 105.653 127.095 111.136 129.05L111.924 126.074C112.288 126.074 112.621 126.065 112.957 126.077C113.303 126.049 113.65 126.068 113.991 126.137C113.754 127.372 113.455 128.594 113.092 129.798C114.026 130.315 114.954 130.784 115.836 131.328C116.718 131.87 117.554 132.482 118.406 133.063C128.658 123.635 128.018 107.598 118.367 98.959C116.738 100.245 114.963 101.335 113.079 102.202C113.437 103.475 113.779 104.695 114.004 105.953H111.905C111.777 105.446 111.661 104.961 111.532 104.48C111.422 103.978 111.276 103.485 111.094 103.005C105.623 104.95 99.6523 104.948 94.1835 102.996L93.3925 105.981C93.0287 105.981 92.6929 105.982 92.3586 105.981C92.0169 105.978 91.6752 105.972 91.2687 105.966L92.2216 102.192C90.3422 101.327 88.5733 100.241 86.9517 98.9516C76.7652 108.275 77.1938 124.31 86.9517 133.084C88.5851 131.796 90.3628 130.705 92.2481 129.835C91.8696 128.603 91.5559 127.351 91.3099 126.087H93.4029L94.1835 129.053ZM110.41 101.024C110.398 100.941 110.381 100.86 110.359 100.779C109.716 99.0417 108.836 97.4038 107.744 95.9107C107.042 94.9306 106.155 94.0968 105.134 93.4567C103.71 92.5298 101.891 92.4796 100.418 93.3266C99.4711 93.8603 98.636 94.5729 97.9599 95.4258C96.8729 96.774 95.9878 98.2745 95.3294 99.8785C95.1747 100.238 95.0333 100.603 94.8684 101.008C99.8923 102.817 105.385 102.823 110.41 101.024ZM94.8934 131.02C94.9288 131.141 94.9435 131.212 94.9685 131.277C95.568 132.889 96.3692 134.416 97.3531 135.825C97.9968 136.755 98.7847 137.576 99.6876 138.256C101.583 139.645 103.639 139.662 105.554 138.31C106.21 137.84 106.802 137.285 107.316 136.663C108.624 135.038 109.655 133.207 110.366 131.243C110.387 131.168 110.4 131.091 110.407 131.014C105.389 129.223 99.91 129.226 94.8934 131.02ZM108.573 138.486C111.544 137.735 114.329 136.376 116.751 134.493C115.421 133.455 113.977 132.572 112.45 131.861C111.87 133.048 111.337 134.206 110.745 135.332C110.133 136.456 109.406 137.513 108.573 138.486ZM96.7684 138.494C95.9288 137.534 95.1968 136.481 94.587 135.358C93.9832 134.222 93.4515 133.05 92.8711 131.86C91.3423 132.572 89.8974 133.455 88.5674 134.493C90.9976 136.378 93.7887 137.741 96.7684 138.494ZM112.374 100.174C113.491 99.7957 116.296 98.0513 116.686 97.4954C114.275 95.6328 111.507 94.289 108.556 93.5469C110.26 95.5057 111.428 97.7601 112.374 100.174ZM96.7271 93.5632C93.7725 94.3082 91.0021 95.6594 88.591 97.5294C89.457 98.3381 92.1377 99.9524 92.9566 100.156C93.8344 97.7615 95.1084 95.5323 96.7271 93.5632Z" fill="#1D1D20"></path>
    <path d="M116.13 148.448C116.134 149.216 115.97 149.976 115.651 150.675C115.048 152.025 113.738 152.915 112.266 152.974C111.74 153.023 111.21 152.98 110.701 152.846C109.393 152.519 108.351 151.527 107.955 150.233C107.557 149.07 107.552 147.808 107.937 146.641C108.416 145.059 109.826 143.945 111.469 143.849C112.349 143.753 113.237 143.93 114.013 144.356C115.05 144.943 115.77 145.964 115.976 147.141C116.062 147.568 116.081 148.012 116.13 148.448ZM110.648 148.399L110.721 148.405C110.721 148.742 110.699 149.08 110.726 149.416C110.73 150.004 110.855 150.584 111.092 151.122C111.228 151.425 111.525 151.623 111.855 151.632C112.203 151.656 112.528 151.456 112.667 151.135C112.785 150.9 112.87 150.65 112.92 150.392C113.119 149.219 113.141 148.023 112.985 146.845C112.933 146.47 112.835 146.1 112.693 145.748C112.584 145.416 112.272 145.192 111.923 145.198C111.561 145.185 111.229 145.396 111.086 145.729C110.988 145.909 110.92 146.105 110.886 146.307C110.792 147.003 110.724 147.701 110.648 148.399Z" fill="#1D1D20"></path>
    <path d="M106.852 148.445C106.9 149.226 106.747 150.005 106.408 150.709C105.781 152.082 104.418 152.966 102.915 152.981C102.242 153.031 101.565 152.923 100.94 152.667C99.879 152.23 99.069 151.341 98.7287 150.243C98.3369 149.094 98.3252 147.85 98.6934 146.692C99.1676 145.041 100.654 143.889 102.365 143.845C103.704 143.778 104.879 144.147 105.793 145.184C106.419 145.913 106.788 146.827 106.846 147.788C106.866 148.003 106.852 148.225 106.852 148.445ZM103.882 148.525C103.843 147.904 103.841 147.431 103.775 146.97C103.719 146.565 103.622 146.166 103.485 145.782C103.38 145.43 103.055 145.19 102.689 145.193C102.309 145.177 101.963 145.415 101.841 145.777C101.707 146.07 101.62 146.383 101.585 146.702C101.53 147.652 101.498 148.605 101.511 149.556C101.501 150.101 101.624 150.642 101.869 151.13C102.06 151.565 102.567 151.761 103.002 151.569C103.183 151.488 103.331 151.347 103.421 151.168C103.561 150.927 103.654 150.663 103.694 150.386C103.784 149.718 103.831 149.047 103.879 148.525H103.882Z" fill="#1D1D20"></path>
    <path d="M81.9453 145.903C81.9939 145.924 82.0454 145.939 82.097 145.951C82.6066 145.943 83.0264 146.353 83.0337 146.864C83.0337 146.895 83.0337 146.926 83.0308 146.956C83.0735 147.555 82.667 148.091 82.0823 148.211C81.8805 148.245 81.6743 148.255 81.4696 148.242C80.8244 148.227 80.2957 147.725 80.2441 147.079C80.1248 146.246 80.4312 145.411 81.0586 144.854C81.7214 144.262 82.5639 143.914 83.4491 143.863C84.5169 143.715 85.6039 143.931 86.5363 144.475C87.5658 145.067 88.0695 146.28 87.7617 147.43C87.6114 148.023 87.2241 148.527 86.6909 148.823C86.0826 149.178 85.4316 149.451 84.7541 149.64C84.2651 149.791 83.7687 149.924 83.29 150.105C82.8408 150.232 82.4549 150.524 82.2089 150.924C82.3047 150.9 82.3989 150.872 82.4917 150.838C83.2797 150.465 84.1738 150.384 85.0162 150.609C85.2843 150.683 85.5568 150.742 85.8307 150.788C86.4243 150.876 86.6614 150.68 86.7321 150.068C86.7425 149.98 86.7469 149.893 86.7601 149.75C87.2152 149.719 87.6718 149.72 88.127 149.756C88.18 150.555 88.18 151.323 87.7897 152.035C87.4259 152.702 86.7984 152.916 86.1018 152.977C85.4286 153.021 84.7526 152.94 84.109 152.736C83.6877 152.615 83.2679 152.479 82.8393 152.39C82.4166 152.303 81.9792 152.248 81.7155 152.715H80.2618C80.1985 152.05 80.3222 151.379 80.6226 150.782C80.9997 150.096 81.5447 149.518 82.206 149.102C82.6994 148.761 83.2179 148.455 83.7216 148.13C83.9086 148.014 84.0898 147.889 84.2621 147.753C84.6392 147.458 84.8498 146.999 84.8277 146.52C84.8366 146.081 84.5773 145.68 84.1738 145.509C83.4241 145.158 82.533 145.315 81.9453 145.903Z" fill="#1D1D20"></path>
    <path d="M91.375 144.087C91.3927 144.369 91.406 144.594 91.4222 144.875C91.4796 144.829 91.5356 144.777 91.5857 144.723C92.1277 143.979 92.8847 143.805 93.7302 143.953C94.1573 144.047 94.5785 144.17 94.9909 144.318C95.2413 144.395 95.4902 144.482 95.7377 144.569C95.9424 144.652 96.1751 144.603 96.3313 144.448L96.4785 144.105H97.5861C97.6642 144.347 97.6524 144.609 97.5523 144.842C97.2945 145.432 97.0397 146.025 96.7392 146.593C96.3548 147.317 95.913 148.012 95.5197 148.732C94.96 149.82 94.664 151.023 94.6522 152.247C94.6463 152.391 94.6374 152.534 94.6286 152.703H91.7963C91.727 152.373 91.7167 152.033 91.7653 151.699C91.8493 150.439 92.3928 149.255 93.2942 148.374C93.8892 147.787 94.5078 147.225 95.1132 146.65C95.2487 146.52 95.3739 146.38 95.5786 146.167C95.4048 146.207 95.3312 146.216 95.262 146.239C94.6566 146.421 94.0159 146.448 93.3973 146.319C93.0674 146.256 92.7345 146.21 92.4002 146.185C91.9406 146.129 91.5238 146.457 91.4678 146.918C91.4678 146.922 91.4663 146.927 91.4663 146.93C91.4251 147.146 91.3986 147.363 91.3868 147.583C91.3736 147.725 91.3736 147.87 91.3647 148.036H89.8477V144.105C90.0995 144.099 90.3425 144.09 90.5856 144.086C90.8301 144.086 91.0805 144.087 91.375 144.087Z" fill="#1D1D20"></path>
    <path d="M118.408 145.211C119.222 145.081 120.032 144.958 120.446 144.107H122.644C122.651 144.27 122.661 144.425 122.663 144.581C122.664 146.577 122.664 148.574 122.663 150.57C122.663 150.674 122.66 150.776 122.663 150.879C122.678 151.328 122.816 151.478 123.273 151.506C123.489 151.519 123.707 151.509 123.947 151.509C123.994 151.892 124.006 152.277 123.984 152.662C123.635 152.749 119.135 152.779 118.415 152.702V151.562C118.819 151.432 119.287 151.627 119.744 151.327C119.803 151.17 119.841 151.008 119.859 150.842C119.87 149.448 119.866 148.053 119.864 146.658C119.856 146.586 119.841 146.515 119.819 146.446H118.406L118.408 145.211Z" fill="#1D1D20"></path>
    <path d="M102.391 80L103.036 82.6417L103.131 82.6402L103.845 80.0414H105.61V84.5325H104.515V81.3526C104.118 82.3801 103.877 83.4503 103.552 84.5177H102.544L101.765 81.2861L101.673 81.2891C101.668 81.5507 101.662 81.8124 101.659 82.074C101.656 82.3357 101.655 82.6033 101.652 82.8679C101.649 83.1473 101.653 83.4267 101.642 83.7061C101.63 83.9663 101.6 84.2264 101.575 84.5265L100.602 84.4733C100.506 84.1525 100.509 80.6771 100.603 80H102.391Z" fill="#1D1D20"></path>
    <path d="M125.22 94.1236L124.263 93.2632L124.653 90.3407L124.576 90.3081L122.965 92.0791L122.02 91.204L125.062 87.8364L126.007 88.7204L125.602 91.6475L125.674 91.6874L127.304 89.9016L128.265 90.7649L125.22 94.1236Z" fill="#1D1D20"></path>
    <path d="M83.5771 88.3711L82.1838 86.467L83.2148 85.6909L85.9028 89.3394L84.8688 90.1199L81.9879 89.1161C82.4798 89.8627 82.9821 90.4776 83.4563 91.1562L82.4268 91.9278L79.7344 88.2794L80.7683 87.5107L83.502 88.4612L83.5771 88.3711Z" fill="#1D1D20"></path>
    <path d="M135.809 117.764C135.293 118.348 134.832 118.635 133.766 119.025V117.533L135.199 116.797C135.423 116.717 135.595 116.533 135.661 116.302C135.669 116.213 135.67 116.125 135.663 116.034H133.878C133.83 115.573 133.829 115.109 133.872 114.648C135.378 114.595 136.857 114.742 138.367 114.723C138.367 115.167 138.374 115.56 138.365 115.953C138.354 116.438 138.327 116.921 138.305 117.405C138.301 117.492 138.299 117.581 138.286 117.668C138.19 118.327 137.84 118.71 137.278 118.769C136.66 118.901 136.046 118.533 135.866 117.925C135.85 117.876 135.832 117.825 135.809 117.764ZM137.234 117.338C137.477 116.985 137.511 116.728 137.398 116.113L136.573 116.058C136.474 116.321 136.454 116.607 136.515 116.882C136.608 117.353 136.719 117.427 137.234 117.338Z" fill="#1D1D20"></path>
    <path d="M94.8945 80.7985C95.6914 80.6654 96.4366 80.5383 97.1849 80.42C97.4293 80.3757 97.6768 80.3506 97.9242 80.3446C98.4574 80.3033 98.9435 80.6507 99.0804 81.1681C99.2601 81.7017 99.0657 82.2901 98.6047 82.6109C98.5252 82.6671 98.4427 82.7173 98.3484 82.7779C99.0142 83.1593 99.3087 83.4816 99.9656 84.5415C99.7138 84.5888 99.4766 84.6361 99.238 84.6775C98.9935 84.7204 98.7491 84.7574 98.4766 84.8017C98.1393 84.3671 97.7976 83.9295 97.4588 83.4905C97.3071 83.2258 96.9786 83.1209 96.7017 83.2495L96.9757 85.0456L95.6295 85.2718L94.8945 80.7985ZM97.7946 81.8466C97.7534 81.4859 97.5928 81.2937 97.3056 81.3129C96.9934 81.3026 96.6826 81.3676 96.3998 81.5022L96.5633 82.3788C97.0626 82.3019 97.5501 82.3477 97.7946 81.8466Z" fill="#1D1D20"></path>
    <path d="M89.4727 83.8764C89.48 82.3389 90.8807 81.6929 92.0502 81.6634C93.5069 81.6264 94.2138 82.9332 94.2551 84.2386C94.2993 85.6873 93.0488 86.4013 91.6422 86.4486C90.296 86.4944 89.5404 85.2201 89.4727 83.8764ZM92.9118 84.4293C92.8927 83.9592 92.7395 83.5038 92.4714 83.118C92.2269 82.7883 91.7924 82.6671 91.4139 82.8238C91.0368 82.9436 90.7879 83.3028 90.8056 83.699C90.8248 84.1853 90.9941 84.654 91.2902 85.0383C91.5288 85.3561 91.9545 85.4626 92.3138 85.297C92.6953 85.1891 92.9457 84.8254 92.9118 84.4293Z" fill="#1D1D20"></path>
    <path d="M123.049 87.409C122.998 88.395 122.441 89.2835 121.578 89.7565C121.13 89.993 120.604 90.03 120.129 89.86C119.579 89.6915 119.086 89.3766 118.7 88.9508C118.245 88.4719 118.072 87.7889 118.246 87.1488C118.388 86.5427 118.716 85.9987 119.184 85.5907C119.723 85.0851 120.503 84.9328 121.19 85.1989C121.75 85.3837 122.245 85.7252 122.618 86.1835C122.908 86.525 123.061 86.9611 123.049 87.409ZM121.771 87.2345C121.771 86.5959 121.031 85.9706 120.413 86.3564C119.887 86.6698 119.541 87.2153 119.482 87.8259C119.417 88.4704 120.184 89.0189 120.741 88.7232C121.289 88.4083 121.668 87.8613 121.771 87.2345Z" fill="#1D1D20"></path>
    <path d="M69.4452 122.655C68.289 122.655 67.5496 122.101 67.2962 121.026C67.199 120.643 67.1666 120.247 67.2005 119.853C67.311 118.852 67.8221 118.302 68.7971 118.055C69.2066 117.943 69.6337 117.912 70.0549 117.963C70.8208 118.039 71.466 118.568 71.6898 119.307C71.8577 119.78 71.9167 120.284 71.8607 120.784C71.8018 121.49 71.3584 122.105 70.7104 122.385C70.3156 122.576 69.8826 122.669 69.4452 122.655ZM69.7825 119.301C69.3863 119.291 68.993 119.381 68.641 119.564C68.3214 119.764 68.1579 120.142 68.2301 120.513C68.2698 120.893 68.56 121.199 68.9356 121.257C69.3995 121.346 69.8782 121.288 70.3083 121.094C70.6618 120.955 70.8798 120.596 70.8415 120.216C70.8149 119.62 70.4511 119.304 69.7825 119.301Z" fill="#1D1D20"></path>
    <path d="M138.306 112.953C137.983 113.008 137.701 113.059 137.416 113.101C136.81 113.189 136.201 113.283 135.593 113.358C134.715 113.469 133.774 113.071 133.556 111.985C133.465 111.554 133.419 111.117 133.419 110.678C133.394 110.02 133.809 109.426 134.435 109.228C134.895 109.086 135.366 108.984 135.843 108.923C136.434 108.826 137.029 108.759 137.623 108.679C137.793 109.105 137.864 109.565 137.827 110.021C137.203 110.113 136.57 110.203 135.935 110.296C135.659 110.336 135.381 110.357 135.111 110.418C134.687 110.474 134.388 110.864 134.444 111.29C134.456 111.384 134.485 111.475 134.531 111.559C134.63 111.849 134.917 112.032 135.22 111.996C135.599 111.965 135.974 111.914 136.352 111.862C136.829 111.797 137.306 111.72 137.783 111.655C137.891 111.648 137.998 111.648 138.107 111.654L138.306 112.953Z" fill="#1D1D20"></path>
    <path d="M133.131 102.704L132.153 100.737L131.324 101.148L132.389 103.315L131.526 103.757C131.485 103.707 131.448 103.652 131.414 103.597C130.887 102.531 130.362 101.466 129.809 100.345L133.874 98.3345L135.522 101.693L134.693 102.114L133.632 100.003L132.961 100.33L133.919 102.299L133.131 102.704Z" fill="#1D1D20"></path>
    <path d="M132.037 97.6576L131.298 96.716C131.541 96.1335 131.479 95.7477 131.122 95.5392C130.925 95.4239 130.837 95.4564 130.603 95.7521L130.798 96.3479C130.918 96.71 131.059 97.0663 131.15 97.4344C131.298 97.8971 131.158 98.4027 130.795 98.725C130.414 99.0901 129.859 99.2054 129.364 99.0236C129.171 98.957 128.991 98.8565 128.832 98.7279C128.318 98.3066 127.941 97.7419 127.748 97.1047C127.565 96.4957 127.806 95.8378 128.337 95.489L129.103 96.4572C128.898 96.7544 128.697 97.0545 128.867 97.427C128.962 97.6975 129.196 97.8942 129.479 97.937C129.872 97.7848 129.972 97.6251 129.875 97.2481C129.816 97.022 129.7 96.8106 129.645 96.5844C129.545 96.2192 129.476 95.8452 129.437 95.4683C129.384 94.7173 130.187 94.2102 130.857 94.3921C131.015 94.4275 131.164 94.4911 131.299 94.5783C131.958 95.0336 132.413 95.7299 132.566 96.5179C132.641 96.9126 132.464 97.2674 132.037 97.6576Z" fill="#1D1D20"></path>
    <path d="M69.1342 124.02L69.5672 125.2C69.2387 125.447 69.0605 125.741 69.2476 126.151C69.3566 126.39 69.4376 126.437 69.7646 126.427C70.0002 126.245 69.9354 125.988 69.9325 125.741C69.9119 125.289 69.9177 124.835 69.9457 124.384C70.0488 123.303 71.3391 122.974 72.1079 123.564C72.2729 123.686 72.4128 123.838 72.5233 124.011C72.9209 124.635 73.0962 125.377 73.0196 126.115C72.9489 126.7 72.5439 127.018 72.0078 127.27L71.5629 126.091C72.2743 125.475 72.2655 124.857 71.5556 124.541C71.1653 124.656 71.0902 124.733 71.0769 125.105C71.0666 125.398 71.0975 125.694 71.0843 125.986C71.0813 126.264 71.0504 126.542 70.99 126.814C70.8398 127.431 70.2212 127.809 69.6055 127.66C69.4626 127.624 69.3286 127.562 69.2078 127.477C69.0488 127.372 68.9132 127.236 68.8057 127.077C68.3977 126.477 68.2136 125.751 68.2843 125.027C68.3477 124.554 68.6791 124.159 69.1342 124.02Z" fill="#1D1D20"></path>
    <path d="M110.925 85.5436L109.549 85.2775C109.505 84.9877 109.469 84.7467 109.431 84.494L107.871 84.1953L107.459 84.8857L106.117 84.6196L108.625 80.4893L110.097 80.7701C110.396 82.3356 110.658 83.9012 110.925 85.5436ZM109.327 83.5094C109.321 82.9565 109.232 82.4081 109.066 81.8803L108.322 83.2995L109.327 83.5094Z" fill="#1D1D20"></path>
    <path d="M73.8481 101.951C73.608 101.895 73.362 101.858 73.1278 101.78C72.5593 101.588 72.0291 101.293 71.5651 100.912C70.9568 100.498 70.7418 99.6983 71.0614 99.0331C71.1615 98.7744 71.297 98.529 71.4635 98.3073C71.7905 97.8342 72.3737 97.611 72.9319 97.744C73.7243 97.9067 74.4564 98.2807 75.0543 98.8276C75.6317 99.2623 75.7967 100.059 75.4388 100.689C75.315 100.953 75.1604 101.202 74.9778 101.429C74.6979 101.765 74.284 101.957 73.8481 101.951ZM74.0189 100.797C74.3415 100.809 74.5182 100.721 74.6022 100.517C74.7009 100.293 74.6346 100.029 74.4402 99.8802C73.8908 99.3953 73.2383 99.0435 72.5313 98.8498C72.2971 98.7729 72.0423 98.8749 71.926 99.0937C71.8184 99.277 71.8376 99.5077 71.9746 99.6688C72.0158 99.7294 72.0659 99.7826 72.1233 99.8284C72.63 100.225 73.1971 100.538 73.8009 100.757C73.8716 100.778 73.9453 100.791 74.0189 100.797Z" fill="#1D1D20"></path>
    <path d="M134.432 106.909V108.04C133.694 108.231 132.927 107.868 132.601 107.177C132.386 106.758 132.26 106.299 132.23 105.828C132.163 105.073 132.548 104.352 133.213 103.991C133.725 103.67 134.322 103.507 134.927 103.525C135.432 103.525 135.914 103.741 136.25 104.12C136.745 104.674 137.002 105.401 136.969 106.145C136.939 106.727 136.619 107.255 136.12 107.552L135.518 106.507C135.574 106.443 135.624 106.392 135.669 106.337C135.995 105.978 135.968 105.423 135.612 105.097C135.422 104.922 135.164 104.841 134.908 104.875C134.493 104.953 134.091 105.088 133.711 105.274C133.37 105.423 133.197 105.805 133.307 106.161C133.364 106.522 133.647 106.803 134.007 106.859C134.132 106.882 134.263 106.888 134.432 106.909Z" fill="#1D1D20"></path>
    <path d="M71.8542 105.983C71.0309 105.896 70.2473 105.59 69.5801 105.098C69.1323 104.786 68.9232 104.23 69.0543 103.699C69.1176 103.384 69.2163 103.078 69.3488 102.787C69.6036 102.197 70.2252 101.857 70.8571 101.962C71.6318 102.033 72.3756 102.304 73.0163 102.747C73.629 103.096 73.8986 103.84 73.6526 104.502C73.5981 104.699 73.5259 104.892 73.4405 105.077C73.1518 105.705 72.6481 105.988 71.8542 105.983ZM72.1561 104.842C72.5096 104.839 72.6967 104.721 72.7777 104.496C72.8587 104.282 72.7806 104.039 72.5906 103.912C72.4581 103.797 72.3108 103.701 72.1532 103.625C71.8056 103.476 71.4477 103.344 71.0898 103.219C70.9233 103.163 70.7525 103.124 70.5787 103.101C70.3106 103.05 70.0426 103.194 69.935 103.445C69.8496 103.662 69.9144 103.857 70.156 104.056C70.2547 104.143 70.3666 104.214 70.4874 104.267C70.9351 104.443 71.3858 104.61 71.8395 104.771C71.944 104.802 72.0516 104.824 72.1606 104.839L72.1561 104.842Z" fill="#1D1D20"></path>
    <path d="M68.4752 113.446L68.2675 114.598C67.3765 114.415 66.9788 113.931 67.0009 113.041C67.0097 112.675 67.0613 112.311 67.1555 111.956C67.3161 111.272 67.9995 110.846 68.6814 111.007C68.8641 111.05 69.0349 111.133 69.1807 111.25C69.5121 111.517 69.7846 111.85 69.982 112.228C70.1514 112.499 70.3207 112.769 70.5166 113.084C70.7287 112.753 70.633 112.438 70.6801 112.148C70.7287 111.847 70.7479 111.541 70.7862 111.18L71.7671 111.233C71.6522 112.511 71.5432 113.733 71.4313 115.003C70.9983 114.913 70.6021 114.696 70.2913 114.379C69.9996 114.053 69.7463 113.69 69.4871 113.337C69.331 113.124 69.1955 112.896 69.0482 112.679C68.9996 112.607 68.9436 112.537 68.8832 112.474C68.7241 112.273 68.4605 112.185 68.213 112.25C67.9995 112.327 67.8537 112.525 67.8463 112.753C67.8375 113.012 67.9965 113.247 68.2396 113.333C68.3058 113.359 68.3692 113.393 68.4752 113.446Z" fill="#1D1D20"></path>
    <path d="M88.2629 84.96L88.6679 85.7302L87.1155 86.5728L87.9609 88.2167L86.7532 88.8642L84.6484 84.8432L87.6914 83.2407L88.1421 84.0612L86.3305 85.0339L86.6987 85.7701L88.2629 84.96Z" fill="#1D1D20"></path>
    <path d="M132.684 129.749L130.953 128.989L131.498 127.736L133.251 128.482L136.353 127.931L135.747 129.31L133.961 129.556L134.996 131.031L134.398 132.425L132.684 129.749Z" fill="#1D1D20"></path>
    <path d="M113.332 86.4096L112.043 85.9691L113.124 82.7583C112.721 82.4877 112.238 82.4478 111.793 82.2128L112.141 81.2075L116.154 82.5779L115.807 83.6024L114.444 83.1589L113.332 86.4096Z" fill="#1D1D20"></path>
    <path d="M132.979 123.126L136.292 123.995L136.678 122.613L137.716 122.886L136.648 126.989L135.595 126.731L135.949 125.337L132.641 124.452L132.979 123.126Z" fill="#1D1D20"></path>
    <path d="M68.4311 109.877L67.4531 109.643L68.2529 106.079L69.0468 106.254C69.7788 107.455 70.9409 108.334 72.2945 108.708L72.0323 109.88C70.8083 109.497 69.739 108.73 68.9805 107.69C68.7331 108.436 68.6609 109.148 68.4311 109.877Z" fill="#1D1D20"></path>
    <path d="M74.9971 95.7358C74.9102 96.1734 74.8381 96.5459 74.76 96.917C74.735 96.9924 74.7011 97.0663 74.6613 97.1358L73.8807 96.5622C74.0972 95.8955 74.1871 95.2347 73.8203 94.5857L74.4286 93.7534L78.127 96.4897L77.3994 97.4979L74.9971 95.7358Z" fill="#1D1D20"></path>
    <path d="M81.6251 92.6503L80.681 93.6644L77.5703 90.3811L78.5233 89.3862L81.6251 92.6503Z" fill="#1D1D20"></path>
    <path d="M116.593 87.824L115.355 87.2267L117.283 83.1289L118.532 83.7114L116.593 87.824Z" fill="#1D1D20"></path>
    <path d="M73.7638 127.591L74.3059 128.858L70.1568 130.657L69.6133 129.392L73.7638 127.591Z" fill="#1D1D20"></path>
    <path d="M133.418 120.974L133.614 119.642C135.104 119.822 136.563 120.047 138.072 120.275L137.888 121.613C136.381 121.426 134.917 121.211 133.418 120.974Z" fill="#1D1D20"></path>
    <path d="M122.275 116.046C122.288 117.227 122.026 118.396 121.512 119.458C120.852 120.754 119.743 121.764 118.392 122.296C117.411 122.686 116.372 122.903 115.317 122.942C114.089 123.039 112.853 122.905 111.675 122.547C109.125 121.727 107.598 120.002 107.209 117.314C107.016 116.09 107.094 114.839 107.437 113.649C107.954 111.834 109.299 110.375 111.062 109.714C112.573 109.138 114.202 108.936 115.807 109.13C116.729 109.192 117.634 109.412 118.482 109.779C120.493 110.611 121.896 112.474 122.147 114.643C122.214 115.107 122.234 115.578 122.275 116.046ZM117.267 116.046C117.226 115.417 117.205 114.785 117.136 114.159C117.084 113.454 116.894 112.768 116.576 112.137C116.224 111.435 115.497 111.002 114.715 111.03C113.918 110.99 113.169 111.42 112.801 112.131C112.542 112.626 112.374 113.163 112.303 113.717C112.097 115.083 112.072 116.47 112.23 117.842C112.278 118.471 112.429 119.091 112.675 119.672C113.149 120.785 114.435 121.302 115.544 120.826C116.031 120.617 116.426 120.237 116.656 119.758C116.791 119.465 116.897 119.16 116.97 118.845C117.168 117.925 117.267 116.987 117.267 116.046Z" fill="#1D1D20"></path>
    <path d="M103.146 113.913C103.059 113.672 102.992 113.478 102.922 113.286C102.442 111.991 101.475 111.332 100.141 111.188C99.6328 111.11 99.1129 111.138 98.6165 111.271C98.291 111.366 97.9979 111.546 97.7667 111.796C97.2909 112.323 97.3425 112.918 97.9464 113.287C98.2984 113.496 98.6784 113.654 99.0731 113.757C99.9038 113.987 100.754 114.152 101.587 114.377C102.556 114.612 103.481 114.999 104.33 115.525C105.242 116.095 105.826 117.069 105.9 118.144C106.055 119.235 105.75 120.34 105.057 121.196C104.532 121.816 103.848 122.28 103.079 122.539C102.051 122.886 100.963 123.025 99.8803 122.947C98.6062 122.877 97.3587 122.553 96.2098 121.995C96.1598 121.971 96.1038 121.956 96.0184 121.927L95.5294 122.617H93.8032V117.826C94.1007 117.78 94.4041 117.768 94.7046 117.789C94.9962 117.781 95.2878 117.787 95.6163 117.787C95.6767 117.945 95.7297 118.093 95.7901 118.238C96.391 119.675 97.3999 120.637 98.9568 120.938C99.4737 121.057 100.011 121.045 100.522 120.904C100.802 120.821 101.063 120.688 101.294 120.509C101.741 120.19 101.845 119.567 101.528 119.119C101.464 119.028 101.384 118.948 101.293 118.883C100.917 118.605 100.5 118.386 100.058 118.235C99.2027 117.937 98.3205 117.718 97.4574 117.441C96.855 117.26 96.2629 117.045 95.684 116.8C94.5838 116.309 93.7781 115.511 93.5336 114.297C93.1433 112.359 93.9549 110.674 95.7253 109.736C96.4838 109.348 97.3189 109.13 98.1688 109.096C99.7816 108.977 101.4 109.271 102.869 109.951C102.922 109.976 102.978 109.994 103.073 110.031L103.431 109.43H105.249V113.902C104.912 113.905 104.567 113.911 104.224 113.913C103.87 113.914 103.52 113.913 103.146 113.913Z" fill="#1D1D20"></path>
    <path d="M92.2601 120.738V122.54H84.582V120.738C84.8192 120.738 85.0504 120.742 85.2787 120.736C85.4392 120.736 85.5998 120.723 85.7589 120.696C86.0019 120.673 86.1963 120.48 86.2243 120.237C86.2596 120.049 86.2832 119.86 86.292 119.67C86.2965 117.231 86.2965 114.79 86.292 112.351C86.2906 111.488 86.0858 111.291 85.2257 111.277C85.0224 111.274 84.8177 111.277 84.582 111.277V109.483H92.2071C92.3073 110.066 92.3161 110.662 92.2322 111.247C92.1261 111.257 92.0142 111.271 91.9008 111.278C91.7873 111.285 91.6666 111.278 91.5487 111.281C90.7652 111.309 90.5796 111.478 90.5796 112.254C90.5722 114.752 90.5722 117.25 90.5796 119.749C90.5825 120.55 90.7696 120.723 91.5723 120.738C91.7903 120.741 92.0068 120.738 92.2601 120.738Z" fill="#1D1D20"></path>
    <path d="M224.995 72.4499C220.72 70.1157 215.89 69.0526 211.036 69.353C206.183 69.6766 201.514 71.3637 197.586 74.2294C193.587 77.1183 190.514 81.0934 188.734 85.6926C187.81 88.073 187.232 90.569 187.047 93.1112H193.426C193.865 88.3734 196.037 83.9592 199.527 80.7237C203.017 77.4881 207.57 75.6392 212.33 75.5699C217.207 75.4774 221.945 77.2339 225.596 80.4926C229.225 83.7512 231.513 88.2579 231.975 93.1112H238.33C237.914 86.1548 234.009 77.3957 224.995 72.4499ZM214.503 88.6739C214.087 89.1823 213.532 89.529 212.885 89.7139C212.261 89.8988 211.591 89.8757 210.967 89.6446C210.505 89.529 210.089 89.2979 209.742 88.9512C209.395 88.6277 209.141 88.2117 209.002 87.7726C208.864 87.3334 208.841 86.8481 208.933 86.3859C209.026 85.9237 209.234 85.4846 209.534 85.1379C210.089 84.537 210.851 84.1441 211.683 84.0748C212.515 84.0054 213.324 84.2366 213.971 84.745C214.179 84.9068 214.364 85.0917 214.549 85.2766C214.78 85.1148 215.011 84.9299 215.289 84.745C214.988 84.3059 214.595 83.9361 214.133 83.6819C213.278 83.2197 212.307 83.0348 211.337 83.1734C210.828 83.2197 210.32 83.3814 209.858 83.6126C209.395 83.8668 209.002 84.1903 208.679 84.5832C208.355 84.9761 208.124 85.4152 207.986 85.9006C207.847 86.3859 207.824 86.8943 207.893 87.3797C207.962 88.0037 208.194 88.6277 208.563 89.1361C208.933 89.6446 209.442 90.0606 210.019 90.3148C210.713 90.6383 211.498 90.7539 212.261 90.6846C213.186 90.6614 214.087 90.2917 214.803 89.6908C214.988 89.529 215.127 89.3441 215.312 89.1823L214.526 88.6277C214.526 88.6277 214.526 88.6508 214.503 88.6739ZM220.35 90.569H221.459L222.615 88.2579H225.689L226.867 90.569H227.954C226.682 88.0037 225.434 85.4614 224.163 82.9192C222.892 85.4614 221.621 88.0037 220.35 90.569ZM223.1 87.3103C223.447 86.5939 223.817 85.9006 224.163 85.1841C224.533 85.9006 224.88 86.617 225.226 87.3103H223.1ZM197.516 90.569H198.626C199.018 89.8063 199.411 89.0206 199.781 88.2579H202.855C203.248 89.0206 203.641 89.8063 204.034 90.569H205.12L201.33 82.8961C200.058 85.4614 198.787 88.0037 197.516 90.569ZM200.243 87.3103C200.59 86.5939 200.96 85.9006 201.33 85.161C201.699 85.9006 202.046 86.5939 202.393 87.3103H200.243ZM221.251 86.3397C221.413 86.0854 221.529 85.785 221.552 85.4846C221.575 85.1841 221.529 84.8606 221.413 84.5832C221.298 84.3059 221.113 84.0517 220.882 83.8437C220.65 83.6357 220.373 83.497 220.073 83.4277C219.726 83.3352 219.356 83.289 218.986 83.3121C218.247 83.289 217.507 83.3121 216.745 83.3121C216.698 83.3121 216.652 83.3121 216.629 83.3121V90.569H217.6V87.3103C217.854 87.3103 218.085 87.3103 218.316 87.3103C218.778 87.2872 219.264 87.2872 219.726 87.241C220.026 87.2179 220.327 87.1254 220.604 86.9868C220.858 86.8019 221.09 86.5939 221.251 86.3397ZM220.466 85.6463C220.396 85.8543 220.258 86.0161 220.073 86.1317C219.888 86.2472 219.68 86.3166 219.472 86.3166C218.871 86.3397 218.247 86.3166 217.623 86.3166V84.1903C218.27 84.2134 218.894 84.2134 219.518 84.2366C219.68 84.2366 219.842 84.2828 219.98 84.3521C220.119 84.4214 220.258 84.537 220.35 84.6757C220.442 84.8143 220.489 84.9761 220.512 85.1379C220.535 85.3228 220.512 85.5077 220.466 85.6463ZM205.698 90.5459H206.691V83.289H205.698V90.5459ZM271.333 109.497H273.043V114.882H274.962V109.497H276.672V107.995H271.356V109.497H271.333ZM277.203 114.859H279.122V107.972H277.203V114.859ZM286.194 114.859H288.112V107.972H286.194V114.859ZM280.323 109.335V110.722V112.132V114.859H282.242V112.132H284.599V110.722H282.242V109.335H285.315V107.972H280.346L280.323 109.335ZM289.314 109.335V110.56V111.97V113.518V114.882H294.282V113.518H291.209V111.97H293.566V110.56H291.209V109.335H294.282V107.972H289.314V109.335ZM259.038 114.882H264.007V113.518H260.933V111.97H263.29V110.56H260.933V109.335H264.007V107.972H259.038V114.882ZM298.165 107.972H295.322V114.859H298.165C298.974 114.859 299.76 114.535 300.338 113.957C300.915 113.38 301.239 112.594 301.239 111.785V111.022C301.239 110.213 300.915 109.428 300.338 108.85C299.76 108.295 298.974 107.972 298.165 107.972ZM297.218 113.518V109.358C297.888 109.358 299.298 109.058 299.298 111.438C299.321 113.796 297.911 113.518 297.218 113.518ZM270.802 110.121C270.802 109.844 270.755 109.566 270.64 109.289C270.524 109.035 270.362 108.804 270.178 108.596C269.97 108.388 269.738 108.249 269.484 108.133C269.23 108.018 268.953 107.972 268.652 107.972H265.07V114.859H266.988V112.27H267.682L268.745 114.859H270.894L269.715 111.993C270.039 111.808 270.316 111.531 270.524 111.207C270.709 110.884 270.802 110.514 270.802 110.121ZM268.121 110.907H266.988V109.335H268.121C268.329 109.335 268.537 109.428 268.675 109.566C268.814 109.705 268.906 109.913 268.906 110.121C268.906 110.329 268.814 110.537 268.675 110.676C268.537 110.837 268.329 110.907 268.121 110.907ZM255.525 100.853H258.137V93.481H260.471V92.9032L262.713 96.9477V100.877H265.324V96.9477L268.398 91.4241H265.602L264.03 94.3823L262.458 91.4241H253.191V93.5041H255.525V100.853ZM284.137 93.273V91.401H277.296V100.853H284.137V99.0046H279.93V96.8783H283.166V94.937H279.93V93.273H284.137ZM255.41 107.787H255.155C254.346 107.787 253.584 108.11 253.006 108.665C252.428 109.243 252.105 110.005 252.105 110.814V111.993C252.105 112.386 252.174 112.779 252.336 113.149C252.498 113.518 252.706 113.842 252.983 114.142C253.26 114.42 253.607 114.651 253.977 114.789C254.346 114.951 254.739 115.021 255.132 115.021H255.386C256.126 115.021 256.819 114.72 257.351 114.212C257.882 113.703 258.16 112.987 258.16 112.247H256.334C256.195 113.264 255.733 113.611 255.178 113.611C254.508 113.611 253.977 113.125 253.977 111.508C253.977 109.913 254.508 109.197 255.178 109.197C255.71 109.197 256.172 109.682 256.334 110.699H258.16V110.56C258.16 109.821 257.859 109.104 257.351 108.596C256.866 108.087 256.149 107.787 255.41 107.787ZM277.897 85.0917H278.243C279.237 85.0917 280.185 84.6988 280.878 84.0054C281.571 83.3121 281.987 82.3646 281.987 81.3708H279.538C279.353 82.7343 278.729 83.1966 277.989 83.1966C277.088 83.1966 276.371 82.5263 276.371 80.377C276.371 78.2277 277.088 77.257 277.989 77.257C278.706 77.257 279.33 77.9041 279.538 79.2677H281.987V79.0597C281.987 78.0659 281.594 77.1183 280.901 76.4019C280.208 75.7086 279.237 75.3157 278.243 75.3157H277.897C276.81 75.3157 275.77 75.7548 275.008 76.5174C274.245 77.2801 273.806 78.3201 273.806 79.4063V81.001C273.806 81.5326 273.922 82.0641 274.106 82.5726C274.314 83.0579 274.615 83.5201 274.985 83.8899C275.354 84.2597 275.817 84.5601 276.302 84.7681C276.81 84.9992 277.342 85.0917 277.897 85.0917ZM275.216 96.7166C275.308 96.6472 275.401 96.5779 275.47 96.5086C275.493 96.4854 275.516 96.4854 275.516 96.4623C275.586 96.393 275.632 96.3468 275.678 96.2774C275.701 96.2543 275.747 96.2081 275.77 96.1619C275.817 96.1157 275.84 96.0694 275.863 96.0232C275.909 95.977 275.955 95.9077 275.978 95.8383C276.233 95.3992 276.371 94.8677 276.371 94.3592C276.371 93.9663 276.302 93.5966 276.14 93.2268C276.002 92.8801 275.77 92.5334 275.493 92.2792C275.216 92.0019 274.892 91.7939 274.546 91.6321C274.199 91.4934 273.806 91.401 273.413 91.401H268.49V100.853H271.102V97.3174H273.39C274.083 97.3174 274.707 97.1094 275.216 96.7166ZM271.171 95.4223V93.273H272.72C272.997 93.273 273.274 93.3886 273.482 93.5966C273.69 93.8046 273.806 94.0819 273.806 94.3592C273.806 94.6366 273.69 94.9139 273.482 95.1219C273.274 95.3299 272.997 95.4454 272.72 95.4454H271.171V95.4223ZM291.902 91.401H289.29V100.853H291.902V91.401ZM293.589 100.853H296.201V91.401H293.589V100.853ZM268.56 85.0917H269.068C269.646 85.0917 270.201 84.953 270.732 84.6988C271.241 84.4446 271.703 84.0748 272.05 83.6126C272.674 82.873 272.997 81.9486 272.997 81.001V79.4063C272.997 78.4588 272.674 77.5343 272.05 76.7948C271.703 76.3326 271.241 75.9628 270.732 75.7086C270.224 75.4543 269.646 75.3157 269.068 75.3157H268.56C267.982 75.3157 267.404 75.4543 266.896 75.7086C266.387 75.9628 265.925 76.3326 265.578 76.7948C264.978 77.5343 264.631 78.4588 264.631 79.4063V81.001C264.631 81.9486 264.954 82.873 265.578 83.6126C265.925 84.0748 266.387 84.4446 266.896 84.6988C267.404 84.953 267.982 85.0917 268.56 85.0917ZM267.474 78.4357C267.52 78.2739 267.589 78.1352 267.658 78.0197C267.682 77.9966 267.682 77.9734 267.705 77.9503C267.728 77.9272 267.751 77.881 267.774 77.8579C267.797 77.8348 267.797 77.8117 267.82 77.7886C267.843 77.7654 267.866 77.7423 267.89 77.7192C267.913 77.6961 267.936 77.673 267.936 77.6499C267.959 77.6268 267.982 77.6037 268.005 77.5806C268.028 77.5574 268.028 77.5574 268.051 77.5343C268.098 77.5112 268.144 77.465 268.167 77.4419L268.19 77.4188C268.236 77.3957 268.259 77.3726 268.306 77.3726C268.329 77.3726 268.329 77.3494 268.352 77.3494C268.398 77.3263 268.421 77.3263 268.467 77.3032C268.49 77.3032 268.49 77.3032 268.514 77.3032C268.56 77.3032 268.606 77.2801 268.652 77.2801H268.675C268.722 77.2801 268.768 77.2801 268.837 77.2801C268.883 77.2801 268.953 77.2801 268.999 77.2801H269.022C269.068 77.2801 269.114 77.3032 269.161 77.3032C269.161 77.3032 269.184 77.3032 269.207 77.3032C269.253 77.3032 269.276 77.3263 269.322 77.3494C269.346 77.3494 269.346 77.3494 269.369 77.3726C269.415 77.3957 269.438 77.4188 269.484 77.4188L269.507 77.4419C269.554 77.465 269.6 77.5112 269.623 77.5343C269.646 77.5574 269.646 77.5574 269.669 77.5806C269.692 77.6037 269.715 77.6268 269.738 77.6499C269.762 77.673 269.785 77.6961 269.785 77.7192C269.808 77.7423 269.831 77.7654 269.854 77.7886C269.877 77.8117 269.9 77.8348 269.9 77.8579C269.923 77.881 269.946 77.9272 269.97 77.9503C269.993 77.9734 269.993 77.9966 270.016 78.0197C270.085 78.1583 270.154 78.297 270.201 78.4357C270.409 79.0597 270.501 79.7068 270.478 80.377C270.501 80.9086 270.432 81.4401 270.293 81.9717C270.293 81.9948 270.293 81.9948 270.293 82.0179C270.27 82.0872 270.247 82.1334 270.224 82.1797C270.178 82.2952 270.108 82.4339 270.062 82.5263C270.062 82.5263 270.062 82.5494 270.039 82.5494C270.016 82.5957 269.993 82.6419 269.946 82.665C269.946 82.665 269.946 82.665 269.946 82.6881C269.923 82.7343 269.877 82.7574 269.854 82.8037C269.762 82.8961 269.646 82.9886 269.53 83.0579C269.507 83.081 269.484 83.081 269.438 83.1041C269.415 83.1041 269.392 83.1272 269.392 83.1272C269.369 83.1272 269.346 83.1503 269.322 83.1503C269.299 83.1503 269.276 83.1734 269.23 83.1734C269.207 83.1734 269.184 83.1734 269.184 83.1966C269.138 83.1966 269.114 83.2197 269.068 83.2197H269.045C268.999 83.2197 268.953 83.2197 268.883 83.2197C268.837 83.2197 268.768 83.2197 268.722 83.2197H268.698C268.652 83.2197 268.629 83.2197 268.583 83.1966C268.56 83.1966 268.537 83.1966 268.537 83.1734C268.514 83.1734 268.49 83.1503 268.444 83.1503C268.421 83.1503 268.398 83.1272 268.375 83.1272C268.352 83.1272 268.329 83.1041 268.306 83.1041C268.282 83.1041 268.259 83.081 268.213 83.0579C268.098 82.9886 267.982 82.9192 267.89 82.8037C267.866 82.7806 267.82 82.7343 267.797 82.6881C267.797 82.6881 267.797 82.6881 267.797 82.665C267.774 82.6188 267.751 82.5957 267.705 82.5494C267.705 82.5494 267.705 82.5263 267.682 82.5263C267.612 82.4108 267.566 82.2952 267.52 82.1797C267.497 82.1334 267.474 82.0641 267.45 82.0179C267.45 82.0179 267.45 81.9948 267.45 81.9717C267.312 81.4632 267.242 80.9086 267.266 80.377C267.173 79.7299 267.266 79.0597 267.474 78.4357ZM259.662 83.2428C258.368 83.2428 257.975 81.9717 257.929 81.7637L256.634 82.0641L255.548 82.2721C255.779 83.497 256.773 85.2303 259.593 85.2303C263.221 85.2303 263.568 82.8268 263.568 82.0641C263.568 80.0997 261.95 79.5912 260.17 78.9903C259.061 78.6206 258.761 78.4819 258.761 77.9966C258.761 77.5112 259.223 77.2339 259.801 77.2339C260.563 77.2339 261.002 77.6499 261.326 78.3432L263.429 77.6037C263.013 76.4019 262.204 75.2694 259.708 75.2694C257.212 75.2694 256.126 76.8641 256.126 78.0659C256.126 79.7299 256.912 80.4463 258.876 81.1166C260.332 81.625 260.956 81.7637 260.956 82.4108C260.933 82.8961 260.517 83.2428 259.662 83.2428ZM290.631 77.4188C291.347 77.6268 291.44 78.3663 291.209 78.8748C290.978 79.4063 289.984 80.2614 289.498 80.6312C288.736 81.209 286.517 82.9192 286.517 82.9192V84.9992H293.936V82.9192H289.845C289.845 82.9192 290.446 82.5032 291.833 81.5094C293.219 80.5157 293.774 79.3601 293.774 78.5743C293.774 77.7886 293.751 75.3157 290.215 75.3157C286.679 75.3157 286.378 78.4819 286.378 78.4819L288.69 79.1521C288.944 77.3957 290.099 77.257 290.631 77.4188Z" fill="#1D1D20"></path>
    <path d="M213.068 114.235C208.954 114.35 204.886 113.102 201.558 110.699C197.167 107.556 194.533 103.303 193.585 97.9878H187.16C188.501 110.653 199.802 121.584 214.316 120.683C227.697 119.874 237.149 109.15 238.236 97.9878H231.811C231.094 102.471 228.806 106.539 225.386 109.497C221.965 112.478 217.597 114.142 213.068 114.235ZM210.641 107.14C211.149 107.348 211.704 107.463 212.259 107.44C212.813 107.44 213.368 107.302 213.877 107.07C214.339 106.886 214.755 106.562 215.101 106.192C215.425 105.799 215.679 105.337 215.795 104.852C216.003 104.066 216.003 103.257 215.749 102.471C215.633 102.055 215.425 101.662 215.148 101.316C214.87 100.969 214.524 100.692 214.131 100.507C213.553 100.206 212.906 100.068 212.259 100.091C212.12 100.091 211.981 100.091 211.843 100.091C211.75 100.091 211.681 100.114 211.589 100.114C211.057 100.16 210.525 100.368 210.063 100.669C209.601 100.969 209.231 101.385 208.977 101.847C208.607 102.518 208.469 103.28 208.515 104.02C208.607 105.476 209.277 106.562 210.641 107.14ZM211.265 101.385C211.727 101.2 212.259 101.154 212.744 101.246C213.229 101.362 213.692 101.616 214.015 102.009C214.431 102.564 214.639 103.234 214.593 103.927C214.547 104.621 214.246 105.268 213.738 105.753C212.652 106.724 210.364 106.516 209.878 104.436C209.832 104.228 209.809 104.02 209.809 103.927C209.763 102.749 210.317 101.778 211.265 101.385ZM205.187 106.285C204.909 106.285 204.609 106.238 204.355 106.1C204.101 105.961 203.893 105.776 203.731 105.545C203.43 105.869 203.13 106.192 202.829 106.516C203.061 106.793 203.361 107.001 203.685 107.14C204.332 107.417 205.025 107.486 205.718 107.371C206.851 107.186 207.59 106.446 207.66 105.36C207.706 104.99 207.637 104.598 207.452 104.274C207.267 103.95 206.989 103.673 206.643 103.511C206.342 103.373 206.019 103.257 205.718 103.142C205.372 103.026 205.025 102.864 204.678 102.702C204.517 102.61 204.401 102.471 204.355 102.31C204.309 102.148 204.309 101.963 204.378 101.801C204.424 101.686 204.493 101.57 204.586 101.478C204.678 101.385 204.794 101.339 204.909 101.293C205.21 101.177 205.557 101.154 205.88 101.246C206.204 101.339 206.481 101.501 206.689 101.755C206.989 101.431 207.29 101.131 207.59 100.807C207.521 100.738 207.475 100.692 207.405 100.669C206.851 100.276 206.181 100.068 205.51 100.091C204.933 100.091 204.355 100.253 203.846 100.553C202.714 101.246 202.598 103.257 204.031 103.904C204.378 104.066 204.748 104.158 205.094 104.297C205.395 104.413 205.695 104.551 205.973 104.713C206.065 104.782 206.157 104.875 206.204 104.99C206.273 105.106 206.296 105.222 206.296 105.337C206.296 105.453 206.273 105.591 206.227 105.707C206.181 105.822 206.088 105.915 205.996 106.007C205.834 106.192 205.51 106.285 205.187 106.285ZM217.597 106.331C218.753 107.463 220.117 107.671 221.619 107.209C222.173 107.024 222.636 106.654 222.959 106.192L221.919 105.453C221.873 105.499 221.85 105.522 221.827 105.568C220.81 106.793 219.192 106.331 218.522 105.476C218.291 105.175 218.129 104.829 218.037 104.436C217.944 104.066 217.921 103.673 217.99 103.28C218.06 102.702 218.337 102.171 218.776 101.778C219.469 101.154 220.856 100.854 221.757 101.847C221.781 101.87 221.804 101.894 221.827 101.894L222.797 101.177C222.543 100.854 222.22 100.599 221.85 100.414C221.18 100.091 220.417 99.9985 219.701 100.114C219.238 100.16 218.799 100.322 218.406 100.553C218.013 100.784 217.667 101.085 217.389 101.454C216.858 102.194 216.604 103.095 216.673 103.997C216.65 104.875 216.997 105.707 217.597 106.331ZM214.986 108.919C214.824 109.058 214.732 109.266 214.709 109.474C214.685 109.682 214.732 109.89 214.87 110.075C214.94 110.167 215.032 110.237 215.148 110.306C215.263 110.352 215.379 110.398 215.494 110.398C215.61 110.422 215.725 110.398 215.841 110.352C215.957 110.306 216.049 110.237 216.118 110.144C216.141 110.56 216.072 110.791 215.841 110.884C215.679 110.953 215.517 110.976 215.356 110.93C215.194 110.884 215.032 110.791 214.94 110.676C214.87 110.745 214.801 110.814 214.755 110.907C214.893 111.046 215.055 111.138 215.24 111.184C215.425 111.23 215.61 111.23 215.795 111.184C215.933 111.161 216.072 111.092 216.165 110.999C216.28 110.907 216.349 110.768 216.373 110.63C216.396 110.514 216.419 110.398 216.419 110.283C216.419 109.821 216.419 109.382 216.419 108.919C216.419 108.873 216.419 108.827 216.419 108.804H216.165C216.165 108.873 216.165 108.942 216.141 109.035C216.003 108.873 215.818 108.781 215.587 108.758C215.356 108.734 215.148 108.804 214.986 108.919ZM216.118 109.566C216.118 109.636 216.118 109.728 216.072 109.798C216.049 109.867 216.003 109.936 215.957 109.982C215.91 110.029 215.841 110.075 215.772 110.121C215.702 110.144 215.633 110.167 215.541 110.167C215.402 110.167 215.263 110.098 215.148 110.006C215.055 109.89 214.986 109.751 214.986 109.613C214.986 109.543 214.986 109.474 215.009 109.405C215.032 109.335 215.078 109.266 215.125 109.22C215.171 109.174 215.24 109.127 215.309 109.104C215.379 109.081 215.448 109.058 215.517 109.058C215.587 109.058 215.656 109.081 215.725 109.104C215.795 109.127 215.864 109.174 215.91 109.22C215.957 109.266 216.003 109.335 216.026 109.405C216.095 109.405 216.118 109.474 216.118 109.566ZM207.29 108.781H207.036V111.138H207.29V110.144C207.706 110.491 208.122 110.514 208.445 110.214C208.584 110.075 208.677 109.867 208.7 109.659C208.723 109.451 208.653 109.243 208.538 109.081C208.422 108.919 208.261 108.827 208.076 108.781C207.937 108.734 207.798 108.758 207.66 108.781C207.521 108.804 207.405 108.896 207.29 109.012C207.29 108.919 207.29 108.85 207.29 108.781ZM207.868 108.989C207.937 108.989 208.029 109.012 208.099 109.035C208.168 109.058 208.237 109.104 208.284 109.174C208.33 109.22 208.376 109.289 208.399 109.358C208.422 109.428 208.445 109.497 208.422 109.59C208.422 109.659 208.422 109.728 208.399 109.798C208.376 109.867 208.33 109.936 208.284 109.982C208.237 110.029 208.168 110.075 208.099 110.121C208.029 110.144 207.96 110.167 207.891 110.167C207.821 110.167 207.729 110.144 207.66 110.121C207.59 110.098 207.521 110.052 207.475 110.006C207.429 109.959 207.382 109.89 207.359 109.821C207.336 109.751 207.313 109.682 207.313 109.59C207.313 109.52 207.313 109.428 207.359 109.358C207.382 109.289 207.429 109.22 207.475 109.174C207.521 109.127 207.59 109.081 207.66 109.035C207.706 109.012 207.775 108.989 207.868 108.989ZM211.612 109.566C211.612 109.682 211.635 109.798 211.658 109.89C211.704 110.006 211.773 110.098 211.843 110.167C211.935 110.237 212.028 110.306 212.12 110.352C212.236 110.398 212.328 110.398 212.444 110.398C212.559 110.398 212.675 110.398 212.767 110.352C212.883 110.306 212.975 110.26 213.045 110.167C213.114 110.075 213.183 110.006 213.229 109.89C213.276 109.774 213.299 109.682 213.276 109.566C213.276 109.451 213.276 109.335 213.229 109.243C213.183 109.127 213.137 109.035 213.045 108.966C212.975 108.896 212.86 108.827 212.767 108.781C212.652 108.734 212.559 108.734 212.444 108.734C212.328 108.734 212.213 108.734 212.12 108.781C212.005 108.827 211.912 108.873 211.843 108.966C211.75 109.035 211.704 109.127 211.658 109.243C211.635 109.335 211.612 109.451 211.612 109.566ZM213.021 109.566C213.021 109.636 213.021 109.728 212.998 109.798C212.975 109.867 212.929 109.936 212.883 109.982C212.837 110.029 212.767 110.075 212.698 110.121C212.629 110.144 212.559 110.167 212.467 110.167C212.397 110.167 212.328 110.144 212.259 110.121C212.189 110.098 212.12 110.052 212.074 110.006C212.028 109.959 211.981 109.89 211.958 109.821C211.935 109.751 211.912 109.682 211.912 109.613C211.912 109.543 211.912 109.451 211.935 109.382C211.958 109.312 212.005 109.243 212.051 109.197C212.097 109.15 212.166 109.104 212.236 109.058C212.305 109.035 212.374 109.012 212.467 109.012C212.536 109.012 212.629 109.035 212.698 109.058C212.767 109.081 212.837 109.127 212.883 109.197C212.929 109.243 212.975 109.312 212.998 109.382C213.021 109.428 213.021 109.497 213.021 109.566ZM219.377 109.566C219.377 109.682 219.4 109.798 219.446 109.89C219.493 110.006 219.562 110.098 219.631 110.167C219.724 110.237 219.816 110.306 219.909 110.352C220.024 110.398 220.117 110.398 220.232 110.398C220.348 110.398 220.463 110.375 220.556 110.352C220.671 110.306 220.764 110.26 220.833 110.167C220.902 110.098 220.972 109.982 221.018 109.89C221.064 109.774 221.064 109.682 221.064 109.566C221.064 109.451 221.041 109.335 221.018 109.243C220.972 109.15 220.925 109.035 220.833 108.966C220.741 108.896 220.648 108.827 220.556 108.781C220.44 108.734 220.348 108.734 220.232 108.734C220.117 108.734 220.001 108.734 219.909 108.781C219.793 108.827 219.701 108.873 219.631 108.966C219.539 109.035 219.493 109.127 219.446 109.243C219.4 109.358 219.377 109.451 219.377 109.566ZM220.787 109.59C220.787 109.659 220.787 109.728 220.764 109.798C220.741 109.867 220.694 109.936 220.648 109.982C220.602 110.029 220.533 110.075 220.463 110.098C220.394 110.121 220.325 110.144 220.255 110.144C220.186 110.144 220.093 110.121 220.024 110.098C219.955 110.075 219.885 110.029 219.839 109.959C219.793 109.913 219.747 109.844 219.724 109.774C219.701 109.705 219.677 109.636 219.677 109.543C219.677 109.474 219.677 109.382 219.724 109.312C219.77 109.243 219.793 109.174 219.839 109.127C219.885 109.081 219.955 109.035 220.024 108.989C220.093 108.966 220.163 108.942 220.255 108.942C220.325 108.942 220.417 108.966 220.486 108.989C220.556 109.012 220.625 109.058 220.671 109.127C220.717 109.174 220.764 109.243 220.787 109.312C220.764 109.428 220.787 109.497 220.787 109.59ZM203.199 110.375C203.338 110.422 203.477 110.422 203.615 110.375C203.754 110.329 203.869 110.26 203.962 110.144C203.962 110.237 203.985 110.283 203.985 110.329H204.216C204.216 110.006 204.216 109.682 204.216 109.358C204.216 109.012 204.101 108.827 203.869 108.758C203.569 108.665 203.084 108.734 202.945 108.989C202.991 109.035 203.037 109.081 203.084 109.127C203.615 108.85 203.939 108.942 203.939 109.358C203.869 109.358 203.777 109.358 203.708 109.358C203.523 109.382 203.315 109.405 203.13 109.474C203.037 109.497 202.945 109.566 202.899 109.659C202.853 109.751 202.829 109.867 202.853 109.959C202.853 110.052 202.899 110.144 202.968 110.214C203.014 110.306 203.107 110.352 203.199 110.375ZM203.338 109.659C203.523 109.636 203.731 109.613 203.916 109.59C203.939 109.982 203.754 110.214 203.407 110.19C203.338 110.19 203.269 110.167 203.222 110.144C203.176 110.098 203.13 110.052 203.13 109.982C203.13 109.959 203.13 109.913 203.13 109.89C203.13 109.867 203.153 109.821 203.176 109.798C203.199 109.774 203.222 109.751 203.245 109.728C203.269 109.682 203.315 109.659 203.338 109.659ZM209.855 109.382C209.67 109.405 209.462 109.428 209.277 109.497C209.185 109.52 209.093 109.59 209.046 109.682C209 109.774 208.977 109.867 209 109.982C209 110.075 209.046 110.167 209.116 110.237C209.185 110.306 209.254 110.352 209.37 110.375C209.509 110.422 209.647 110.422 209.786 110.398C209.925 110.352 210.04 110.283 210.133 110.167C210.156 110.237 210.156 110.306 210.179 110.352H210.41C210.41 110.006 210.41 109.682 210.41 109.335C210.41 109.22 210.41 109.127 210.341 109.012C210.271 108.896 210.202 108.827 210.109 108.781C209.948 108.711 209.763 108.688 209.601 108.734C209.416 108.758 209.254 108.85 209.139 108.966L209.277 109.15C209.37 109.058 209.485 109.012 209.624 108.989C209.763 108.966 209.878 108.989 209.994 109.035C210.04 109.058 210.086 109.127 210.133 109.174C210.156 109.243 210.156 109.289 210.156 109.358C209.994 109.382 209.925 109.382 209.855 109.382ZM209.532 110.167C209.462 110.167 209.416 110.144 209.37 110.098C209.324 110.052 209.301 110.006 209.277 109.936C209.254 109.867 209.277 109.821 209.301 109.774C209.324 109.728 209.393 109.682 209.439 109.682C209.647 109.636 209.855 109.636 210.063 109.59C210.109 110.006 209.878 110.214 209.532 110.167ZM218.637 110.144C218.545 110.167 218.429 110.167 218.337 110.144C218.245 110.121 218.152 110.052 218.106 109.959C218.037 110.029 217.967 110.075 217.898 110.121C217.99 110.26 218.129 110.352 218.268 110.398C218.429 110.445 218.591 110.445 218.73 110.398C218.845 110.375 218.961 110.329 219.03 110.237C219.1 110.144 219.146 110.029 219.146 109.913C219.146 109.682 219.007 109.543 218.753 109.474C218.637 109.451 218.522 109.428 218.406 109.382C218.337 109.358 218.245 109.266 218.268 109.22C218.291 109.174 218.314 109.15 218.337 109.104C218.36 109.081 218.406 109.058 218.453 109.035C218.545 109.012 218.637 109.012 218.707 109.035C218.799 109.058 218.869 109.127 218.915 109.197C218.984 109.15 219.053 109.104 219.123 109.058C218.961 108.688 218.36 108.688 218.129 108.919C218.083 108.966 218.037 109.035 218.013 109.104C217.99 109.174 217.99 109.243 218.013 109.312C218.037 109.382 218.06 109.451 218.106 109.497C218.152 109.543 218.221 109.59 218.268 109.613C218.406 109.659 218.568 109.705 218.707 109.728C218.822 109.751 218.915 109.821 218.892 109.936C218.869 109.982 218.845 110.029 218.822 110.052C218.73 110.098 218.684 110.121 218.637 110.144ZM222.589 109.174C222.659 109.104 222.728 109.058 222.797 108.989C222.636 108.827 222.405 108.734 222.173 108.734C221.942 108.734 221.711 108.827 221.549 108.989C221.411 109.174 221.341 109.405 221.341 109.636C221.365 109.867 221.457 110.075 221.642 110.237C221.804 110.352 222.012 110.422 222.22 110.398C222.428 110.375 222.613 110.283 222.751 110.121C222.705 110.075 222.636 110.006 222.566 109.959C222.52 110.006 222.474 110.052 222.405 110.098C222.335 110.121 222.266 110.144 222.197 110.144C222.127 110.144 222.058 110.144 221.989 110.121C221.919 110.098 221.85 110.052 221.804 110.006C221.688 109.89 221.642 109.751 221.619 109.59C221.619 109.428 221.642 109.289 221.734 109.15C221.781 109.081 221.85 109.035 221.919 109.012C221.989 108.989 222.058 108.966 222.15 108.966C222.22 108.966 222.312 108.989 222.381 109.012C222.474 109.081 222.543 109.127 222.589 109.174ZM206.042 109.012C206.134 108.989 206.227 108.989 206.319 109.012C206.412 109.035 206.481 109.104 206.55 109.174C206.62 109.104 206.689 109.035 206.758 108.989C206.597 108.827 206.389 108.734 206.181 108.734C205.949 108.734 205.741 108.804 205.58 108.966C205.418 109.127 205.349 109.358 205.349 109.59C205.349 109.821 205.441 110.029 205.603 110.214C205.765 110.352 205.973 110.422 206.181 110.422C206.389 110.422 206.597 110.329 206.758 110.19L206.597 109.982C206.296 110.214 206.019 110.237 205.811 110.029C205.718 109.913 205.649 109.774 205.649 109.636C205.649 109.497 205.672 109.335 205.765 109.22C205.834 109.104 205.949 109.035 206.042 109.012ZM217.829 107.902C217.736 107.879 217.69 107.856 217.597 107.81C217.251 108.688 216.927 109.543 216.581 110.398L216.812 110.491C217.158 109.636 217.482 108.781 217.829 107.902ZM213.992 109.358C213.992 109.312 214.015 109.243 214.038 109.197C214.061 109.15 214.108 109.104 214.154 109.081C214.2 109.058 214.246 109.035 214.316 109.012C214.362 108.989 214.431 108.989 214.477 109.012C214.501 109.012 214.547 109.012 214.57 109.012V108.758C214.454 108.734 214.339 108.758 214.223 108.781C214.108 108.827 214.015 108.896 213.946 108.989C213.923 108.896 213.923 108.85 213.923 108.804H213.692V110.375H213.946C213.946 110.26 213.946 110.144 213.946 110.052C213.969 109.821 213.969 109.59 213.992 109.358ZM204.701 110.352H204.956V108.781H204.701V110.352ZM210.826 110.167C210.826 110.19 210.826 110.214 210.826 110.26C210.826 110.283 210.849 110.306 210.872 110.329C210.895 110.352 210.918 110.375 210.941 110.375C210.965 110.375 210.988 110.398 211.011 110.375C211.126 110.375 211.196 110.306 211.219 110.167C211.219 110.144 211.219 110.121 211.196 110.098C211.196 110.075 211.173 110.052 211.149 110.029C211.126 110.006 211.103 110.006 211.08 109.982C211.057 109.982 211.034 109.959 211.011 109.982C210.988 109.982 210.965 109.982 210.941 109.982C210.918 109.982 210.895 110.006 210.872 110.029C210.849 110.052 210.849 110.075 210.826 110.098C210.826 110.121 210.826 110.144 210.826 110.167ZM205.002 108.18C205.002 108.041 204.933 107.972 204.817 107.972C204.794 107.972 204.771 107.972 204.748 107.972C204.725 107.972 204.701 107.995 204.678 108.018C204.655 108.041 204.655 108.064 204.632 108.087C204.609 108.11 204.609 108.134 204.609 108.157C204.609 108.18 204.609 108.203 204.609 108.226C204.609 108.249 204.632 108.272 204.655 108.295C204.678 108.318 204.701 108.318 204.725 108.342C204.748 108.342 204.771 108.365 204.794 108.365C204.817 108.365 204.84 108.365 204.863 108.365C204.886 108.365 204.909 108.342 204.933 108.318C204.956 108.295 204.956 108.272 204.979 108.249C205.002 108.226 205.002 108.203 205.002 108.18ZM246.14 103.812V104.343H307.176V103.812H246.14ZM246.14 119.366H307.176V118.834H246.14V119.366Z" fill="#1D1D20"></path>
    <path d="M240.988 97.6639V93.4346H184.527V97.6639H240.988Z" fill="#1D1D20"></path>
    <circle cx="50.5" cy="63.5" r="1.5" fill="url(#paint1_linear_240_3579)"></circle>
    <circle cx="178.5" cy="63.5" r="1.5" fill="url(#paint2_linear_240_3579)"></circle>
    <circle cx="178.5" cy="127.5" r="1.5" fill="url(#paint3_linear_240_3579)"></circle>
    <circle cx="50.5" cy="168.5" r="1.5" fill="url(#paint4_linear_240_3579)"></circle>
    <circle opacity="0.6" cx="155.5" cy="63.5" r="1.5" fill="#1f8bf6"></circle>
    <circle cx="313.5" cy="63.5" r="1.5" fill="url(#paint5_linear_240_3579)"></circle>
    <circle cx="313.5" cy="127.5" r="1.5" fill="url(#paint6_linear_240_3579)"></circle>
    <circle opacity="0.6" cx="155.5" cy="168.5" r="1.5" fill="#1f8bf6"></circle>
    <rect x="43" y="56" width="120" height="120" rx="8" fill="url(#paint7_linear_240_3579)" fill-opacity="0.5"></rect>
    <rect x="171" y="56" width="150" height="79" rx="8" fill="url(#paint8_linear_240_3579)" fill-opacity="0.5"></rect>
    <g filter="url(#filter2_f_240_3579)">
        <rect x="110" y="24" width="1" height="184" fill="url(#paint9_linear_240_3579)"></rect>
    </g>
    <rect x="110" y="24" width="98" height="184" fill="url(#paint10_radial_240_3579)" fill-opacity="0.4"></rect>
    <g clip-path="url(#clip0_240_3579)">
        <path d="M102.683 90.645C116.648 90.6583 127.957 102.031 127.943 116.047C127.93 130.062 116.599 141.413 102.635 141.399C88.6882 141.386 77.3853 130.04 77.375 116.041C77.3618 102.028 88.6676 90.6583 102.629 90.645C102.647 90.645 102.664 90.645 102.683 90.645ZM94.1835 129.053C99.6655 127.097 105.653 127.095 111.136 129.05L111.924 126.074C112.288 126.074 112.621 126.065 112.957 126.077C113.303 126.049 113.65 126.068 113.991 126.137C113.754 127.372 113.455 128.594 113.092 129.798C114.026 130.315 114.954 130.784 115.836 131.328C116.718 131.87 117.554 132.482 118.406 133.063C128.658 123.635 128.018 107.598 118.367 98.959C116.738 100.245 114.963 101.335 113.079 102.202C113.437 103.475 113.779 104.695 114.004 105.953H111.905C111.777 105.446 111.661 104.961 111.532 104.48C111.422 103.978 111.276 103.485 111.094 103.005C105.623 104.95 99.6523 104.948 94.1835 102.996L93.3925 105.981C93.0287 105.981 92.6929 105.982 92.3586 105.981C92.0169 105.978 91.6752 105.972 91.2687 105.966L92.2216 102.192C90.3422 101.327 88.5733 100.241 86.9517 98.9516C76.7652 108.275 77.1938 124.31 86.9517 133.084C88.5851 131.796 90.3628 130.705 92.2481 129.835C91.8696 128.603 91.5559 127.351 91.3099 126.087H93.4029L94.1835 129.053ZM110.41 101.024C110.398 100.941 110.381 100.86 110.359 100.779C109.716 99.0417 108.836 97.4038 107.744 95.9107C107.042 94.9306 106.155 94.0968 105.134 93.4567C103.71 92.5298 101.891 92.4796 100.418 93.3266C99.4711 93.8603 98.636 94.5729 97.9599 95.4258C96.8729 96.774 95.9878 98.2745 95.3294 99.8785C95.1747 100.238 95.0333 100.603 94.8684 101.008C99.8923 102.817 105.385 102.823 110.41 101.024ZM94.8934 131.02C94.9288 131.141 94.9435 131.212 94.9685 131.277C95.568 132.889 96.3692 134.416 97.3531 135.825C97.9968 136.755 98.7847 137.576 99.6876 138.256C101.583 139.645 103.639 139.662 105.554 138.31C106.21 137.84 106.802 137.285 107.316 136.663C108.624 135.038 109.655 133.207 110.366 131.243C110.387 131.168 110.4 131.091 110.407 131.014C105.389 129.223 99.91 129.226 94.8934 131.02ZM108.573 138.486C111.544 137.735 114.329 136.376 116.751 134.493C115.421 133.455 113.977 132.572 112.45 131.861C111.87 133.048 111.337 134.206 110.745 135.332C110.133 136.456 109.406 137.513 108.573 138.486ZM96.7684 138.494C95.9288 137.534 95.1968 136.481 94.587 135.358C93.9832 134.222 93.4515 133.05 92.8711 131.86C91.3423 132.572 89.8974 133.455 88.5674 134.493C90.9976 136.378 93.7887 137.741 96.7684 138.494ZM112.374 100.174C113.491 99.7957 116.296 98.0513 116.686 97.4954C114.275 95.6328 111.507 94.289 108.556 93.5469C110.26 95.5057 111.428 97.7601 112.374 100.174ZM96.7271 93.5632C93.7725 94.3082 91.0021 95.6594 88.591 97.5294C89.457 98.3381 92.1377 99.9524 92.9566 100.156C93.8344 97.7615 95.1084 95.5323 96.7271 93.5632Z" fill="#1f8bf6"></path>
        <path d="M116.13 148.448C116.134 149.216 115.97 149.976 115.651 150.675C115.048 152.025 113.738 152.915 112.266 152.974C111.74 153.023 111.21 152.98 110.701 152.846C109.393 152.519 108.351 151.527 107.955 150.233C107.557 149.07 107.552 147.808 107.937 146.641C108.416 145.059 109.826 143.945 111.469 143.849C112.349 143.753 113.237 143.93 114.013 144.356C115.05 144.943 115.77 145.964 115.976 147.141C116.062 147.568 116.081 148.012 116.13 148.448ZM110.648 148.399L110.721 148.405C110.721 148.742 110.699 149.08 110.726 149.416C110.73 150.004 110.855 150.584 111.092 151.122C111.228 151.425 111.525 151.623 111.855 151.632C112.203 151.656 112.528 151.456 112.667 151.135C112.785 150.9 112.87 150.65 112.92 150.392C113.119 149.219 113.141 148.023 112.985 146.845C112.933 146.47 112.835 146.1 112.693 145.748C112.584 145.416 112.272 145.192 111.923 145.198C111.561 145.185 111.229 145.396 111.086 145.729C110.988 145.909 110.92 146.105 110.886 146.307C110.792 147.003 110.724 147.701 110.648 148.399Z" fill="#1f8bf6"></path>
        <path d="M106.852 148.445C106.9 149.226 106.747 150.005 106.408 150.709C105.781 152.082 104.418 152.966 102.915 152.981C102.242 153.031 101.565 152.923 100.94 152.667C99.879 152.23 99.069 151.341 98.7287 150.243C98.3369 149.094 98.3252 147.85 98.6934 146.692C99.1676 145.041 100.654 143.889 102.365 143.845C103.704 143.778 104.879 144.147 105.793 145.184C106.419 145.913 106.788 146.827 106.846 147.788C106.866 148.003 106.852 148.225 106.852 148.445ZM103.882 148.525C103.843 147.904 103.841 147.431 103.775 146.97C103.719 146.565 103.622 146.166 103.485 145.782C103.38 145.43 103.055 145.19 102.689 145.193C102.309 145.177 101.963 145.415 101.841 145.777C101.707 146.07 101.62 146.383 101.585 146.702C101.53 147.652 101.498 148.605 101.511 149.556C101.501 150.101 101.624 150.642 101.869 151.13C102.06 151.565 102.567 151.761 103.002 151.569C103.183 151.488 103.331 151.347 103.421 151.168C103.561 150.927 103.654 150.663 103.694 150.386C103.784 149.718 103.831 149.047 103.879 148.525H103.882Z" fill="#1f8bf6"></path>
        <path d="M81.9453 145.903C81.9939 145.924 82.0455 145.939 82.097 145.951C82.6066 145.943 83.0264 146.353 83.0337 146.864C83.0337 146.895 83.0337 146.926 83.0308 146.956C83.0735 147.555 82.667 148.091 82.0823 148.211C81.8805 148.245 81.6743 148.255 81.4696 148.242C80.8244 148.227 80.2957 147.725 80.2441 147.079C80.1248 146.246 80.4312 145.411 81.0586 144.854C81.7214 144.262 82.5639 143.914 83.4491 143.863C84.5169 143.715 85.6039 143.931 86.5363 144.475C87.5658 145.067 88.0695 146.28 87.7617 147.43C87.6114 148.023 87.2241 148.527 86.6909 148.823C86.0826 149.178 85.4316 149.451 84.7541 149.64C84.2651 149.791 83.7687 149.924 83.29 150.105C82.8408 150.232 82.4549 150.524 82.2089 150.924C82.3047 150.9 82.3989 150.872 82.4917 150.838C83.2797 150.465 84.1738 150.384 85.0162 150.609C85.2843 150.683 85.5568 150.742 85.8307 150.788C86.4243 150.876 86.6614 150.68 86.7321 150.068C86.7425 149.98 86.7469 149.893 86.7601 149.75C87.2152 149.719 87.6718 149.72 88.127 149.756C88.18 150.555 88.18 151.323 87.7897 152.035C87.4259 152.702 86.7984 152.916 86.1018 152.977C85.4286 153.021 84.7526 152.94 84.1089 152.736C83.6877 152.615 83.2679 152.479 82.8393 152.39C82.4166 152.303 81.9792 152.248 81.7155 152.715H80.2618C80.1985 152.05 80.3222 151.379 80.6227 150.782C80.9997 150.096 81.5447 149.518 82.206 149.102C82.6994 148.761 83.2179 148.455 83.7216 148.13C83.9086 148.014 84.0898 147.889 84.2621 147.753C84.6392 147.458 84.8498 146.999 84.8277 146.52C84.8366 146.081 84.5773 145.68 84.1738 145.509C83.4241 145.158 82.533 145.315 81.9453 145.903Z" fill="#1f8bf6"></path>
        <path d="M91.375 144.087C91.3927 144.369 91.406 144.594 91.4222 144.875C91.4796 144.829 91.5356 144.777 91.5857 144.723C92.1277 143.979 92.8847 143.805 93.7302 143.953C94.1573 144.047 94.5785 144.17 94.9909 144.318C95.2413 144.395 95.4902 144.482 95.7377 144.569C95.9424 144.652 96.1751 144.603 96.3313 144.448L96.4785 144.105H97.5861C97.6642 144.347 97.6524 144.609 97.5523 144.842C97.2945 145.432 97.0397 146.025 96.7392 146.593C96.3548 147.317 95.913 148.012 95.5197 148.732C94.96 149.82 94.664 151.023 94.6522 152.247C94.6463 152.391 94.6374 152.534 94.6286 152.703H91.7963C91.727 152.373 91.7167 152.033 91.7653 151.699C91.8493 150.439 92.3928 149.255 93.2942 148.374C93.8892 147.787 94.5078 147.225 95.1132 146.65C95.2487 146.52 95.3739 146.38 95.5786 146.167C95.4048 146.207 95.3312 146.216 95.2619 146.239C94.6566 146.421 94.0159 146.448 93.3973 146.319C93.0674 146.256 92.7345 146.21 92.4002 146.185C91.9406 146.129 91.5238 146.457 91.4678 146.918C91.4678 146.922 91.4663 146.927 91.4663 146.93C91.4251 147.146 91.3986 147.363 91.3868 147.583C91.3736 147.725 91.3736 147.87 91.3647 148.036H89.8477V144.105C90.0995 144.099 90.3425 144.09 90.5856 144.086C90.8301 144.086 91.0805 144.087 91.375 144.087Z" fill="#1f8bf6"></path>
        <path d="M118.408 145.211C119.222 145.081 120.032 144.958 120.446 144.107H122.644C122.651 144.27 122.661 144.425 122.663 144.581C122.664 146.577 122.664 148.574 122.663 150.57C122.663 150.674 122.66 150.776 122.663 150.879C122.678 151.328 122.816 151.478 123.273 151.506C123.489 151.519 123.707 151.509 123.947 151.509C123.994 151.892 124.006 152.277 123.984 152.662C123.635 152.749 119.135 152.779 118.415 152.702V151.562C118.819 151.432 119.287 151.627 119.744 151.327C119.803 151.17 119.841 151.008 119.859 150.842C119.87 149.448 119.866 148.053 119.864 146.658C119.856 146.586 119.841 146.515 119.819 146.446H118.406L118.408 145.211Z" fill="#1f8bf6"></path>
        <path d="M102.391 80L103.036 82.6417L103.131 82.6402L103.845 80.0414H105.61V84.5325H104.515V81.3526C104.118 82.3801 103.877 83.4503 103.552 84.5177H102.544L101.765 81.2861L101.673 81.2891C101.668 81.5507 101.662 81.8124 101.659 82.074C101.656 82.3357 101.655 82.6033 101.652 82.8679C101.649 83.1473 101.653 83.4267 101.642 83.7061C101.63 83.9663 101.6 84.2264 101.575 84.5265L100.602 84.4733C100.506 84.1525 100.509 80.6771 100.603 80H102.391Z" fill="#1f8bf6"></path>
        <path d="M125.22 94.1236L124.263 93.2633L124.653 90.3407L124.576 90.3081L122.965 92.0791L122.02 91.204L125.062 87.8364L126.007 88.7204L125.602 91.6475L125.674 91.6874L127.304 89.9016L128.265 90.7649L125.22 94.1236Z" fill="#1f8bf6"></path>
        <path d="M83.5771 88.3711L82.1838 86.467L83.2148 85.6909L85.9028 89.3394L84.8688 90.1199L81.9879 89.1161C82.4798 89.8627 82.9821 90.4776 83.4563 91.1562L82.4268 91.9278L79.7344 88.2794L80.7683 87.5107L83.502 88.4612L83.5771 88.3711Z" fill="#1f8bf6"></path>
        <path d="M135.809 117.764C135.293 118.348 134.832 118.635 133.766 119.025V117.533L135.199 116.797C135.423 116.717 135.595 116.533 135.661 116.302C135.669 116.213 135.67 116.125 135.663 116.035H133.878C133.83 115.573 133.829 115.109 133.872 114.648C135.378 114.595 136.857 114.742 138.367 114.723C138.367 115.167 138.374 115.56 138.365 115.953C138.354 116.438 138.327 116.921 138.305 117.405C138.301 117.492 138.299 117.581 138.286 117.668C138.19 118.327 137.84 118.71 137.278 118.769C136.66 118.901 136.046 118.533 135.866 117.925C135.85 117.876 135.832 117.825 135.809 117.764ZM137.234 117.338C137.477 116.985 137.511 116.728 137.398 116.113L136.573 116.058C136.474 116.321 136.454 116.607 136.515 116.882C136.608 117.353 136.719 117.427 137.234 117.338Z" fill="#1f8bf6"></path>
        <path d="M94.8945 80.7985C95.6914 80.6654 96.4366 80.5383 97.1849 80.42C97.4293 80.3757 97.6768 80.3506 97.9242 80.3446C98.4574 80.3033 98.9435 80.6507 99.0804 81.1681C99.2601 81.7017 99.0657 82.2901 98.6047 82.6109C98.5252 82.6671 98.4427 82.7173 98.3484 82.7779C99.0142 83.1593 99.3087 83.4816 99.9656 84.5415C99.7138 84.5888 99.4766 84.6361 99.238 84.6775C98.9935 84.7204 98.7491 84.7574 98.4766 84.8017C98.1393 84.3671 97.7976 83.9295 97.4588 83.4905C97.3071 83.2258 96.9787 83.1209 96.7017 83.2495L96.9757 85.0456L95.6295 85.2718L94.8945 80.7985ZM97.7946 81.8466C97.7534 81.4859 97.5928 81.2937 97.3056 81.3129C96.9934 81.3026 96.6826 81.3676 96.3998 81.5022L96.5633 82.3788C97.0626 82.3019 97.5501 82.3477 97.7946 81.8466Z" fill="#1f8bf6"></path>
        <path d="M89.4727 83.8764C89.48 82.3389 90.8807 81.6929 92.0502 81.6634C93.5069 81.6264 94.2138 82.9332 94.2551 84.2386C94.2993 85.6873 93.0488 86.4013 91.6422 86.4486C90.296 86.4944 89.5404 85.2201 89.4727 83.8764ZM92.9118 84.4293C92.8927 83.9592 92.7395 83.5038 92.4714 83.118C92.2269 82.7883 91.7924 82.6671 91.4139 82.8238C91.0368 82.9436 90.7879 83.3028 90.8056 83.699C90.8248 84.1853 90.9941 84.654 91.2902 85.0383C91.5288 85.3561 91.9545 85.4626 92.3138 85.297C92.6953 85.1891 92.9457 84.8254 92.9118 84.4293Z" fill="#1f8bf6"></path>
        <path d="M123.049 87.409C122.998 88.395 122.441 89.2835 121.578 89.7565C121.13 89.993 120.604 90.03 120.129 89.86C119.579 89.6915 119.086 89.3766 118.7 88.9508C118.245 88.4719 118.072 87.7889 118.246 87.1488C118.388 86.5427 118.716 85.9987 119.184 85.5907C119.723 85.0851 120.503 84.9328 121.19 85.1989C121.75 85.3837 122.245 85.7252 122.618 86.1835C122.908 86.525 123.061 86.9611 123.049 87.409ZM121.771 87.2345C121.771 86.5959 121.031 85.9706 120.413 86.3564C119.887 86.6698 119.541 87.2153 119.482 87.8259C119.417 88.4704 120.184 89.0189 120.741 88.7232C121.289 88.4083 121.668 87.8613 121.771 87.2345Z" fill="#1f8bf6"></path>
        <path d="M69.4452 122.655C68.289 122.655 67.5496 122.101 67.2962 121.026C67.199 120.643 67.1666 120.247 67.2005 119.853C67.311 118.852 67.8221 118.302 68.7971 118.055C69.2066 117.943 69.6337 117.912 70.0549 117.963C70.8208 118.039 71.466 118.568 71.6898 119.307C71.8577 119.78 71.9167 120.284 71.8607 120.784C71.8018 121.49 71.3584 122.105 70.7104 122.385C70.3156 122.576 69.8826 122.669 69.4452 122.655ZM69.7825 119.301C69.3863 119.291 68.993 119.381 68.641 119.564C68.3214 119.764 68.1579 120.142 68.2301 120.513C68.2698 120.893 68.56 121.199 68.9356 121.257C69.3995 121.346 69.8782 121.288 70.3083 121.094C70.6618 120.955 70.8798 120.596 70.8415 120.216C70.8149 119.62 70.4511 119.304 69.7825 119.301Z" fill="#1f8bf6"></path>
        <path d="M138.306 112.953C137.983 113.008 137.701 113.059 137.416 113.101C136.81 113.189 136.201 113.283 135.593 113.358C134.715 113.469 133.774 113.071 133.556 111.985C133.465 111.554 133.419 111.117 133.419 110.678C133.394 110.02 133.809 109.426 134.435 109.228C134.895 109.086 135.366 108.984 135.843 108.923C136.434 108.826 137.029 108.759 137.623 108.679C137.793 109.105 137.864 109.565 137.827 110.021C137.203 110.113 136.57 110.203 135.935 110.296C135.659 110.336 135.381 110.357 135.111 110.418C134.687 110.474 134.388 110.864 134.444 111.29C134.456 111.384 134.485 111.475 134.531 111.559C134.63 111.849 134.917 112.032 135.22 111.996C135.599 111.965 135.974 111.914 136.352 111.862C136.829 111.797 137.306 111.72 137.783 111.655C137.891 111.648 137.998 111.648 138.107 111.654L138.306 112.953Z" fill="#1f8bf6"></path>
        <path d="M133.131 102.704L132.153 100.737L131.324 101.148L132.389 103.315L131.526 103.757C131.485 103.707 131.448 103.652 131.414 103.597C130.887 102.531 130.362 101.466 129.809 100.345L133.874 98.3345L135.522 101.693L134.693 102.114L133.632 100.003L132.961 100.33L133.919 102.299L133.131 102.704Z" fill="#1f8bf6"></path>
        <path d="M132.037 97.6576L131.298 96.716C131.541 96.1335 131.479 95.7477 131.122 95.5392C130.925 95.4239 130.837 95.4564 130.603 95.7521L130.798 96.3479C130.918 96.71 131.059 97.0663 131.15 97.4344C131.298 97.8971 131.158 98.4027 130.795 98.725C130.414 99.0901 129.859 99.2054 129.364 99.0236C129.171 98.957 128.991 98.8565 128.832 98.7279C128.318 98.3066 127.941 97.7419 127.748 97.1047C127.565 96.4957 127.806 95.8378 128.337 95.489L129.103 96.4573C128.898 96.7544 128.697 97.0545 128.867 97.427C128.962 97.6975 129.196 97.8942 129.479 97.937C129.872 97.7848 129.972 97.6251 129.875 97.2481C129.816 97.022 129.7 96.8106 129.645 96.5844C129.545 96.2192 129.476 95.8452 129.437 95.4683C129.384 94.7173 130.187 94.2102 130.857 94.3921C131.015 94.4275 131.164 94.4911 131.299 94.5783C131.958 95.0337 132.413 95.7299 132.566 96.5179C132.641 96.9126 132.464 97.2674 132.037 97.6576Z" fill="#1f8bf6"></path>
        <path d="M69.1342 124.02L69.5672 125.2C69.2387 125.447 69.0605 125.741 69.2476 126.151C69.3566 126.39 69.4376 126.437 69.7646 126.427C70.0002 126.245 69.9354 125.988 69.9325 125.741C69.9119 125.289 69.9177 124.835 69.9457 124.384C70.0488 123.303 71.3391 122.974 72.1079 123.564C72.2729 123.686 72.4128 123.838 72.5233 124.011C72.9209 124.635 73.0962 125.377 73.0196 126.115C72.9489 126.7 72.5439 127.018 72.0078 127.27L71.5629 126.091C72.2743 125.475 72.2655 124.857 71.5556 124.541C71.1653 124.656 71.0902 124.733 71.0769 125.105C71.0666 125.398 71.0975 125.694 71.0843 125.986C71.0813 126.264 71.0504 126.542 70.99 126.814C70.8398 127.431 70.2212 127.809 69.6055 127.66C69.4626 127.624 69.3286 127.562 69.2078 127.477C69.0487 127.372 68.9132 127.236 68.8057 127.077C68.3977 126.477 68.2136 125.751 68.2843 125.027C68.3477 124.554 68.6791 124.159 69.1342 124.02Z" fill="#1f8bf6"></path>
        <path d="M110.925 85.5436L109.549 85.2775C109.505 84.9877 109.469 84.7467 109.431 84.494L107.871 84.1953L107.459 84.8857L106.117 84.6196L108.625 80.4893L110.097 80.7701C110.396 82.3356 110.658 83.9012 110.925 85.5436ZM109.327 83.5094C109.321 82.9565 109.232 82.4081 109.066 81.8803L108.322 83.2995L109.327 83.5094Z" fill="#1f8bf6"></path>
        <path d="M73.8481 101.951C73.608 101.895 73.362 101.858 73.1278 101.78C72.5593 101.588 72.0291 101.293 71.5651 100.912C70.9568 100.498 70.7418 99.6984 71.0614 99.0331C71.1615 98.7744 71.297 98.529 71.4635 98.3073C71.7905 97.8342 72.3737 97.611 72.9319 97.744C73.7243 97.9067 74.4564 98.2807 75.0543 98.8276C75.6317 99.2623 75.7967 100.059 75.4388 100.689C75.315 100.953 75.1604 101.202 74.9778 101.429C74.6979 101.765 74.284 101.957 73.8481 101.951ZM74.0189 100.797C74.3415 100.809 74.5182 100.721 74.6022 100.517C74.7009 100.293 74.6346 100.029 74.4402 99.8802C73.8908 99.3953 73.2383 99.0435 72.5313 98.8498C72.2971 98.7729 72.0423 98.8749 71.926 99.0937C71.8184 99.277 71.8376 99.5077 71.9746 99.6688C72.0158 99.7294 72.0659 99.7826 72.1233 99.8284C72.63 100.225 73.1971 100.538 73.8009 100.757C73.8716 100.778 73.9453 100.791 74.0189 100.797Z" fill="#1f8bf6"></path>
        <path d="M134.432 106.909V108.04C133.694 108.231 132.927 107.868 132.601 107.177C132.386 106.758 132.26 106.299 132.23 105.828C132.163 105.073 132.548 104.352 133.213 103.991C133.725 103.67 134.322 103.507 134.927 103.525C135.432 103.525 135.914 103.741 136.25 104.12C136.745 104.674 137.002 105.401 136.969 106.145C136.939 106.727 136.619 107.255 136.12 107.552L135.518 106.507C135.574 106.443 135.624 106.392 135.669 106.337C135.995 105.978 135.968 105.423 135.612 105.097C135.422 104.922 135.164 104.841 134.908 104.875C134.493 104.953 134.091 105.088 133.711 105.274C133.37 105.423 133.197 105.805 133.307 106.161C133.364 106.522 133.647 106.803 134.007 106.859C134.132 106.882 134.263 106.888 134.432 106.909Z" fill="#1f8bf6"></path>
        <path d="M71.8542 105.983C71.0309 105.896 70.2473 105.59 69.5801 105.098C69.1323 104.786 68.9232 104.23 69.0543 103.699C69.1176 103.384 69.2163 103.078 69.3488 102.787C69.6036 102.197 70.2252 101.857 70.8571 101.962C71.6318 102.033 72.3756 102.304 73.0163 102.747C73.629 103.096 73.8986 103.84 73.6526 104.502C73.5981 104.699 73.5259 104.892 73.4405 105.077C73.1518 105.705 72.6481 105.988 71.8542 105.983ZM72.1561 104.842C72.5096 104.839 72.6967 104.721 72.7777 104.496C72.8587 104.282 72.7806 104.039 72.5906 103.912C72.4581 103.797 72.3108 103.701 72.1532 103.625C71.8056 103.476 71.4477 103.344 71.0898 103.219C70.9233 103.163 70.7525 103.124 70.5787 103.101C70.3106 103.05 70.0426 103.194 69.935 103.445C69.8496 103.662 69.9144 103.857 70.156 104.056C70.2547 104.143 70.3666 104.214 70.4874 104.267C70.9351 104.443 71.3858 104.61 71.8395 104.771C71.944 104.802 72.0516 104.824 72.1606 104.839L72.1561 104.842Z" fill="#1f8bf6"></path>
        <path d="M68.4752 113.446L68.2675 114.598C67.3765 114.415 66.9788 113.931 67.0009 113.041C67.0097 112.675 67.0613 112.311 67.1555 111.956C67.3161 111.272 67.9995 110.846 68.6814 111.007C68.8641 111.05 69.0349 111.133 69.1807 111.25C69.5121 111.517 69.7846 111.85 69.982 112.228C70.1514 112.499 70.3207 112.769 70.5166 113.084C70.7287 112.753 70.633 112.438 70.6801 112.148C70.7287 111.847 70.7479 111.541 70.7862 111.18L71.7671 111.233C71.6522 112.511 71.5432 113.733 71.4313 115.003C70.9983 114.913 70.6021 114.696 70.2913 114.379C69.9996 114.053 69.7463 113.69 69.4871 113.337C69.331 113.124 69.1955 112.896 69.0482 112.679C68.9996 112.607 68.9436 112.537 68.8832 112.474C68.7241 112.273 68.4605 112.185 68.213 112.25C67.9995 112.327 67.8537 112.525 67.8463 112.753C67.8375 113.012 67.9965 113.247 68.2396 113.333C68.3058 113.359 68.3692 113.393 68.4752 113.446Z" fill="#1f8bf6"></path>
        <path d="M88.2629 84.96L88.6679 85.7302L87.1155 86.5728L87.9609 88.2167L86.7532 88.8642L84.6484 84.8432L87.6914 83.2407L88.1421 84.0612L86.3305 85.0339L86.6987 85.7701L88.2629 84.96Z" fill="#1f8bf6"></path>
        <path d="M132.684 129.749L130.953 128.989L131.498 127.736L133.251 128.482L136.353 127.931L135.747 129.31L133.961 129.556L134.996 131.031L134.398 132.425L132.684 129.749Z" fill="#1f8bf6"></path>
        <path d="M113.332 86.4096L112.043 85.9691L113.124 82.7583C112.721 82.4877 112.238 82.4478 111.793 82.2128L112.141 81.2075L116.154 82.5779L115.807 83.6024L114.444 83.1589L113.332 86.4096Z" fill="#1f8bf6"></path>
        <path d="M132.979 123.126L136.292 123.995L136.678 122.613L137.716 122.886L136.648 126.989L135.595 126.731L135.949 125.337L132.641 124.452L132.979 123.126Z" fill="#1f8bf6"></path>
        <path d="M68.4311 109.877L67.4531 109.643L68.2529 106.079L69.0468 106.254C69.7788 107.455 70.9409 108.334 72.2945 108.708L72.0323 109.88C70.8083 109.497 69.739 108.73 68.9805 107.69C68.7331 108.436 68.6609 109.148 68.4311 109.877Z" fill="#1f8bf6"></path>
        <path d="M74.9971 95.7358C74.9102 96.1734 74.8381 96.5459 74.76 96.917C74.735 96.9924 74.7011 97.0663 74.6613 97.1358L73.8807 96.5622C74.0972 95.8955 74.1871 95.2347 73.8203 94.5857L74.4286 93.7534L78.127 96.4897L77.3994 97.4979L74.9971 95.7358Z" fill="#1f8bf6"></path>
        <path d="M81.6251 92.6503L80.681 93.6644L77.5703 90.3811L78.5233 89.3862L81.6251 92.6503Z" fill="#1f8bf6"></path>
        <path d="M116.593 87.824L115.355 87.2267L117.283 83.1289L118.532 83.7114L116.593 87.824Z" fill="#1f8bf6"></path>
        <path d="M73.7638 127.591L74.3059 128.858L70.1568 130.657L69.6133 129.392L73.7638 127.591Z" fill="#1f8bf6"></path>
        <path d="M133.418 120.974L133.614 119.642C135.104 119.822 136.563 120.047 138.072 120.275L137.888 121.613C136.381 121.426 134.917 121.211 133.418 120.974Z" fill="#1f8bf6"></path>
        <path d="M122.275 116.046C122.288 117.227 122.026 118.396 121.512 119.458C120.852 120.754 119.743 121.764 118.392 122.296C117.411 122.686 116.372 122.903 115.317 122.942C114.089 123.039 112.853 122.905 111.675 122.547C109.125 121.727 107.598 120.002 107.209 117.314C107.016 116.09 107.094 114.839 107.437 113.649C107.954 111.834 109.299 110.375 111.062 109.714C112.573 109.138 114.202 108.936 115.807 109.13C116.729 109.192 117.634 109.412 118.482 109.779C120.493 110.611 121.896 112.474 122.147 114.643C122.214 115.107 122.234 115.578 122.275 116.046ZM117.267 116.046C117.226 115.417 117.205 114.785 117.136 114.159C117.084 113.454 116.894 112.768 116.576 112.137C116.224 111.435 115.497 111.002 114.715 111.03C113.918 110.99 113.169 111.42 112.801 112.131C112.542 112.626 112.374 113.163 112.303 113.717C112.097 115.083 112.072 116.47 112.23 117.842C112.278 118.471 112.429 119.091 112.675 119.672C113.149 120.785 114.435 121.302 115.544 120.826C116.031 120.617 116.426 120.237 116.656 119.758C116.791 119.465 116.897 119.16 116.97 118.845C117.168 117.925 117.267 116.987 117.267 116.046Z" fill="#1f8bf6"></path>
        <path d="M103.146 113.913C103.059 113.672 102.992 113.478 102.922 113.286C102.442 111.991 101.475 111.332 100.141 111.188C99.6328 111.11 99.1129 111.138 98.6165 111.271C98.291 111.366 97.9979 111.546 97.7667 111.796C97.2909 112.323 97.3425 112.918 97.9464 113.287C98.2984 113.496 98.6784 113.654 99.0731 113.757C99.9038 113.987 100.754 114.152 101.587 114.377C102.556 114.612 103.481 114.999 104.33 115.525C105.242 116.095 105.826 117.069 105.9 118.144C106.055 119.235 105.75 120.34 105.057 121.196C104.532 121.816 103.848 122.28 103.079 122.539C102.051 122.886 100.963 123.025 99.8803 122.947C98.6062 122.877 97.3587 122.553 96.2098 121.995C96.1598 121.971 96.1038 121.956 96.0184 121.927L95.5294 122.617H93.8032V117.826C94.1007 117.78 94.4041 117.768 94.7046 117.789C94.9962 117.781 95.2878 117.787 95.6163 117.787C95.6767 117.945 95.7297 118.093 95.7901 118.238C96.391 119.675 97.3999 120.637 98.9568 120.938C99.4737 121.057 100.011 121.045 100.522 120.904C100.802 120.821 101.063 120.688 101.294 120.509C101.741 120.19 101.845 119.567 101.528 119.119C101.464 119.028 101.384 118.948 101.293 118.883C100.917 118.605 100.5 118.386 100.058 118.235C99.2027 117.937 98.3205 117.718 97.4574 117.441C96.855 117.26 96.2629 117.045 95.684 116.8C94.5838 116.309 93.7781 115.511 93.5336 114.297C93.1433 112.359 93.9549 110.674 95.7253 109.736C96.4838 109.348 97.3189 109.13 98.1688 109.096C99.7816 108.977 101.4 109.271 102.869 109.951C102.922 109.976 102.978 109.994 103.073 110.031L103.431 109.43H105.249V113.902C104.912 113.905 104.567 113.911 104.224 113.913C103.87 113.914 103.52 113.913 103.146 113.913Z" fill="#1f8bf6"></path>
        <path d="M92.2601 120.738V122.54H84.582V120.738C84.8192 120.738 85.0504 120.742 85.2787 120.736C85.4392 120.736 85.5998 120.723 85.7589 120.696C86.0019 120.673 86.1963 120.48 86.2243 120.237C86.2596 120.049 86.2832 119.86 86.292 119.67C86.2965 117.231 86.2965 114.79 86.292 112.351C86.2906 111.488 86.0858 111.291 85.2257 111.277C85.0224 111.274 84.8177 111.277 84.582 111.277V109.483H92.2071C92.3073 110.066 92.3161 110.662 92.2322 111.247C92.1261 111.257 92.0142 111.271 91.9008 111.278C91.7873 111.285 91.6666 111.278 91.5487 111.281C90.7652 111.309 90.5796 111.478 90.5796 112.254C90.5722 114.752 90.5722 117.25 90.5796 119.749C90.5825 120.55 90.7696 120.723 91.5723 120.738C91.7903 120.741 92.0068 120.738 92.2601 120.738Z" fill="#1f8bf6"></path>
    </g>
    <defs>
        <filter id="filter0_dd_240_3579" x="38" y="53" width="130" height="130" filterUnits="userSpaceOnUse" color-interpolation-filters="sRGB">
            <feFlood flood-opacity="0" result="BackgroundImageFix"></feFlood>
            <feColorMatrix in="SourceAlpha" type="matrix" values="0 0 0 0 0 0 0 0 0 0 0 0 0 0 0 0 0 0 127 0" result="hardAlpha"></feColorMatrix>
            <feMorphology radius="1" operator="dilate" in="SourceAlpha" result="effect1_dropShadow_240_3579"></feMorphology>
            <feOffset></feOffset>
            <feComposite in2="hardAlpha" operator="out"></feComposite>
            <feColorMatrix type="matrix" values="0 0 0 0 0.0666667 0 0 0 0 0.101961 0 0 0 0 0.145098 0 0 0 0.05 0"></feColorMatrix>
            <feBlend mode="normal" in2="BackgroundImageFix" result="effect1_dropShadow_240_3579"></feBlend>
            <feColorMatrix in="SourceAlpha" type="matrix" values="0 0 0 0 0 0 0 0 0 0 0 0 0 0 0 0 0 0 127 0" result="hardAlpha"></feColorMatrix>
            <feOffset dy="2"></feOffset>
            <feGaussianBlur stdDeviation="2.5"></feGaussianBlur>
            <feComposite in2="hardAlpha" operator="out"></feComposite>
            <feColorMatrix type="matrix" values="0 0 0 0 0.0627451 0 0 0 0 0.0980392 0 0 0 0 0.141176 0 0 0 0.1 0"></feColorMatrix>
            <feBlend mode="normal" in2="effect1_dropShadow_240_3579" result="effect2_dropShadow_240_3579"></feBlend>
            <feBlend mode="normal" in="SourceGraphic" in2="effect2_dropShadow_240_3579" result="shape"></feBlend>
        </filter>
        <filter id="filter1_dd_240_3579" x="166" y="53" width="160" height="89" filterUnits="userSpaceOnUse" color-interpolation-filters="sRGB">
            <feFlood flood-opacity="0" result="BackgroundImageFix"></feFlood>
            <feColorMatrix in="SourceAlpha" type="matrix" values="0 0 0 0 0 0 0 0 0 0 0 0 0 0 0 0 0 0 127 0" result="hardAlpha"></feColorMatrix>
            <feMorphology radius="1" operator="dilate" in="SourceAlpha" result="effect1_dropShadow_240_3579"></feMorphology>
            <feOffset></feOffset>
            <feComposite in2="hardAlpha" operator="out"></feComposite>
            <feColorMatrix type="matrix" values="0 0 0 0 0.0666667 0 0 0 0 0.101961 0 0 0 0 0.145098 0 0 0 0.05 0"></feColorMatrix>
            <feBlend mode="normal" in2="BackgroundImageFix" result="effect1_dropShadow_240_3579"></feBlend>
            <feColorMatrix in="SourceAlpha" type="matrix" values="0 0 0 0 0 0 0 0 0 0 0 0 0 0 0 0 0 0 127 0" result="hardAlpha"></feColorMatrix>
            <feOffset dy="2"></feOffset>
            <feGaussianBlur stdDeviation="2.5"></feGaussianBlur>
            <feComposite in2="hardAlpha" operator="out"></feComposite>
            <feColorMatrix type="matrix" values="0 0 0 0 0.0627451 0 0 0 0 0.0980392 0 0 0 0 0.141176 0 0 0 0.1 0"></feColorMatrix>
            <feBlend mode="normal" in2="effect1_dropShadow_240_3579" result="effect2_dropShadow_240_3579"></feBlend>
            <feBlend mode="normal" in="SourceGraphic" in2="effect2_dropShadow_240_3579" result="shape"></feBlend>
        </filter>
        <filter id="filter2_f_240_3579" x="109" y="23" width="3" height="186" filterUnits="userSpaceOnUse" color-interpolation-filters="sRGB">
            <feFlood flood-opacity="0" result="BackgroundImageFix"></feFlood>
            <feBlend mode="normal" in="SourceGraphic" in2="BackgroundImageFix" result="shape"></feBlend>
            <feGaussianBlur stdDeviation="0.5" result="effect1_foregroundBlur_240_3579"></feGaussianBlur>
        </filter>
        <linearGradient id="paint0_linear_240_3579" x1="182" y1="0" x2="182" y2="231" gradientUnits="userSpaceOnUse">
            <stop stop-color="#D9D9D9" stop-opacity="0"></stop>
            <stop offset="0.558442" stop-color="#D9D9D9"></stop>
            <stop offset="0.896104" stop-color="#D9D9D9" stop-opacity="0"></stop>
        </linearGradient>
        <linearGradient id="paint1_linear_240_3579" x1="52.5" y1="63" x2="49.5" y2="66" gradientUnits="userSpaceOnUse">
            <stop stop-color="#D9D9DE"></stop>
            <stop offset="1" stop-color="#EBEBED"></stop>
        </linearGradient>
        <linearGradient id="paint2_linear_240_3579" x1="180.5" y1="63" x2="177.5" y2="66" gradientUnits="userSpaceOnUse">
            <stop stop-color="#D9D9DE"></stop>
            <stop offset="1" stop-color="#EBEBED"></stop>
        </linearGradient>
        <linearGradient id="paint3_linear_240_3579" x1="180.5" y1="127" x2="177.5" y2="130" gradientUnits="userSpaceOnUse">
            <stop stop-color="#D9D9DE"></stop>
            <stop offset="1" stop-color="#EBEBED"></stop>
        </linearGradient>
        <linearGradient id="paint4_linear_240_3579" x1="52.5" y1="168" x2="49.5" y2="171" gradientUnits="userSpaceOnUse">
            <stop stop-color="#D9D9DE"></stop>
            <stop offset="1" stop-color="#EBEBED"></stop>
        </linearGradient>
        <linearGradient id="paint5_linear_240_3579" x1="315.5" y1="63" x2="312.5" y2="66" gradientUnits="userSpaceOnUse">
            <stop stop-color="#D9D9DE"></stop>
            <stop offset="1" stop-color="#EBEBED"></stop>
        </linearGradient>
        <linearGradient id="paint6_linear_240_3579" x1="315.5" y1="127" x2="312.5" y2="130" gradientUnits="userSpaceOnUse">
            <stop stop-color="#D9D9DE"></stop>
            <stop offset="1" stop-color="#EBEBED"></stop>
        </linearGradient>
        <linearGradient id="paint7_linear_240_3579" x1="163" y1="56" x2="43" y2="176" gradientUnits="userSpaceOnUse">
            <stop stop-color="white" stop-opacity="0"></stop>
            <stop offset="0.510417" stop-color="white"></stop>
            <stop offset="0.515625" stop-color="white" stop-opacity="0"></stop>
        </linearGradient>
        <linearGradient id="paint8_linear_240_3579" x1="321" y1="56" x2="255.856" y2="179.691" gradientUnits="userSpaceOnUse">
            <stop stop-color="white" stop-opacity="0"></stop>
            <stop offset="0.510417" stop-color="white"></stop>
            <stop offset="0.515625" stop-color="white" stop-opacity="0"></stop>
        </linearGradient>
        <linearGradient id="paint9_linear_240_3579" x1="110.5" y1="24" x2="110.5" y2="208" gradientUnits="userSpaceOnUse">
            <stop stop-color="#1f8bf6" stop-opacity="0"></stop>
            <stop offset="0.120312" stop-color="#1f8bf6" stop-opacity="0.5"></stop>
            <stop offset="0.517187" stop-color="#1f8bf6"></stop>
            <stop offset="0.871875" stop-color="#1f8bf6" stop-opacity="0.5"></stop>
            <stop offset="1" stop-color="#1f8bf6" stop-opacity="0"></stop>
        </linearGradient>
        <radialGradient id="paint10_radial_240_3579" cx="0" cy="0" r="1" gradientUnits="userSpaceOnUse" gradientTransform="translate(110 116) scale(94.5 88.7143)">
            <stop stop-color="#1f8bf6"></stop>
            <stop offset="0.270408" stop-color="#1f8bf6" stop-opacity="0.5"></stop>
            <stop offset="1" stop-color="#1f8bf6" stop-opacity="0"></stop>
        </radialGradient>
        <clipPath id="clip0_240_3579">
            <rect width="33" height="80" fill="white" transform="translate(110 76)"></rect>
        </clipPath>
    </defs>
</svg>
