<svg viewBox="0 0 294 42" fill="none"
     xmlns="http://www.w3.org/2000/svg">
    <circle cx="5" cy="5" r="1" fill="#1D1D20" fill-opacity="0.2"></circle>
    <circle cx="9" cy="5" r="1" fill="#1D1D20" fill-opacity="0.2"></circle>
    <circle cx="13" cy="5" r="1" fill="#1D1D20" fill-opacity="0.2"></circle>
    <circle cx="17" cy="5" r="1" fill="#1D1D20" fill-opacity="0.2"></circle>
    <circle cx="21" cy="5" r="1" fill="#1D1D20" fill-opacity="0.2"></circle>
    <circle cx="25" cy="5" r="1" fill="#1D1D20" fill-opacity="0.2"></circle>
    <circle cx="29" cy="5" r="1" fill="#1D1D20" fill-opacity="0.2"></circle>
    <circle cx="33" cy="5" r="1" fill="#1D1D20" fill-opacity="0.2"></circle>
    <circle cx="37" cy="5" r="1" fill="#1D1D20" fill-opacity="0.2"></circle>
    <circle cx="41" cy="5" r="1" fill="#1D1D20" fill-opacity="0.2"></circle>
    <circle cx="45" cy="5" r="1" fill="#1D1D20" fill-opacity="0.2"></circle>
    <circle cx="49" cy="5" r="1" fill="#1D1D20" fill-opacity="0.2"></circle>
    <circle cx="53" cy="5" r="1" fill="#1D1D20" fill-opacity="0.2"></circle>
    <circle cx="57" cy="5" r="1" fill="#1D1D20" fill-opacity="0.2"></circle>
    <circle cx="61" cy="5" r="1" fill="#1D1D20" fill-opacity="0.2"></circle>
    <circle cx="65" cy="5" r="1" fill="#1D1D20" fill-opacity="0.2"></circle>
    <circle cx="69" cy="5" r="1" fill="#1D1D20" fill-opacity="0.2"></circle>
    <circle cx="73" cy="5" r="1" fill="#1D1D20" fill-opacity="0.2"></circle>
    <circle cx="77" cy="5" r="1" fill="#1D1D20" fill-opacity="0.2"></circle>
    <circle cx="81" cy="5" r="1" fill="#1D1D20" fill-opacity="0.2"></circle>
    <circle cx="85" cy="5" r="1" fill="#1D1D20" fill-opacity="0.2"></circle>
    <circle cx="89" cy="5" r="1" fill="#1D1D20" fill-opacity="0.2"></circle>
    <circle cx="93" cy="5" r="1" fill="#1D1D20" fill-opacity="0.2"></circle>
    <circle cx="97" cy="5" r="1" fill="#1D1D20" fill-opacity="0.2"></circle>
    <circle cx="101" cy="5" r="1" fill="#1D1D20" fill-opacity="0.2"></circle>
    <circle cx="105" cy="5" r="1" fill="#1D1D20" fill-opacity="0.2"></circle>
    <circle cx="109" cy="5" r="1" fill="#1D1D20" fill-opacity="0.2"></circle>
    <circle cx="113" cy="5" r="1" fill="#1D1D20" fill-opacity="0.2"></circle>
    <circle cx="117" cy="5" r="1" fill="#1D1D20" fill-opacity="0.2"></circle>
    <circle cx="121" cy="5" r="1" fill="#1D1D20" fill-opacity="0.2"></circle>
    <circle cx="125" cy="5" r="1" fill="#1D1D20" fill-opacity="0.2"></circle>
    <circle cx="129" cy="5" r="1" fill="#1D1D20" fill-opacity="0.2"></circle>
    <circle cx="133" cy="5" r="1" fill="#1D1D20" fill-opacity="0.2"></circle>
    <circle cx="137" cy="5" r="1" fill="#1D1D20" fill-opacity="0.2"></circle>
    <circle cx="141" cy="1" r="1" fill="#1D1D20" fill-opacity="0.2"></circle>
    <circle cx="1" cy="9" r="1" fill="#1D1D20" fill-opacity="0.2"></circle>
    <circle cx="1" cy="13" r="1" fill="#1D1D20" fill-opacity="0.2"></circle>
    <circle cx="1" cy="17" r="1" fill="#1D1D20" fill-opacity="0.2"></circle>
    <circle cx="1" cy="21" r="1" fill="#1D1D20" fill-opacity="0.2"></circle>
    <circle cx="1" cy="25" r="1" fill="#1D1D20" fill-opacity="0.2"></circle>
    <circle cx="1" cy="29" r="1" fill="#1D1D20" fill-opacity="0.2"></circle>
    <circle cx="1" cy="33" r="1" fill="#1D1D20" fill-opacity="0.2"></circle>
    <circle cx="1" cy="37" r="1" fill="#1D1D20" fill-opacity="0.2"></circle>
    <circle cx="1" cy="41" r="1" fill="#1D1D20" fill-opacity="0.2"></circle>
    <circle cx="1" cy="1" r="1" transform="matrix(-1 0 0 1 290 4)" fill="#1D1D20" fill-opacity="0.2"></circle>
    <circle cx="1" cy="1" r="1" transform="matrix(-1 0 0 1 286 4)" fill="#1D1D20" fill-opacity="0.2"></circle>
    <circle cx="1" cy="1" r="1" transform="matrix(-1 0 0 1 282 4)" fill="#1D1D20" fill-opacity="0.2"></circle>
    <circle cx="1" cy="1" r="1" transform="matrix(-1 0 0 1 278 4)" fill="#1D1D20" fill-opacity="0.2"></circle>
    <circle cx="1" cy="1" r="1" transform="matrix(-1 0 0 1 274 4)" fill="#1D1D20" fill-opacity="0.2"></circle>
    <circle cx="1" cy="1" r="1" transform="matrix(-1 0 0 1 270 4)" fill="#1D1D20" fill-opacity="0.2"></circle>
    <circle cx="1" cy="1" r="1" transform="matrix(-1 0 0 1 266 4)" fill="#1D1D20" fill-opacity="0.2"></circle>
    <circle cx="1" cy="1" r="1" transform="matrix(-1 0 0 1 262 4)" fill="#1D1D20" fill-opacity="0.2"></circle>
    <circle cx="1" cy="1" r="1" transform="matrix(-1 0 0 1 258 4)" fill="#1D1D20" fill-opacity="0.2"></circle>
    <circle cx="1" cy="1" r="1" transform="matrix(-1 0 0 1 254 4)" fill="#1D1D20" fill-opacity="0.2"></circle>
    <circle cx="1" cy="1" r="1" transform="matrix(-1 0 0 1 250 4)" fill="#1D1D20" fill-opacity="0.2"></circle>
    <circle cx="1" cy="1" r="1" transform="matrix(-1 0 0 1 246 4)" fill="#1D1D20" fill-opacity="0.2"></circle>
    <circle cx="1" cy="1" r="1" transform="matrix(-1 0 0 1 242 4)" fill="#1D1D20" fill-opacity="0.2"></circle>
    <circle cx="1" cy="1" r="1" transform="matrix(-1 0 0 1 238 4)" fill="#1D1D20" fill-opacity="0.2"></circle>
    <circle cx="1" cy="1" r="1" transform="matrix(-1 0 0 1 234 4)" fill="#1D1D20" fill-opacity="0.2"></circle>
    <circle cx="1" cy="1" r="1" transform="matrix(-1 0 0 1 230 4)" fill="#1D1D20" fill-opacity="0.2"></circle>
    <circle cx="1" cy="1" r="1" transform="matrix(-1 0 0 1 226 4)" fill="#1D1D20" fill-opacity="0.2"></circle>
    <circle cx="1" cy="1" r="1" transform="matrix(-1 0 0 1 222 4)" fill="#1D1D20" fill-opacity="0.2"></circle>
    <circle cx="1" cy="1" r="1" transform="matrix(-1 0 0 1 218 4)" fill="#1D1D20" fill-opacity="0.2"></circle>
    <circle cx="1" cy="1" r="1" transform="matrix(-1 0 0 1 214 4)" fill="#1D1D20" fill-opacity="0.2"></circle>
    <circle cx="1" cy="1" r="1" transform="matrix(-1 0 0 1 210 4)" fill="#1D1D20" fill-opacity="0.2"></circle>
    <circle cx="1" cy="1" r="1" transform="matrix(-1 0 0 1 206 4)" fill="#1D1D20" fill-opacity="0.2"></circle>
    <circle cx="1" cy="1" r="1" transform="matrix(-1 0 0 1 202 4)" fill="#1D1D20" fill-opacity="0.2"></circle>
    <circle cx="1" cy="1" r="1" transform="matrix(-1 0 0 1 198 4)" fill="#1D1D20" fill-opacity="0.2"></circle>
    <circle cx="1" cy="1" r="1" transform="matrix(-1 0 0 1 194 4)" fill="#1D1D20" fill-opacity="0.2"></circle>
    <circle cx="1" cy="1" r="1" transform="matrix(-1 0 0 1 190 4)" fill="#1D1D20" fill-opacity="0.2"></circle>
    <circle cx="1" cy="1" r="1" transform="matrix(-1 0 0 1 186 4)" fill="#1D1D20" fill-opacity="0.2"></circle>
    <circle cx="1" cy="1" r="1" transform="matrix(-1 0 0 1 182 4)" fill="#1D1D20" fill-opacity="0.2"></circle>
    <circle cx="1" cy="1" r="1" transform="matrix(-1 0 0 1 178 4)" fill="#1D1D20" fill-opacity="0.2"></circle>
    <circle cx="1" cy="1" r="1" transform="matrix(-1 0 0 1 174 4)" fill="#1D1D20" fill-opacity="0.2"></circle>
    <circle cx="1" cy="1" r="1" transform="matrix(-1 0 0 1 170 4)" fill="#1D1D20" fill-opacity="0.2"></circle>
    <circle cx="1" cy="1" r="1" transform="matrix(-1 0 0 1 166 4)" fill="#1D1D20" fill-opacity="0.2"></circle>
    <circle cx="1" cy="1" r="1" transform="matrix(-1 0 0 1 162 4)" fill="#1D1D20" fill-opacity="0.2"></circle>
    <circle cx="1" cy="1" r="1" transform="matrix(-1 0 0 1 158 4)" fill="#1D1D20" fill-opacity="0.2"></circle>
    <circle cx="1" cy="1" r="1" transform="matrix(-1 0 0 1 154 0)" fill="#1D1D20" fill-opacity="0.2"></circle>
    <circle cx="1" cy="1" r="1" transform="matrix(-1 0 0 1 294 8)" fill="#1D1D20" fill-opacity="0.2"></circle>
    <circle cx="1" cy="1" r="1" transform="matrix(-1 0 0 1 294 12)" fill="#1D1D20" fill-opacity="0.2"></circle>
    <circle cx="1" cy="1" r="1" transform="matrix(-1 0 0 1 294 16)" fill="#1D1D20" fill-opacity="0.2"></circle>
    <circle cx="1" cy="1" r="1" transform="matrix(-1 0 0 1 294 20)" fill="#1D1D20" fill-opacity="0.2"></circle>
    <circle cx="1" cy="1" r="1" transform="matrix(-1 0 0 1 294 24)" fill="#1D1D20" fill-opacity="0.2"></circle>
    <circle cx="1" cy="1" r="1" transform="matrix(-1 0 0 1 294 28)" fill="#1D1D20" fill-opacity="0.2"></circle>
    <circle cx="1" cy="1" r="1" transform="matrix(-1 0 0 1 294 32)" fill="#1D1D20" fill-opacity="0.2"></circle>
    <circle cx="1" cy="1" r="1" transform="matrix(-1 0 0 1 294 36)" fill="#1D1D20" fill-opacity="0.2"></circle>
    <circle cx="1" cy="1" r="1" transform="matrix(-1 0 0 1 294 40)" fill="#1D1D20" fill-opacity="0.2"></circle>
</svg>
