<svg viewBox="0 0 130 50" fill="none" xmlns="http://www.w3.org/2000/svg">
    <circle cx="65" cy="29" r="1" fill="#1D1D20" fill-opacity="0.2"></circle>
    <circle cx="65" cy="33" r="1" fill="#1D1D20" fill-opacity="0.2"></circle>
    <circle cx="65" cy="37" r="1" fill="#1D1D20" fill-opacity="0.2"></circle>
    <circle cx="65" cy="41" r="1" fill="#1D1D20" fill-opacity="0.2"></circle>
    <circle cx="65" cy="45" r="1" fill="#1D1D20" fill-opacity="0.2"></circle>
    <circle cx="65" cy="49" r="1" fill="#1D1D20" fill-opacity="0.2"></circle>
    <circle cx="1" cy="1" r="1" transform="matrix(1 0 0 -1 4 22)" fill="#1D1D20" fill-opacity="0.2"></circle>
    <circle cx="1" cy="1" r="1" transform="matrix(1 0 0 -1 8 22)" fill="#1D1D20" fill-opacity="0.2"></circle>
    <circle cx="1" cy="1" r="1" transform="matrix(1 0 0 -1 12 22)" fill="#1D1D20" fill-opacity="0.2"></circle>
    <circle cx="1" cy="1" r="1" transform="matrix(1 0 0 -1 16 22)" fill="#1D1D20" fill-opacity="0.2"></circle>
    <circle cx="1" cy="1" r="1" transform="matrix(1 0 0 -1 20 22)" fill="#1D1D20" fill-opacity="0.2"></circle>
    <circle cx="1" cy="1" r="1" transform="matrix(1 0 0 -1 24 22)" fill="#1D1D20" fill-opacity="0.2"></circle>
    <circle cx="1" cy="1" r="1" transform="matrix(1 0 0 -1 28 22)" fill="#1D1D20" fill-opacity="0.2"></circle>
    <circle cx="1" cy="1" r="1" transform="matrix(1 0 0 -1 32 22)" fill="#1D1D20" fill-opacity="0.2"></circle>
    <circle cx="1" cy="1" r="1" transform="matrix(1 0 0 -1 36 22)" fill="#1D1D20" fill-opacity="0.2"></circle>
    <circle cx="1" cy="1" r="1" transform="matrix(1 0 0 -1 40 22)" fill="#1D1D20" fill-opacity="0.2"></circle>
    <circle cx="1" cy="1" r="1" transform="matrix(1 0 0 -1 44 22)" fill="#1D1D20" fill-opacity="0.2"></circle>
    <circle cx="1" cy="1" r="1" transform="matrix(1 0 0 -1 48 22)" fill="#1D1D20" fill-opacity="0.2"></circle>
    <circle cx="1" cy="1" r="1" transform="matrix(1 0 0 -1 52 22)" fill="#1D1D20" fill-opacity="0.2"></circle>
    <circle cx="1" cy="1" r="1" transform="matrix(1 0 0 -1 56 22)" fill="#1D1D20" fill-opacity="0.2"></circle>
    <circle cx="1" cy="1" r="1" transform="matrix(1 0 0 -1 60 26)" fill="#1D1D20" fill-opacity="0.2"></circle>
    <circle cx="1" cy="1" r="1" transform="matrix(1 0 0 -1 0 18)" fill="#1D1D20" fill-opacity="0.2"></circle>
    <circle cx="1" cy="1" r="1" transform="matrix(1 0 0 -1 0 14)" fill="#1D1D20" fill-opacity="0.2"></circle>
    <circle cx="1" cy="1" r="1" transform="matrix(1 0 0 -1 0 10)" fill="#1D1D20" fill-opacity="0.2"></circle>
    <circle cx="1" cy="1" r="1" transform="matrix(1 0 0 -1 0 6)" fill="#1D1D20" fill-opacity="0.2"></circle>
    <circle cx="1" cy="1" r="1" transform="matrix(1 0 0 -1 0 2)" fill="#1D1D20" fill-opacity="0.2"></circle>
    <circle cx="125" cy="21" r="1" transform="rotate(180 125 21)" fill="#1D1D20" fill-opacity="0.2"></circle>
    <circle cx="121" cy="21" r="1" transform="rotate(180 121 21)" fill="#1D1D20" fill-opacity="0.2"></circle>
    <circle cx="117" cy="21" r="1" transform="rotate(180 117 21)" fill="#1D1D20" fill-opacity="0.2"></circle>
    <circle cx="113" cy="21" r="1" transform="rotate(180 113 21)" fill="#1D1D20" fill-opacity="0.2"></circle>
    <circle cx="109" cy="21" r="1" transform="rotate(180 109 21)" fill="#1D1D20" fill-opacity="0.2"></circle>
    <circle cx="105" cy="21" r="1" transform="rotate(180 105 21)" fill="#1D1D20" fill-opacity="0.2"></circle>
    <circle cx="101" cy="21" r="1" transform="rotate(180 101 21)" fill="#1D1D20" fill-opacity="0.2"></circle>
    <circle cx="97" cy="21" r="1" transform="rotate(180 97 21)" fill="#1D1D20" fill-opacity="0.2"></circle>
    <circle cx="93" cy="21" r="1" transform="rotate(180 93 21)" fill="#1D1D20" fill-opacity="0.2"></circle>
    <circle cx="89" cy="21" r="1" transform="rotate(180 89 21)" fill="#1D1D20" fill-opacity="0.2"></circle>
    <circle cx="85" cy="21" r="1" transform="rotate(180 85 21)" fill="#1D1D20" fill-opacity="0.2"></circle>
    <circle cx="81" cy="21" r="1" transform="rotate(180 81 21)" fill="#1D1D20" fill-opacity="0.2"></circle>
    <circle cx="77" cy="21" r="1" transform="rotate(180 77 21)" fill="#1D1D20" fill-opacity="0.2"></circle>
    <circle cx="73" cy="21" r="1" transform="rotate(180 73 21)" fill="#1D1D20" fill-opacity="0.2"></circle>
    <circle cx="69" cy="25" r="1" transform="rotate(180 69 25)" fill="#1D1D20" fill-opacity="0.2"></circle>
    <circle cx="129" cy="17" r="1" transform="rotate(180 129 17)" fill="#1D1D20" fill-opacity="0.2"></circle>
    <circle cx="129" cy="13" r="1" transform="rotate(180 129 13)" fill="#1D1D20" fill-opacity="0.2"></circle>
    <circle cx="129" cy="9" r="1" transform="rotate(180 129 9)" fill="#1D1D20" fill-opacity="0.2"></circle>
    <circle cx="129" cy="5" r="1" transform="rotate(180 129 5)" fill="#1D1D20" fill-opacity="0.2"></circle>
    <circle cx="129" cy="1" r="1" transform="rotate(180 129 1)" fill="#1D1D20" fill-opacity="0.2"></circle>
</svg>
