<svg width="129" height="32" viewBox="0 0 129 32" fill="none" xmlns="http://www.w3.org/2000/svg">
    <path d="M43.2365 24.2194H40.3711V10.856H44.1097L48.5053 18.5356V10.856H51.3597V24.2194H48.3285L43.2365 15.1189V24.2194Z" fill="black"></path>
    <path d="M62.6076 10.8589H53.8672V24.2197H62.6076V21.6516H56.9658V18.401L62.1822 18.4002V15.7233H56.9826V13.4834H62.6076V10.8589Z" fill="black"></path>
    <path d="M64.418 10.8589H74.9961V13.4836H71.2638V24.22H68.1726L68.1736 13.487C68.1736 13.487 64.8979 13.4836 64.418 13.4836C64.418 13.3665 64.418 10.8589 64.418 10.8589Z" fill="black"></path>
    <path d="M68.1736 13.4868C68.1736 13.4868 64.5662 13.4834 64.418 13.4834Z" fill="black"></path>
    <path d="M76.9221 21.1768C77.6693 21.6195 78.8733 22.7552 80.9159 22.9687C83.3614 23.2244 84.3896 21.9058 84.5088 20.7775C84.6854 19.1064 83.2291 18.7482 81.0728 18.323C78.6876 17.8528 77.1556 17.4072 76.9326 14.538C76.7652 12.3853 78.5851 10.4527 82.1244 10.6002C83.4795 10.6565 84.9123 11.0589 85.6319 11.5294L85.6227 13.6185C85.0967 13.2863 83.8005 12.2619 81.4634 12.1425C79.6435 12.0495 78.6491 13.2297 78.6409 14.226C78.6223 16.4968 80.4967 16.2416 82.3174 16.7103C84.8428 17.3605 86.2169 17.9984 86.1613 20.5543C86.1095 22.9341 84.0247 24.4819 80.897 24.4819C79.43 24.4819 77.8629 23.977 76.9219 23.4235L76.9221 21.1768Z" fill="black"></path>
    <path d="M90.9737 10.8584V18.8139C90.9737 21.797 92.2382 23.0699 93.9371 23.0699C95.8057 23.0699 97.0325 21.7572 97.0325 18.8139V10.8584H98.6934V18.6947C98.6934 22.8114 96.6362 24.482 93.8802 24.482C91.2755 24.482 89.3125 22.9308 89.3125 18.7541V10.8587H90.9737V10.8584Z" fill="black"></path>
    <path d="M105.095 10.8589H103.512V24.22H105.095V10.8589Z" fill="black"></path>
    <path d="M107.859 10.8589H118.056V12.4292H113.742V24.2197H112.152V12.4292H107.859V10.8589Z" fill="black"></path>
    <path d="M128.369 10.8589H120.531V24.2197H128.369V22.6788H122.052V17.7023H128.369V16.1359H122.052V12.4292H128.369V10.8589Z" fill="black"></path>
    <path fill-rule="evenodd" clip-rule="evenodd" d="M0 0C6.90504 0 13.8787 0 20.7838 0C20.7838 5.87615 20.7838 11.9205 20.7838 17.7966C12.6896 7.53447 20.7838 17.7966 12.6896 7.53447C8.45984 7.53447 4.22979 7.53447 0 7.53447C0 5.08813 0 0.122867 0 0Z" fill="#00467F"></path>
    <path fill-rule="evenodd" clip-rule="evenodd" d="M12.6445 14.3022C15.3428 17.6401 17.9324 21.0869 20.6014 24.4544C24.8542 24.4544 29.1071 24.4544 33.3597 24.4544C33.3597 26.9696 33.3597 29.4846 33.3597 31.9999C26.4546 31.9999 19.5496 31.9999 12.6445 31.9999C12.6445 26.1004 12.6445 20.2015 12.6445 14.3022Z" fill="#00467F"></path>
    <path fill-rule="evenodd" clip-rule="evenodd" d="M22.0859 7.50585C22.0859 5.49387 22.0859 3.54083 22.0859 1.52832C25.3556 1.52832 28.6253 1.52832 31.8949 1.52832C31.8949 8.73086 31.8949 15.9334 31.8949 23.1357C29.7229 23.1357 27.5507 23.1357 25.3787 23.1357C25.3787 17.9454 25.3787 12.6959 25.3787 7.50559C24.3046 7.50585 22.1087 7.50585 22.0859 7.50585Z" fill="#B9C7D4"></path>
    <path fill-rule="evenodd" clip-rule="evenodd" d="M8.05951 8.81689C8.05951 13.9613 8.05951 19.1752 8.05951 24.3199C9.0901 24.3199 10.2168 24.3199 11.2833 24.3194C11.2833 26.3544 11.2833 28.3895 11.2833 30.4245C8.03672 30.4245 4.78984 30.4245 1.54297 30.4245C1.54297 23.222 1.54297 16.0194 1.54297 8.81716C3.71524 8.8169 5.8875 8.81689 8.05951 8.81689Z" fill="#B9C7D4"></path>
</svg>
