<svg viewBox="0 0 32 26" fill="none"
     xmlns="http://www.w3.org/2000/svg">
    <mask id="path-1-inside-1_1958_21972" fill="white">
        <path
                fill-rule="evenodd"
                clip-rule="evenodd"
                d="M0 4C0 1.79086 1.79086 0 4 0H28C30.2091 0 32 1.79086 32 4V7H0V4ZM0 10H32V22C32 24.2091 30.2091 26 28 26H4C1.79086 26 0 24.2091 0 22V10ZM4 20C4 19.4477 4.44772 19 5 19H8C8.55228 19 9 19.4477 9 20V21C9 21.5523 8.55228 22 8 22H5C4.44772 22 4 21.5523 4 21V20ZM13 20C13 19.4477 13.4477 19 14 19H15C15.5523 19 16 19.4477 16 20V21C16 21.5523 15.5523 22 15 22H14C13.4477 22 13 21.5523 13 21V20Z"
        ></path>
    </mask>
    <path
            fill-rule="evenodd"
            clip-rule="evenodd"
            d="M0 4C0 1.79086 1.79086 0 4 0H28C30.2091 0 32 1.79086 32 4V7H0V4ZM0 10H32V22C32 24.2091 30.2091 26 28 26H4C1.79086 26 0 24.2091 0 22V10ZM4 20C4 19.4477 4.44772 19 5 19H8C8.55228 19 9 19.4477 9 20V21C9 21.5523 8.55228 22 8 22H5C4.44772 22 4 21.5523 4 21V20ZM13 20C13 19.4477 13.4477 19 14 19H15C15.5523 19 16 19.4477 16 20V21C16 21.5523 15.5523 22 15 22H14C13.4477 22 13 21.5523 13 21V20Z"
            fill="#5E5E6B"
    ></path>
    <path
            d="M32 7V8H33V7H32ZM0 7H-1V8H0V7ZM32 10H33V9H32V10ZM0 10V9H-1V10H0ZM4 -1C1.23858 -1 -1 1.23858 -1 4H1C1 2.34315 2.34315 1 4 1V-1ZM28 -1H4V1H28V-1ZM33 4C33 1.23858 30.7614 -1 28 -1V1C29.6569 1 31 2.34315 31 4H33ZM33 7V4H31V7H33ZM0 8H32V6H0V8ZM-1 4V7H1V4H-1ZM32 9H0V11H32V9ZM33 22V10H31V22H33ZM28 27C30.7614 27 33 24.7614 33 22H31C31 23.6569 29.6569 25 28 25V27ZM4 27H28V25H4V27ZM-1 22C-1 24.7614 1.23858 27 4 27V25C2.34315 25 1 23.6569 1 22H-1ZM-1 10V22H1V10H-1ZM5 18C3.89543 18 3 18.8954 3 20H5V18ZM8 18H5V20H8V18ZM10 20C10 18.8954 9.10457 18 8 18V20H10ZM10 21V20H8V21H10ZM8 23C9.10457 23 10 22.1046 10 21H8V23ZM5 23H8V21H5V23ZM3 21C3 22.1046 3.89543 23 5 23V21H3ZM3 20V21H5V20H3ZM14 18C12.8954 18 12 18.8954 12 20H14V18ZM15 18H14V20H15V18ZM17 20C17 18.8954 16.1046 18 15 18V20H17ZM17 21V20H15V21H17ZM15 23C16.1046 23 17 22.1046 17 21H15V23ZM14 23H15V21H14V23ZM12 21C12 22.1046 12.8954 23 14 23V21H12ZM12 20V21H14V20H12Z"
            fill="black"
            fill-opacity="0.1"
            mask="url(#path-1-inside-1_1958_21972)"
    ></path>
</svg>
