<svg viewBox="0 0 32 32" fill="none" xmlns="http://www.w3.org/2000/svg">
    <mask id="path-1-inside-1_1958_21984" fill="white">
        <path
                fill-rule="evenodd"
                clip-rule="evenodd"
                d="M6 0C2.68629 0 0 2.68629 0 6V26C0 29.3137 2.68629 32 6 32H26C29.3137 32 32 29.3137 32 26V6C32 2.68629 29.3137 0 26 0H6ZM11.9387 20.7538C11.5676 21.2764 11.9413 22 12.5823 22C12.838 22 13.0778 21.8762 13.2258 21.6677L20.0571 12.0463C20.4281 11.5236 20.0544 10.8 19.4135 10.8C19.1578 10.8 18.9179 10.9239 18.7699 11.1324L11.9387 20.7538ZM11.1499 16.064C11.4912 16.1814 11.8432 16.24 12.2059 16.24C12.5685 16.24 12.9152 16.176 13.2459 16.048C13.5765 15.92 13.8699 15.7387 14.1259 15.504C14.3819 15.2694 14.5845 14.976 14.7339 14.624C14.8939 14.272 14.9739 13.872 14.9739 13.424C14.9739 12.976 14.8939 12.5814 14.7339 12.24C14.5845 11.888 14.3819 11.5947 14.1259 11.36C13.8805 11.1147 13.5872 10.9334 13.2459 10.816C12.9152 10.688 12.5685 10.624 12.2059 10.624C11.8432 10.624 11.4912 10.688 11.1499 10.816C10.8192 10.944 10.5259 11.1254 10.2699 11.36C10.0139 11.5947 9.80587 11.888 9.64587 12.24C9.49654 12.592 9.42188 12.9867 9.42188 13.424C9.42188 13.872 9.49654 14.272 9.64587 14.624C9.80587 14.976 10.0139 15.2747 10.2699 15.52C10.5259 15.7547 10.8192 15.936 11.1499 16.064ZM13.0219 14.448C12.8405 14.7254 12.5685 14.864 12.2059 14.864C11.8432 14.864 11.5659 14.7254 11.3739 14.448C11.1925 14.1707 11.1019 13.8294 11.1019 13.424C11.1019 13.0294 11.1925 12.6934 11.3739 12.416C11.5659 12.1387 11.8432 12 12.2059 12C12.5685 12 12.8405 12.1387 13.0219 12.416C13.2139 12.6934 13.3099 13.0294 13.3099 13.424C13.3099 13.8294 13.2139 14.1707 13.0219 14.448ZM18.7339 22C19.0752 22.1174 19.4272 22.176 19.7899 22.176C20.1525 22.176 20.4992 22.112 20.8299 21.984C21.1605 21.856 21.4539 21.6747 21.7099 21.44C21.9659 21.2054 22.1685 20.912 22.3179 20.56C22.4779 20.208 22.5579 19.808 22.5579 19.36C22.5579 18.912 22.4779 18.5174 22.3179 18.176C22.1685 17.824 21.9659 17.5307 21.7099 17.296C21.4645 17.0507 21.1712 16.8694 20.8299 16.752C20.4992 16.624 20.1525 16.56 19.7899 16.56C19.4272 16.56 19.0752 16.624 18.7339 16.752C18.4032 16.88 18.1099 17.0614 17.8539 17.296C17.5979 17.5307 17.3899 17.824 17.2299 18.176C17.0805 18.528 17.0059 18.9227 17.0059 19.36C17.0059 19.808 17.0805 20.208 17.2299 20.56C17.3899 20.912 17.5979 21.2107 17.8539 21.456C18.1099 21.6907 18.4032 21.872 18.7339 22ZM20.6059 20.384C20.4245 20.6614 20.1525 20.8 19.7899 20.8C19.4272 20.8 19.1499 20.6614 18.9579 20.384C18.7765 20.1067 18.6859 19.7654 18.6859 19.36C18.6859 18.9654 18.7765 18.6294 18.9579 18.352C19.1499 18.0747 19.4272 17.936 19.7899 17.936C20.1525 17.936 20.4245 18.0747 20.6059 18.352C20.7979 18.6294 20.8939 18.9654 20.8939 19.36C20.8939 19.7654 20.7979 20.1067 20.6059 20.384Z"
        ></path>
    </mask>
    <path
            fill-rule="evenodd"
            clip-rule="evenodd"
            d="M6 0C2.68629 0 0 2.68629 0 6V26C0 29.3137 2.68629 32 6 32H26C29.3137 32 32 29.3137 32 26V6C32 2.68629 29.3137 0 26 0H6ZM11.9387 20.7538C11.5676 21.2764 11.9413 22 12.5823 22C12.838 22 13.0778 21.8762 13.2258 21.6677L20.0571 12.0463C20.4281 11.5236 20.0544 10.8 19.4135 10.8C19.1578 10.8 18.9179 10.9239 18.7699 11.1324L11.9387 20.7538ZM11.1499 16.064C11.4912 16.1814 11.8432 16.24 12.2059 16.24C12.5685 16.24 12.9152 16.176 13.2459 16.048C13.5765 15.92 13.8699 15.7387 14.1259 15.504C14.3819 15.2694 14.5845 14.976 14.7339 14.624C14.8939 14.272 14.9739 13.872 14.9739 13.424C14.9739 12.976 14.8939 12.5814 14.7339 12.24C14.5845 11.888 14.3819 11.5947 14.1259 11.36C13.8805 11.1147 13.5872 10.9334 13.2459 10.816C12.9152 10.688 12.5685 10.624 12.2059 10.624C11.8432 10.624 11.4912 10.688 11.1499 10.816C10.8192 10.944 10.5259 11.1254 10.2699 11.36C10.0139 11.5947 9.80587 11.888 9.64587 12.24C9.49654 12.592 9.42188 12.9867 9.42188 13.424C9.42188 13.872 9.49654 14.272 9.64587 14.624C9.80587 14.976 10.0139 15.2747 10.2699 15.52C10.5259 15.7547 10.8192 15.936 11.1499 16.064ZM13.0219 14.448C12.8405 14.7254 12.5685 14.864 12.2059 14.864C11.8432 14.864 11.5659 14.7254 11.3739 14.448C11.1925 14.1707 11.1019 13.8294 11.1019 13.424C11.1019 13.0294 11.1925 12.6934 11.3739 12.416C11.5659 12.1387 11.8432 12 12.2059 12C12.5685 12 12.8405 12.1387 13.0219 12.416C13.2139 12.6934 13.3099 13.0294 13.3099 13.424C13.3099 13.8294 13.2139 14.1707 13.0219 14.448ZM18.7339 22C19.0752 22.1174 19.4272 22.176 19.7899 22.176C20.1525 22.176 20.4992 22.112 20.8299 21.984C21.1605 21.856 21.4539 21.6747 21.7099 21.44C21.9659 21.2054 22.1685 20.912 22.3179 20.56C22.4779 20.208 22.5579 19.808 22.5579 19.36C22.5579 18.912 22.4779 18.5174 22.3179 18.176C22.1685 17.824 21.9659 17.5307 21.7099 17.296C21.4645 17.0507 21.1712 16.8694 20.8299 16.752C20.4992 16.624 20.1525 16.56 19.7899 16.56C19.4272 16.56 19.0752 16.624 18.7339 16.752C18.4032 16.88 18.1099 17.0614 17.8539 17.296C17.5979 17.5307 17.3899 17.824 17.2299 18.176C17.0805 18.528 17.0059 18.9227 17.0059 19.36C17.0059 19.808 17.0805 20.208 17.2299 20.56C17.3899 20.912 17.5979 21.2107 17.8539 21.456C18.1099 21.6907 18.4032 21.872 18.7339 22ZM20.6059 20.384C20.4245 20.6614 20.1525 20.8 19.7899 20.8C19.4272 20.8 19.1499 20.6614 18.9579 20.384C18.7765 20.1067 18.6859 19.7654 18.6859 19.36C18.6859 18.9654 18.7765 18.6294 18.9579 18.352C19.1499 18.0747 19.4272 17.936 19.7899 17.936C20.1525 17.936 20.4245 18.0747 20.6059 18.352C20.7979 18.6294 20.8939 18.9654 20.8939 19.36C20.8939 19.7654 20.7979 20.1067 20.6059 20.384Z"
            fill="#5E5E6B"
    ></path>
    <path
            d="M11.9387 20.7538L12.7541 21.3327L11.9387 20.7538ZM13.2258 21.6677L14.0412 22.2466L14.0412 22.2466L13.2258 21.6677ZM20.0571 12.0463L20.8724 12.6252L20.0571 12.0463ZM18.7699 11.1324L17.9545 10.5535L17.9545 10.5535L18.7699 11.1324ZM11.1499 16.064L10.7889 16.9966L10.8067 17.0035L10.8248 17.0097L11.1499 16.064ZM13.2459 16.048L12.8849 15.1155L12.8849 15.1155L13.2459 16.048ZM14.7339 14.624L13.8235 14.2102L13.8183 14.2218L13.8133 14.2335L14.7339 14.624ZM14.7339 12.24L13.8133 12.6306L13.8205 12.6477L13.8284 12.6645L14.7339 12.24ZM14.1259 11.36L13.4188 12.0671L13.4341 12.0825L13.4501 12.0972L14.1259 11.36ZM13.2459 10.816L12.8849 11.7486L12.9027 11.7555L12.9208 11.7617L13.2459 10.816ZM11.1499 10.816L10.7987 9.87964L10.7889 9.88345L11.1499 10.816ZM10.2699 11.36L9.59415 10.6229L9.59415 10.6229L10.2699 11.36ZM9.64587 12.24L8.73551 11.8262L8.73025 11.8378L8.72529 11.8495L9.64587 12.24ZM9.64587 14.624L8.72529 15.0146L8.73025 15.0263L8.73551 15.0378L9.64587 14.624ZM10.2699 15.52L9.57797 16.242L9.58597 16.2497L9.59415 16.2572L10.2699 15.52ZM13.0219 14.448L12.1997 13.8788L12.1921 13.8897L12.1849 13.9008L13.0219 14.448ZM11.3739 14.448L10.5369 14.9953L10.5441 15.0064L10.5517 15.0172L11.3739 14.448ZM11.3739 12.416L10.5517 11.8468L10.5441 11.8577L10.5369 11.8688L11.3739 12.416ZM13.0219 12.416L12.1849 12.9633L12.1921 12.9744L12.1997 12.9852L13.0219 12.416ZM18.7339 22L18.3729 22.9326L18.3907 22.9395L18.4088 22.9457L18.7339 22ZM20.8299 21.984L21.1909 22.9166H21.1909L20.8299 21.984ZM22.3179 20.56L21.4075 20.1462L21.4023 20.1578L21.3973 20.1695L22.3179 20.56ZM22.3179 18.176L21.3973 18.5666L21.4045 18.5837L21.4124 18.6005L22.3179 18.176ZM21.7099 17.296L21.0028 18.0031L21.0181 18.0185L21.0342 18.0332L21.7099 17.296ZM20.8299 16.752L20.4689 17.6846L20.4867 17.6915L20.5048 17.6977L20.8299 16.752ZM18.7339 16.752L18.3827 15.8156L18.3729 15.8195L18.7339 16.752ZM17.8539 17.296L18.5296 18.0332L18.5296 18.0332L17.8539 17.296ZM17.2299 18.176L16.3195 17.7622L16.3143 17.7738L16.3093 17.7855L17.2299 18.176ZM17.2299 20.56L16.3093 20.9506L16.3143 20.9623L16.3195 20.9738L17.2299 20.56ZM17.8539 21.456L17.162 22.178L17.17 22.1857L17.1782 22.1932L17.8539 21.456ZM20.6059 20.384L19.7837 19.8148L19.7761 19.8257L19.7689 19.8368L20.6059 20.384ZM18.9579 20.384L18.1209 20.9313L18.1281 20.9424L18.1357 20.9532L18.9579 20.384ZM18.9579 18.352L18.1357 17.7828L18.1281 17.7937L18.1209 17.8048L18.9579 18.352ZM20.6059 18.352L19.7689 18.8993L19.7761 18.9104L19.7837 18.9212L20.6059 18.352ZM1 6C1 3.23858 3.23858 1 6 1V-1C2.13401 -1 -1 2.13401 -1 6H1ZM1 26V6H-1V26H1ZM6 31C3.23858 31 1 28.7614 1 26H-1C-1 29.866 2.13401 33 6 33V31ZM26 31H6V33H26V31ZM31 26C31 28.7614 28.7614 31 26 31V33C29.866 33 33 29.866 33 26H31ZM31 6V26H33V6H31ZM26 1C28.7614 1 31 3.23858 31 6H33C33 2.13401 29.866 -1 26 -1V1ZM6 1H26V-1H6V1ZM12.5823 21C12.7534 21 12.8531 21.1932 12.7541 21.3327L11.1233 20.1749C10.2821 21.3597 11.1292 23 12.5823 23V21ZM12.4105 21.0887C12.45 21.0331 12.514 21 12.5823 21V23C13.1619 23 13.7057 22.7192 14.0412 22.2466L12.4105 21.0887ZM19.2417 11.4673L12.4105 21.0887L14.0412 22.2466L20.8724 12.6252L19.2417 11.4673ZM19.4135 11.8C19.2424 11.8 19.1426 11.6068 19.2417 11.4673L20.8724 12.6252C21.7136 11.4404 20.8665 9.80002 19.4135 9.80002V11.8ZM19.5853 11.7113C19.5458 11.767 19.4817 11.8 19.4135 11.8V9.80002C18.8338 9.80002 18.2901 10.0808 17.9545 10.5535L19.5853 11.7113ZM12.7541 21.3327L19.5853 11.7113L17.9545 10.5535L11.1233 20.1749L12.7541 21.3327ZM12.2059 15.24C11.9533 15.24 11.7112 15.1995 11.475 15.1183L10.8248 17.0097C11.2712 17.1632 11.7331 17.24 12.2059 17.24V15.24ZM12.8849 15.1155C12.672 15.1979 12.448 15.24 12.2059 15.24V17.24C12.6891 17.24 13.1584 17.1542 13.6069 16.9806L12.8849 15.1155ZM13.4501 14.7669C13.2879 14.9156 13.1019 15.0315 12.8849 15.1155L13.6069 16.9806C14.0512 16.8086 14.4518 16.5618 14.8016 16.2412L13.4501 14.7669ZM13.8133 14.2335C13.7141 14.4672 13.5904 14.6383 13.4501 14.7669L14.8016 16.2412C15.1733 15.9004 15.4549 15.4849 15.6545 15.0146L13.8133 14.2335ZM13.9739 13.424C13.9739 13.7518 13.9158 14.0072 13.8235 14.2102L15.6442 15.0378C15.872 14.5368 15.9739 13.9923 15.9739 13.424H13.9739ZM13.8284 12.6645C13.9155 12.8503 13.9739 13.0954 13.9739 13.424H15.9739C15.9739 12.8566 15.8722 12.3124 15.6393 11.8156L13.8284 12.6645ZM13.4501 12.0972C13.5904 12.2258 13.7141 12.3969 13.8133 12.6306L15.6545 11.8495C15.4549 11.3792 15.1733 10.9636 14.8016 10.6229L13.4501 12.0972ZM12.9208 11.7617C13.1243 11.8317 13.2854 11.9337 13.4188 12.0671L14.833 10.6529C14.4757 10.2957 14.0501 10.0351 13.571 9.87034L12.9208 11.7617ZM12.2059 11.624C12.448 11.624 12.672 11.6662 12.8849 11.7486L13.6069 9.88345C13.1584 9.70986 12.6891 9.62402 12.2059 9.62402V11.624ZM11.501 11.7524C11.7306 11.6662 11.9638 11.624 12.2059 11.624V9.62402C11.7227 9.62402 11.2518 9.70981 10.7988 9.87969L11.501 11.7524ZM10.9456 12.0972C11.1078 11.9485 11.2939 11.8326 11.5109 11.7486L10.7889 9.88345C10.3445 10.0555 9.94392 10.3022 9.59415 10.6229L10.9456 12.0972ZM10.5562 12.6538C10.6669 12.4104 10.7994 12.2312 10.9456 12.0972L9.59415 10.6229C9.22831 10.9582 8.94485 11.3657 8.73551 11.8262L10.5562 12.6538ZM10.4219 13.424C10.4219 13.1017 10.4765 12.8425 10.5665 12.6306L8.72529 11.8495C8.51655 12.3415 8.42188 12.8717 8.42188 13.424H10.4219ZM10.5665 14.2335C10.4777 14.0243 10.4219 13.7606 10.4219 13.424H8.42188C8.42188 13.9835 8.51535 14.5197 8.72529 15.0146L10.5665 14.2335ZM10.9618 14.798C10.8055 14.6483 10.6684 14.4571 10.5562 14.2102L8.73551 15.0378C8.94331 15.495 9.22225 15.9011 9.57797 16.242L10.9618 14.798ZM11.5109 15.1315C11.2939 15.0475 11.1078 14.9316 10.9456 14.7829L9.59415 16.2572C9.94392 16.5778 10.3445 16.8246 10.7889 16.9966L11.5109 15.1315ZM12.2059 15.864C12.8682 15.864 13.473 15.5854 13.8588 14.9953L12.1849 13.9008C12.1816 13.9058 12.1836 13.9016 12.1928 13.8932C12.2022 13.8845 12.2145 13.8759 12.2277 13.8691C12.2406 13.8625 12.2485 13.8608 12.2474 13.8611C12.2458 13.8614 12.233 13.864 12.2059 13.864V15.864ZM10.5517 15.0172C10.9464 15.5874 11.5441 15.864 12.2059 15.864V13.864C12.1789 13.864 12.1651 13.8614 12.1616 13.8607C12.1599 13.8603 12.1604 13.8603 12.1627 13.8611C12.1651 13.862 12.1687 13.8634 12.1731 13.8656C12.1775 13.8678 12.1821 13.8705 12.1865 13.8735C12.191 13.8765 12.1945 13.8793 12.1972 13.8817C12.2028 13.8867 12.2019 13.8872 12.1961 13.8788L10.5517 15.0172ZM10.1019 13.424C10.1019 13.9801 10.2276 14.5222 10.5369 14.9953L12.2108 13.9008C12.1575 13.8192 12.1019 13.6787 12.1019 13.424H10.1019ZM10.5369 11.8688C10.2303 12.3377 10.1019 12.8727 10.1019 13.424H12.1019C12.1019 13.186 12.1548 13.049 12.2108 12.9633L10.5369 11.8688ZM12.2059 11C11.5441 11 10.9464 11.2766 10.5517 11.8468L12.1961 12.9852C12.2019 12.9768 12.2028 12.9774 12.1972 12.9824C12.1945 12.9847 12.1909 12.9876 12.1865 12.9906C12.1821 12.9936 12.1775 12.9962 12.1731 12.9985C12.1687 13.0007 12.1651 13.0021 12.1627 13.0029C12.1604 13.0037 12.1599 13.0037 12.1616 13.0033C12.1651 13.0026 12.1789 13 12.2059 13V11ZM13.8588 11.8688C13.473 11.2787 12.8682 11 12.2059 11V13C12.233 13 12.2458 13.0026 12.2474 13.003C12.2485 13.0032 12.2406 13.0015 12.2277 12.9949C12.2145 12.9882 12.2022 12.9795 12.1928 12.9708C12.1836 12.9624 12.1816 12.9582 12.1849 12.9633L13.8588 11.8688ZM14.3099 13.424C14.3099 12.8615 14.1705 12.3184 13.8441 11.8468L12.1997 12.9852C12.2572 13.0683 12.3099 13.1972 12.3099 13.424H14.3099ZM13.8441 15.0172C14.1735 14.5413 14.3099 13.991 14.3099 13.424H12.3099C12.3099 13.6677 12.2542 13.8001 12.1997 13.8788L13.8441 15.0172ZM19.7899 21.176C19.5373 21.176 19.2952 21.1355 19.059 21.0543L18.4088 22.9457C18.8552 23.0992 19.3171 23.176 19.7899 23.176V21.176ZM20.4689 21.0515C20.256 21.1339 20.032 21.176 19.7899 21.176V23.176C20.2731 23.176 20.7424 23.0902 21.1909 22.9166L20.4689 21.0515ZM21.0342 20.7029C20.8719 20.8516 20.6859 20.9675 20.4689 21.0515L21.1909 22.9166C21.6352 22.7446 22.0358 22.4978 22.3856 22.1772L21.0342 20.7029ZM21.3973 20.1695C21.2981 20.4032 21.1744 20.5743 21.0342 20.7029L22.3856 22.1772C22.7573 21.8364 23.0389 21.4209 23.2385 20.9506L21.3973 20.1695ZM21.5579 19.36C21.5579 19.6878 21.4998 19.9432 21.4075 20.1462L23.2282 20.9738C23.456 20.4728 23.5579 19.9283 23.5579 19.36H21.5579ZM21.4124 18.6005C21.4995 18.7863 21.5579 19.0314 21.5579 19.36H23.5579C23.5579 18.7926 23.4562 18.2484 23.2233 17.7516L21.4124 18.6005ZM21.0342 18.0332C21.1744 18.1618 21.2981 18.3329 21.3973 18.5666L23.2385 17.7855C23.0389 17.3152 22.7573 16.8996 22.3856 16.5589L21.0342 18.0332ZM20.5048 17.6977C20.7083 17.7677 20.8694 17.8697 21.0028 18.0031L22.417 16.5889C22.0597 16.2317 21.6341 15.9711 21.155 15.8063L20.5048 17.6977ZM19.7899 17.56C20.032 17.56 20.256 17.6022 20.4689 17.6846L21.1909 15.8195C20.7424 15.6459 20.2731 15.56 19.7899 15.56V17.56ZM19.085 17.6884C19.3146 17.6022 19.5478 17.56 19.7899 17.56V15.56C19.3067 15.56 18.8358 15.6458 18.3828 15.8157L19.085 17.6884ZM18.5296 18.0332C18.6918 17.8845 18.8779 17.7686 19.0949 17.6846L18.3729 15.8195C17.9285 15.9915 17.5279 16.2382 17.1781 16.5589L18.5296 18.0332ZM18.1402 18.5898C18.2509 18.3464 18.3834 18.1672 18.5296 18.0332L17.1782 16.5589C16.8123 16.8942 16.5289 17.3017 16.3195 17.7622L18.1402 18.5898ZM18.0059 19.36C18.0059 19.0377 18.0605 18.7785 18.1505 18.5666L16.3093 17.7855C16.1005 18.2775 16.0059 18.8077 16.0059 19.36H18.0059ZM18.1505 20.1695C18.0617 19.9603 18.0059 19.6966 18.0059 19.36H16.0059C16.0059 19.9195 16.0993 20.4557 16.3093 20.9506L18.1505 20.1695ZM18.5458 20.734C18.3895 20.5843 18.2524 20.3931 18.1402 20.1462L16.3195 20.9738C16.5273 21.431 16.8062 21.8371 17.162 22.178L18.5458 20.734ZM19.0949 21.0675C18.8779 20.9835 18.6918 20.8676 18.5296 20.7189L17.1782 22.1932C17.5279 22.5138 17.9285 22.7606 18.3729 22.9326L19.0949 21.0675ZM19.7899 21.8C20.4522 21.8 21.057 21.5214 21.4428 20.9313L19.7689 19.8368C19.7656 19.8418 19.7676 19.8376 19.7768 19.8292C19.7862 19.8205 19.7985 19.8119 19.8117 19.8051C19.8246 19.7985 19.8325 19.7968 19.8314 19.7971C19.8298 19.7974 19.817 19.8 19.7899 19.8V21.8ZM18.1357 20.9532C18.5304 21.5234 19.1281 21.8 19.7899 21.8V19.8C19.7629 19.8 19.7491 19.7974 19.7456 19.7967C19.7439 19.7963 19.7444 19.7963 19.7467 19.7971C19.7491 19.798 19.7527 19.7994 19.7571 19.8016C19.7615 19.8038 19.7661 19.8065 19.7705 19.8095C19.775 19.8125 19.7785 19.8153 19.7812 19.8177C19.7868 19.8227 19.7859 19.8232 19.7801 19.8148L18.1357 20.9532ZM17.6859 19.36C17.6859 19.9161 17.8116 20.4582 18.1209 20.9313L19.7948 19.8368C19.7415 19.7552 19.6859 19.6147 19.6859 19.36H17.6859ZM18.1209 17.8048C17.8143 18.2737 17.6859 18.8087 17.6859 19.36H19.6859C19.6859 19.122 19.7388 18.985 19.7948 18.8993L18.1209 17.8048ZM19.7899 16.936C19.1281 16.936 18.5304 17.2126 18.1357 17.7828L19.7801 18.9212C19.7859 18.9128 19.7868 18.9134 19.7812 18.9184C19.7785 18.9207 19.775 18.9236 19.7705 18.9266C19.7661 18.9296 19.7615 18.9322 19.7571 18.9345C19.7527 18.9367 19.7491 18.9381 19.7467 18.9389C19.7444 18.9397 19.7439 18.9397 19.7456 18.9393C19.7491 18.9386 19.7629 18.936 19.7899 18.936V16.936ZM21.4428 17.8048C21.057 17.2147 20.4522 16.936 19.7899 16.936V18.936C19.817 18.936 19.8298 18.9386 19.8314 18.939C19.8325 18.9392 19.8246 18.9375 19.8117 18.9309C19.7985 18.9242 19.7862 18.9155 19.7768 18.9068C19.7676 18.8984 19.7656 18.8942 19.7689 18.8993L21.4428 17.8048ZM21.8939 19.36C21.8939 18.7975 21.7545 18.2544 21.4281 17.7828L19.7837 18.9212C19.8412 19.0043 19.8939 19.1332 19.8939 19.36H21.8939ZM21.4281 20.9532C21.7575 20.4773 21.8939 19.927 21.8939 19.36H19.8939C19.8939 19.6037 19.8382 19.7361 19.7837 19.8148L21.4281 20.9532Z"
            fill="black"
            fill-opacity="0.1"
            mask="url(#path-1-inside-1_1958_21984)"
    ></path>
</svg>
