<svg xmlns="http://www.w3.org/2000/svg" width="32" height="33" fill="none">
    <path fill="#2CA01C" d="M15.906 32.66c8.76 0 15.86-7.1 15.86-15.86 0-8.758-7.1-15.859-15.86-15.859C7.147.941.046 8.042.046 16.801s7.101 15.86 15.86 15.86Z"></path>
    <path fill="#fff" d="M4.457 16.8a6.168 6.168 0 0 0 6.168 6.167h.88v-2.29h-.88a3.877 3.877 0 1 1 0-7.754h2.114v11.983a2.291 2.291 0 0 0 2.291 2.29V10.632h-4.405A6.167 6.167 0 0 0 4.457 16.8Zm16.74-6.168h-.88v2.29h.88a3.877 3.877 0 1 1 0 7.754h-2.114V8.694a2.29 2.29 0 0 0-2.29-2.291v16.564h4.405a6.168 6.168 0 0 0 0-12.335Z"></path>
</svg>
