<svg xmlns="http://www.w3.org/2000/svg" width="34" height="34" fill="none">
    <g clip-path="url(#google-big-query_svg__a)">
        <path fill="#4386FA" d="m7.635 30.722-7.25-12.56a2.168 2.168 0 0 1 0-2.168l7.25-12.559A2.168 2.168 0 0 1 9.51 2.351h14.51c.77.003 1.481.416 1.867 1.084l7.25 12.559c.387.67.387 1.498 0 2.169l-7.252 12.559a2.168 2.168 0 0 1-1.875 1.084H9.505a2.17 2.17 0 0 1-1.871-1.084h.001Z"></path>
        <path fill="#000" d="M21.273 13.012s2.015 4.835-.732 7.575c-2.748 2.74-7.752.987-7.752.987L22.967 31.78h1.034a2.168 2.168 0 0 0 1.874-1.084l4.8-8.312-9.402-9.372Z" opacity="0.1"></path>
        <path fill="#fff" d="m23.654 22.917-2.222-2.228a.35.35 0 0 0-.082-.062 6.057 6.057 0 1 0-1.059 1.06.348.348 0 0 0 .06.079l2.227 2.228a.349.349 0 0 0 .493 0l.583-.584a.349.349 0 0 0 0-.493Zm-7.097-1.44a4.557 4.557 0 1 1 0-9.115 4.557 4.557 0 0 1 0 9.114Zm-2.913-4.8v1.883c.29.512.71.939 1.218 1.237v-3.132l-1.218.011Zm2.279-1.562v5.09c.402.074.815.074 1.217 0v-5.09h-1.217Zm3.523 3.44V17.44h-1.217v2.344a3.348 3.348 0 0 0 1.218-1.234l-.001.005Z"></path>
    </g>
    <defs>
        <clipPath id="google-big-query_svg__a">
            <path fill="#fff" d="M.094.397h33.333V33.73H.094z"></path>
        </clipPath>
    </defs>
</svg>
