<svg width="166" height="32" viewBox="0 0 166 32" fill="none" xmlns="http://www.w3.org/2000/svg">
    <g clip-path="url(#clip0_1886_7855)">
        <path d="M165.182 24.276C165.182 23.9607 164.867 23.8346 164.583 23.8346H164.048V25.411H164.332V24.7805H164.552L164.898 25.411H165.245L164.835 24.7174C164.933 24.7022 165.021 24.6524 165.085 24.5772C165.148 24.5019 165.183 24.4062 165.182 24.3075V24.276ZM164.332 24.5282V24.0869H164.583C164.741 24.0869 164.898 24.1184 164.898 24.3075C164.898 24.4967 164.709 24.5282 164.552 24.5282H164.332ZM164.583 23.2672C164.31 23.2735 164.044 23.3609 163.819 23.5185C163.595 23.6761 163.423 23.8968 163.324 24.1525C163.224 24.4083 163.203 24.6878 163.263 24.9555C163.323 25.2233 163.46 25.4674 163.658 25.6569C163.856 25.8464 164.106 25.9729 164.376 26.0203C164.646 26.0677 164.924 26.0339 165.174 25.9233C165.425 25.8126 165.637 25.63 165.784 25.3985C165.931 25.167 166.007 24.8971 166 24.6228C166 24.438 165.964 24.255 165.892 24.0846C165.82 23.9142 165.715 23.7598 165.583 23.6306C165.451 23.5014 165.295 23.3999 165.123 23.332C164.952 23.2642 164.768 23.2314 164.583 23.2356V23.2672ZM164.583 25.7893C164.345 25.7892 164.113 25.7181 163.916 25.585C163.718 25.4519 163.565 25.2629 163.475 25.0422C163.386 24.8214 163.364 24.5789 163.413 24.3457C163.462 24.1125 163.579 23.8992 163.749 23.7329C163.92 23.5667 164.136 23.4552 164.37 23.4126C164.604 23.37 164.846 23.3982 165.064 23.4938C165.282 23.5893 165.466 23.7477 165.594 23.9489C165.721 24.15 165.786 24.3846 165.78 24.6228C165.78 24.9406 165.654 25.2453 165.429 25.4699C165.205 25.6946 164.901 25.8208 164.583 25.8208V25.7893ZM74.5303 23.4878C72.4837 23.4878 71.4446 21.6277 71.4446 19.8622C71.4446 18.0967 72.5781 16.3312 74.4358 16.3312C75.3175 16.3312 76.4195 16.7726 76.8604 17.4031L79.0015 15.2277C78.3967 14.6433 77.6811 14.1859 76.897 13.8827C76.1129 13.5795 75.276 13.4365 74.4358 13.4622C70.6574 13.4622 67.918 16.1736 67.918 19.8938C67.918 23.677 70.6259 26.3568 74.5303 26.3568C76.3566 26.3568 78.0569 25.8208 79.0645 24.7174L76.9548 22.4474C76.6414 22.7752 76.2651 23.0363 75.8485 23.2151C75.4319 23.3939 74.9836 23.4866 74.5303 23.4878ZM62.4078 26.01H65.8084V13.809H62.4393L62.4078 26.01ZM56.2678 20.4928C56.2678 21.9115 55.3232 23.4563 53.6229 23.4563C52.2689 23.4563 51.5447 22.5105 51.5447 20.5243V13.8405H48.1756V21.4071C48.1756 23.9292 49.4351 26.3883 52.8042 26.3883C54.3786 26.3883 55.701 25.1272 56.3623 24.1814H56.4252V26.0415H59.6369V13.809H56.2678V20.4928ZM42.0986 15.3538H42.0356C41.5633 14.8179 40.2723 13.4622 38.1942 13.4622C34.7621 13.4622 32.1172 16.142 32.1172 19.8622C32.1172 23.6455 34.5732 26.3568 38.0368 26.3568C38.7776 26.334 39.5059 26.1601 40.1773 25.8456C40.8486 25.5312 41.4488 25.083 41.9412 24.5282H42.0041V32.0002H45.3418V13.809H42.1301L42.0986 15.3538ZM38.8554 23.4878C36.7773 23.4878 35.5808 21.6593 35.5808 19.8622C35.5808 18.1282 36.6513 16.2997 38.8554 16.2997C40.8391 16.2997 42.0671 18.1913 42.0671 19.8938C42.0671 21.5962 40.8706 23.4878 38.8554 23.4878ZM115.464 13.4622C111.654 13.4622 108.851 16.142 108.851 19.8622C108.851 23.7085 111.685 26.3883 115.464 26.3883C119.242 26.3883 122.076 23.677 122.076 19.8622C122.076 16.142 119.305 13.4622 115.464 13.4622ZM115.464 23.4878C113.259 23.4878 112.283 21.5962 112.283 19.8622C112.283 18.1282 113.291 16.2997 115.464 16.2997C117.636 16.2997 118.707 18.1282 118.707 19.8622C118.707 21.5962 117.699 23.4878 115.495 23.4878H115.464ZM157.53 18.5066C155.799 18.0967 155.169 17.876 155.169 17.1509C155.169 16.2051 156.428 15.9844 156.964 15.9844C158.003 15.9844 159.168 16.6149 159.64 17.1824L161.624 15.2908C160.679 14.1558 158.884 13.4938 156.995 13.4938C154.539 13.4938 151.989 14.7233 151.989 17.4346C151.989 19.7992 153.846 20.4928 155.641 20.9341C157.53 21.3755 158.223 21.6908 158.223 22.479C158.223 23.5824 156.964 23.7716 156.491 23.7716C155.912 23.7447 155.343 23.6026 154.819 23.3536C154.294 23.1046 153.825 22.7537 153.437 22.3213L151.39 24.4021C152.492 25.6632 154.413 26.3883 156.365 26.3883C159.671 26.3883 161.624 24.812 161.624 22.2268C161.624 19.7676 159.231 18.9164 157.53 18.5066ZM151.138 13.809H146.793L142.448 18.8534H142.385V7.09375H139.016V26.01H142.385V20.0199H142.448L146.951 26.01H151.359L146.132 19.3578L151.138 13.809ZM101.263 13.4938C99.6885 13.4938 98.5865 14.1243 97.4844 15.1332H97.4529V7.09375H94.0838V26.01H97.2955V24.276H97.3585C97.7728 24.9083 98.3383 25.4269 99.0037 25.7848C99.669 26.1427 100.413 26.3285 101.168 26.3253C104.632 26.3253 107.277 23.6139 107.277 19.8622C107.277 16.142 104.695 13.4622 101.263 13.4622V13.4938ZM100.602 23.4878C98.555 23.4878 97.3585 21.6593 97.3585 19.8938C97.3585 18.1282 98.6179 16.2997 100.602 16.2997C102.774 16.2997 103.845 18.1282 103.845 19.8622C103.845 21.6593 102.68 23.4878 100.602 23.4878ZM92.8243 13.809H88.4791L84.1339 18.8534H84.0709V7.09375H80.7018V26.01H84.0709V20.0199H84.1339L88.6365 26.01H93.0447L87.8494 19.3578L92.8243 13.809ZM130.231 13.4938C126.39 13.4938 123.619 16.1736 123.619 19.8622C123.619 23.7085 126.453 26.3883 130.231 26.3883C134.009 26.3883 136.843 23.677 136.843 19.8622C136.843 16.142 134.041 13.4622 130.231 13.4622V13.4938ZM130.231 23.4878C128.027 23.4878 127.019 21.5962 127.019 19.8622C127.019 18.1282 128.027 16.2997 130.231 16.2997C132.435 16.2997 133.411 18.1282 133.411 19.8622C133.411 21.5962 132.404 23.4878 130.231 23.4878Z" fill="black"></path>
        <path d="M14.1692 28.3744C21.9946 28.3744 28.3384 22.0226 28.3384 14.1872C28.3384 6.35182 21.9946 0 14.1692 0C6.34376 0 0 6.35182 0 14.1872C0 22.0226 6.34376 28.3744 14.1692 28.3744Z" fill="#2CA01C"></path>
        <path d="M3.9375 14.1872C3.9375 15.6505 4.51804 17.0538 5.55141 18.0885C6.58478 19.1232 7.98634 19.7045 9.44774 19.7045H10.2349V17.6552H9.44774C8.52914 17.6552 7.64817 17.2898 6.99862 16.6394C6.34907 15.9891 5.98416 15.107 5.98416 14.1872C5.98416 13.2674 6.34907 12.3854 6.99862 11.735C7.64817 11.0846 8.52914 10.7192 9.44774 10.7192H11.337V21.4384C11.337 21.7076 11.3899 21.974 11.4928 22.2227C11.5956 22.4713 11.7464 22.6972 11.9364 22.8875C12.1265 23.0778 12.3521 23.2287 12.6004 23.3317C12.8487 23.4347 13.1149 23.4877 13.3836 23.4877V8.66997H9.44774C7.98634 8.66997 6.58478 9.25125 5.55141 10.2859C4.51804 11.3206 3.9375 12.7239 3.9375 14.1872ZM18.8939 8.66997H18.1067V10.7192H18.8939C19.8125 10.7192 20.6934 11.0846 21.343 11.735C21.9925 12.3854 22.3575 13.2674 22.3575 14.1872C22.3575 15.107 21.9925 15.9891 21.343 16.6394C20.6934 17.2898 19.8125 17.6552 18.8939 17.6552H17.0046V6.93598C17.0046 6.39248 16.789 5.87124 16.4052 5.48693C16.0214 5.10262 15.5008 4.88672 14.958 4.88672V19.7045H18.8939C19.6175 19.7045 20.334 19.5617 21.0026 19.2845C21.6711 19.0072 22.2785 18.6008 22.7902 18.0885C23.3019 17.5762 23.7078 16.968 23.9847 16.2986C24.2616 15.6292 24.4041 14.9117 24.4041 14.1872C24.4041 13.4627 24.2616 12.7452 23.9847 12.0759C23.7078 11.4065 23.3019 10.7983 22.7902 10.2859C22.2785 9.77361 21.6711 9.36721 21.0026 9.08995C20.334 8.81268 19.6175 8.66997 18.8939 8.66997Z" fill="white"></path>
        <path d="M45.9702 3.24737C46.157 3.24737 46.3396 3.1919 46.495 3.08797C46.6503 2.98405 46.7714 2.83633 46.8429 2.66351C46.9144 2.49068 46.9331 2.30051 46.8966 2.11704C46.8602 1.93357 46.7702 1.76504 46.6381 1.63277C46.506 1.50049 46.3377 1.41041 46.1545 1.37392C45.9712 1.33743 45.7813 1.35616 45.6087 1.42774C45.4361 1.49933 45.2886 1.62056 45.1848 1.77609C45.081 1.93163 45.0256 2.1145 45.0256 2.30156C45.0256 2.5524 45.1251 2.79298 45.3022 2.97035C45.4794 3.14772 45.7197 3.24737 45.9702 3.24737ZM40.397 3.87791C40.0049 3.87738 39.6205 3.98624 39.2868 4.19229C38.9531 4.39833 38.6833 4.69341 38.5077 5.04442H38.4448V4.03555H36.9964V10.2464H38.5392V6.84146C38.5392 6.02176 39.0115 5.17052 39.9876 5.17052C40.9637 5.17052 41.1527 6.08481 41.1527 6.80993V10.2779H42.6955V6.33703C42.6955 5.07594 42.0343 3.81486 40.397 3.81486V3.87791ZM33.8477 10.2464H35.422V4.03555H33.8477V10.2464ZM62.0286 3.21584C62.2154 3.21584 62.3981 3.16037 62.5534 3.05645C62.7087 2.95252 62.8298 2.8048 62.9013 2.63198C62.9728 2.45915 62.9915 2.26898 62.9551 2.08551C62.9186 1.90204 62.8287 1.73352 62.6965 1.60124C62.5644 1.46897 62.3961 1.37889 62.2129 1.34239C62.0297 1.3059 61.8397 1.32463 61.6671 1.39621C61.4945 1.4678 61.347 1.58903 61.2432 1.74457C61.1394 1.9001 61.084 2.08297 61.084 2.27003C61.084 2.52088 61.1835 2.76145 61.3607 2.93882C61.5378 3.1162 61.7781 3.21584 62.0286 3.21584ZM59.5096 4.03555V5.42274H61.2414V10.2464H62.8158V5.42274H64.5476V4.03555H59.5096ZM56.8647 10.2464H58.4391V4.03555H56.8647V10.2464ZM43.4827 5.42274H45.2145V10.2464H46.7889V5.42274H48.5206V4.03555H43.4827V5.42274ZM53.7475 7.472C53.7475 8.29171 53.2752 9.14294 52.2991 9.14294C51.323 9.14294 51.1341 8.19713 51.1341 7.472V4.03555H49.5597V7.91338C49.5597 9.17447 50.2524 10.4355 51.8583 10.4355C52.2557 10.442 52.6468 10.3359 52.9866 10.1296C53.3264 9.92318 53.6011 9.62489 53.779 9.26905H53.8105V10.2779H55.2904V4.03555H53.716V7.44048L53.7475 7.472Z" fill="black"></path>
    </g>
    <defs>
        <clipPath id="clip0_1886_7855">
            <rect width="166" height="32" fill="white"></rect>
        </clipPath>
    </defs>
</svg>
