<svg viewBox="0 0 38 36" fill="none" xmlns="http://www.w3.org/2000/svg">
    <g filter="url(#filter0_d_2318_10336)">
        <path
                d="M3 14C3 12.8954 3.89543 12 5 12H11.382C12.1253 12 12.6088 12.7823 12.2764 13.4472L11.2764 15.4472C11.107 15.786 10.7607 16 10.382 16H5C3.89543 16 3 15.1046 3 14V14Z"
                fill="#B9BAC0"
        ></path>
        <path
                d="M5 12.5H11.382C11.7537 12.5 11.9954 12.8912 11.8292 13.2236L10.8292 15.2236C10.7445 15.393 10.5714 15.5 10.382 15.5H5C4.17157 15.5 3.5 14.8284 3.5 14C3.5 13.1716 4.17157 12.5 5 12.5Z"
                stroke="black"
                stroke-opacity="0.1"
        ></path>
    </g>
    <g filter="url(#filter1_d_2318_10336)">
        <path
                d="M3 22C3 20.8954 3.89543 20 5 20H8C8.55228 20 9 20.4477 9 21V23C9 23.5523 8.55228 24 8 24H5C3.89543 24 3 23.1046 3 22V22Z"
                fill="#B9BAC0"
        ></path>
        <path
                d="M5 20.5H8C8.27614 20.5 8.5 20.7239 8.5 21V23C8.5 23.2761 8.27614 23.5 8 23.5H5C4.17157 23.5 3.5 22.8284 3.5 22C3.5 21.1716 4.17157 20.5 5 20.5Z"
                stroke="black"
                stroke-opacity="0.1"
        ></path>
    </g>
    <g filter="url(#filter2_d_2318_10336)">
        <path
                d="M3 30C3 28.8954 3.89543 28 5 28H33C34.1046 28 35 28.8954 35 30V30C35 31.1046 34.1046 32 33 32H5C3.89543 32 3 31.1046 3 30V30Z"
                fill="#B9BAC0"
        ></path>
        <path
                d="M5 28.5H33C33.8284 28.5 34.5 29.1716 34.5 30C34.5 30.8284 33.8284 31.5 33 31.5H5C4.17157 31.5 3.5 30.8284 3.5 30C3.5 29.1716 4.17157 28.5 5 28.5Z"
                stroke="black"
                stroke-opacity="0.1"
        ></path>
    </g>
    <g filter="url(#filter3_d_2318_10336)">
        <mask id="path-7-inside-1_2318_10336" fill="white">
            <path
                    d="M11.8487 21.0563L11.0249 24.7635C10.8637 25.4891 11.5109 26.1363 12.2365 25.9751L15.9437 25.1513C18.4742 24.589 20.7919 23.3167 22.6249 21.4836L33.5278 10.5808C35.4907 8.61785 35.4907 5.43522 33.5278 3.47224C31.5648 1.50925 28.3822 1.50925 26.4192 3.47224L15.5164 14.3751C13.6833 16.2081 12.4111 18.5258 11.8487 21.0563Z"
            ></path>
        </mask>
        <path
                d="M11.8487 21.0563L11.0249 24.7635C10.8637 25.4891 11.5109 26.1363 12.2365 25.9751L15.9437 25.1513C18.4742 24.589 20.7919 23.3167 22.6249 21.4836L33.5278 10.5808C35.4907 8.61785 35.4907 5.43522 33.5278 3.47224C31.5648 1.50925 28.3822 1.50925 26.4192 3.47224L15.5164 14.3751C13.6833 16.2081 12.4111 18.5258 11.8487 21.0563Z"
                fill="#5E5E6B"
        ></path>
        <path
                d="M11.0249 24.7635L12.0011 24.9804L12.0011 24.9804L11.0249 24.7635ZM11.8487 21.0563L10.8725 20.8394L10.8725 20.8394L11.8487 21.0563ZM15.5164 14.3751L16.2235 15.0822L16.2235 15.0822L15.5164 14.3751ZM26.4192 3.47224L25.7121 2.76513L25.7121 2.76513L26.4192 3.47224ZM12.2365 25.9751L12.4535 26.9513L12.4535 26.9513L12.2365 25.9751ZM15.9437 25.1513L15.7268 24.1751L15.7268 24.1751L15.9437 25.1513ZM22.6249 21.4836L21.9178 20.7765L21.9178 20.7765L22.6249 21.4836ZM33.5278 10.5808L34.2349 11.2879L34.2349 11.2879L33.5278 10.5808ZM12.0011 24.9804L12.8249 21.2732L10.8725 20.8394L10.0487 24.5466L12.0011 24.9804ZM16.2235 15.0822L27.1263 4.17934L25.7121 2.76513L14.8092 13.6679L16.2235 15.0822ZM12.4535 26.9513L16.1606 26.1275L15.7268 24.1751L12.0196 24.9989L12.4535 26.9513ZM23.3321 22.1908L34.2349 11.2879L32.8207 9.87372L21.9178 20.7765L23.3321 22.1908ZM16.1606 26.1275C18.8768 25.5239 21.3646 24.1582 23.3321 22.1908L21.9178 20.7765C20.2193 22.4751 18.0716 23.654 15.7268 24.1751L16.1606 26.1275ZM32.8207 4.17934C34.3931 5.7518 34.3931 8.30126 32.8207 9.87372L34.2349 11.2879C36.5884 8.93443 36.5884 5.11864 34.2349 2.76513L32.8207 4.17934ZM27.1263 4.17934C28.6987 2.60689 31.2482 2.60689 32.8207 4.17934L34.2349 2.76513C31.8814 0.411623 28.0656 0.411623 25.7121 2.76513L27.1263 4.17934ZM12.8249 21.2732C13.346 18.9284 14.5249 16.7807 16.2235 15.0822L14.8092 13.6679C12.8418 15.6354 11.4761 18.1232 10.8725 20.8394L12.8249 21.2732ZM10.0487 24.5466C9.72869 25.9866 11.0134 27.2713 12.4535 26.9513L12.0196 24.9989C12.0166 24.9996 12.0146 24.9998 12.0135 24.9999C12.0124 25 12.0119 25 12.0119 25C12.0119 25 12.0121 25 12.0123 25.0001C12.0126 25.0001 12.0127 25.0001 12.0128 25.0002C12.0129 25.0002 12.0096 24.9991 12.0053 24.9947C12.0009 24.9904 11.9998 24.9871 11.9998 24.9872C11.9999 24.9873 11.9999 24.9874 12 24.9877C12 24.9879 12 24.9881 12 24.9881C12 24.9881 12 24.9876 12.0001 24.9865C12.0002 24.9854 12.0004 24.9834 12.0011 24.9804L10.0487 24.5466Z"
                fill="black"
                fill-opacity="0.1"
                mask="url(#path-7-inside-1_2318_10336)"
        ></path>
    </g>
    <defs>
        <filter
                id="filter0_d_2318_10336"
                x="0"
                y="10"
                width="15.3832"
                height="10"
                filterUnits="userSpaceOnUse"
                color-interpolation-filters="sRGB"
        >
            <feFlood flood-opacity="0" result="BackgroundImageFix"></feFlood>
            <feColorMatrix
                    in="SourceAlpha"
                    type="matrix"
                    values="0 0 0 0 0 0 0 0 0 0 0 0 0 0 0 0 0 0 127 0"
                    result="hardAlpha"
            ></feColorMatrix>
            <feOffset dy="1"></feOffset>
            <feGaussianBlur stdDeviation="1.5"></feGaussianBlur>
            <feColorMatrix
                    type="matrix"
                    values="0 0 0 0 0.0627451 0 0 0 0 0.0980392 0 0 0 0 0.141176 0 0 0 0.05 0"
            ></feColorMatrix>
            <feBlend
                    mode="normal"
                    in2="BackgroundImageFix"
                    result="effect1_dropShadow_2318_10336"
            ></feBlend>
            <feBlend
                    mode="normal"
                    in="SourceGraphic"
                    in2="effect1_dropShadow_2318_10336"
                    result="shape"
            ></feBlend>
        </filter>
        <filter
                id="filter1_d_2318_10336"
                x="0"
                y="18"
                width="12"
                height="10"
                filterUnits="userSpaceOnUse"
                color-interpolation-filters="sRGB"
        >
            <feFlood flood-opacity="0" result="BackgroundImageFix"></feFlood>
            <feColorMatrix
                    in="SourceAlpha"
                    type="matrix"
                    values="0 0 0 0 0 0 0 0 0 0 0 0 0 0 0 0 0 0 127 0"
                    result="hardAlpha"
            ></feColorMatrix>
            <feOffset dy="1"></feOffset>
            <feGaussianBlur stdDeviation="1.5"></feGaussianBlur>
            <feColorMatrix
                    type="matrix"
                    values="0 0 0 0 0.0627451 0 0 0 0 0.0980392 0 0 0 0 0.141176 0 0 0 0.05 0"
            ></feColorMatrix>
            <feBlend
                    mode="normal"
                    in2="BackgroundImageFix"
                    result="effect1_dropShadow_2318_10336"
            ></feBlend>
            <feBlend
                    mode="normal"
                    in="SourceGraphic"
                    in2="effect1_dropShadow_2318_10336"
                    result="shape"
            ></feBlend>
        </filter>
        <filter
                id="filter2_d_2318_10336"
                x="0"
                y="26"
                width="38"
                height="10"
                filterUnits="userSpaceOnUse"
                color-interpolation-filters="sRGB"
        >
            <feFlood flood-opacity="0" result="BackgroundImageFix"></feFlood>
            <feColorMatrix
                    in="SourceAlpha"
                    type="matrix"
                    values="0 0 0 0 0 0 0 0 0 0 0 0 0 0 0 0 0 0 127 0"
                    result="hardAlpha"
            ></feColorMatrix>
            <feOffset dy="1"></feOffset>
            <feGaussianBlur stdDeviation="1.5"></feGaussianBlur>
            <feColorMatrix
                    type="matrix"
                    values="0 0 0 0 0.0627451 0 0 0 0 0.0980392 0 0 0 0 0.141176 0 0 0 0.05 0"
            ></feColorMatrix>
            <feBlend
                    mode="normal"
                    in2="BackgroundImageFix"
                    result="effect1_dropShadow_2318_10336"
            ></feBlend>
            <feBlend
                    mode="normal"
                    in="SourceGraphic"
                    in2="effect1_dropShadow_2318_10336"
                    result="shape"
            ></feBlend>
        </filter>
        <filter
                id="filter3_d_2318_10336"
                x="8"
                y="0"
                width="30"
                height="30"
                filterUnits="userSpaceOnUse"
                color-interpolation-filters="sRGB"
        >
            <feFlood flood-opacity="0" result="BackgroundImageFix"></feFlood>
            <feColorMatrix
                    in="SourceAlpha"
                    type="matrix"
                    values="0 0 0 0 0 0 0 0 0 0 0 0 0 0 0 0 0 0 127 0"
                    result="hardAlpha"
            ></feColorMatrix>
            <feOffset dy="1"></feOffset>
            <feGaussianBlur stdDeviation="1.5"></feGaussianBlur>
            <feColorMatrix
                    type="matrix"
                    values="0 0 0 0 0.0627451 0 0 0 0 0.0980392 0 0 0 0 0.141176 0 0 0 0.05 0"
            ></feColorMatrix>
            <feBlend
                    mode="normal"
                    in2="BackgroundImageFix"
                    result="effect1_dropShadow_2318_10336"
            ></feBlend>
            <feBlend
                    mode="normal"
                    in="SourceGraphic"
                    in2="effect1_dropShadow_2318_10336"
                    result="shape"
            ></feBlend>
        </filter>
    </defs>
</svg>
