<svg viewBox="0 0 40 24" fill="none" xmlns="http://www.w3.org/2000/svg">
    <mask id="path-1-inside-1_2318_10339" fill="white">
        <path
                fill-rule="evenodd"
                clip-rule="evenodd"
                d="M25.8855 13.7985C25.4648 17.079 23.9087 20.0043 21.6238 22.1677C23.4711 23.3286 25.6571 24 27.9999 24C34.6274 24 39.9999 18.6274 39.9999 12C39.9999 5.37258 34.6274 0 27.9999 0C25.6571 0 23.4711 0.671395 21.6238 1.83228C24.264 4.33213 25.9312 7.8493 25.9979 11.7563C26.1218 11.7996 26.236 11.876 26.3261 11.9842L27.8764 13.8445C28.5511 12.4626 29.3754 11.2112 30.0777 10.2513C30.5244 9.64084 30.9267 9.14168 31.2183 8.79401C31.3642 8.62006 31.4826 8.48372 31.5654 8.39C31.6068 8.34313 31.6393 8.30689 31.6619 8.2819L31.6882 8.25294L31.6955 8.24493L31.6977 8.24257L31.6984 8.2418L32.25 8.75002C31.6989 8.24131 31.6985 8.24169 31.6984 8.2418C31.9794 7.93744 32.4543 7.91797 32.7587 8.19892C33.063 8.47983 33.0819 8.95436 32.8011 9.25873L32.8003 9.25952L32.7957 9.26463L32.7748 9.28763C32.7559 9.30855 32.7272 9.34055 32.6897 9.383C32.6147 9.46791 32.5046 9.59455 32.3676 9.75793C32.0933 10.0849 31.7121 10.5579 31.2883 11.1371C30.4363 12.3015 29.4315 13.8692 28.7677 15.5286C28.6696 15.7739 28.4497 15.9494 28.1887 15.9908C27.9278 16.0321 27.6644 15.9331 27.4952 15.7302L25.8855 13.7985Z"
        ></path>
    </mask>
    <path
            fill-rule="evenodd"
            clip-rule="evenodd"
            d="M25.8855 13.7985C25.4648 17.079 23.9087 20.0043 21.6238 22.1677C23.4711 23.3286 25.6571 24 27.9999 24C34.6274 24 39.9999 18.6274 39.9999 12C39.9999 5.37258 34.6274 0 27.9999 0C25.6571 0 23.4711 0.671395 21.6238 1.83228C24.264 4.33213 25.9312 7.8493 25.9979 11.7563C26.1218 11.7996 26.236 11.876 26.3261 11.9842L27.8764 13.8445C28.5511 12.4626 29.3754 11.2112 30.0777 10.2513C30.5244 9.64084 30.9267 9.14168 31.2183 8.79401C31.3642 8.62006 31.4826 8.48372 31.5654 8.39C31.6068 8.34313 31.6393 8.30689 31.6619 8.2819L31.6882 8.25294L31.6955 8.24493L31.6977 8.24257L31.6984 8.2418L32.25 8.75002C31.6989 8.24131 31.6985 8.24169 31.6984 8.2418C31.9794 7.93744 32.4543 7.91797 32.7587 8.19892C33.063 8.47983 33.0819 8.95436 32.8011 9.25873L32.8003 9.25952L32.7957 9.26463L32.7748 9.28763C32.7559 9.30855 32.7272 9.34055 32.6897 9.383C32.6147 9.46791 32.5046 9.59455 32.3676 9.75793C32.0933 10.0849 31.7121 10.5579 31.2883 11.1371C30.4363 12.3015 29.4315 13.8692 28.7677 15.5286C28.6696 15.7739 28.4497 15.9494 28.1887 15.9908C27.9278 16.0321 27.6644 15.9331 27.4952 15.7302L25.8855 13.7985Z"
            fill="#B9BAC0"
    ></path>
    <path
            d="M21.6238 22.1677L20.9362 21.4416L19.9998 22.3282L21.0917 23.0144L21.6238 22.1677ZM25.8855 13.7985L26.6537 13.1583L25.1854 11.3963L24.8936 13.6713L25.8855 13.7985ZM21.6238 1.83228L21.0917 0.985582L19.9998 1.67176L20.9362 2.55842L21.6238 1.83228ZM25.9979 11.7563L24.998 11.7734L25.0099 12.4706L25.6683 12.7005L25.9979 11.7563ZM26.3261 11.9842L27.0943 11.344L27.0943 11.344L26.3261 11.9842ZM27.8764 13.8445L27.1082 14.4847L28.0972 15.6715L28.775 14.2832L27.8764 13.8445ZM30.0777 10.2513L29.2707 9.66083H29.2707L30.0777 10.2513ZM31.2183 8.79401L31.9845 9.43662L31.9845 9.43662L31.2183 8.79401ZM31.5654 8.39L30.8159 7.728V7.728L31.5654 8.39ZM31.6619 8.2819L30.9216 7.6096L30.92 7.61143L31.6619 8.2819ZM31.6882 8.25294L30.9506 7.57764L30.9479 7.58064L31.6882 8.25294ZM31.6955 8.24493L30.9595 7.56802L30.958 7.56964L31.6955 8.24493ZM31.6977 8.24257L30.9624 7.56486L30.9616 7.56566L31.6977 8.24257ZM31.6984 8.2418L30.9636 7.56352L30.9631 7.56409L31.6984 8.2418ZM32.25 8.75002L31.5723 9.48543L32.9282 8.01522L32.25 8.75002ZM32.7587 8.19892L32.0804 8.93372L32.0804 8.93372L32.7587 8.19892ZM32.8011 9.25873L32.0661 8.58064L32.065 8.58183L32.8011 9.25873ZM32.8003 9.25952L32.0643 8.58261L32.0628 8.58423L32.8003 9.25952ZM32.7957 9.26463L32.0581 8.58934L32.0553 8.59238L32.7957 9.26463ZM32.7748 9.28763L32.0344 8.61537L32.0328 8.61715L32.7748 9.28763ZM32.6897 9.383L33.4392 10.045L33.4392 10.045L32.6897 9.383ZM32.3676 9.75793L33.1338 10.4005L33.1338 10.4005L32.3676 9.75793ZM31.2883 11.1371L30.4812 10.5466L31.2883 11.1371ZM28.7677 15.5286L29.6962 15.9L28.7677 15.5286ZM28.1887 15.9908L28.0323 15.0031L28.0323 15.0031L28.1887 15.9908ZM27.4952 15.7302L26.727 16.3703L26.727 16.3703L27.4952 15.7302ZM22.3113 22.8939C24.758 20.5773 26.4263 17.4427 26.8774 13.9257L24.8936 13.6713C24.5032 16.7153 23.0594 19.4313 20.9362 21.4416L22.3113 22.8939ZM27.9999 23C25.8508 23 23.8484 22.3847 22.1559 21.321L21.0917 23.0144C23.0937 24.2725 25.4634 25 27.9999 25V23ZM38.9999 12C38.9999 18.0751 34.0751 23 27.9999 23V25C35.1796 25 40.9999 19.1797 40.9999 12H38.9999ZM27.9999 1C34.0751 1 38.9999 5.92487 38.9999 12H40.9999C40.9999 4.8203 35.1796 -1 27.9999 -1V1ZM22.1559 2.67897C23.8484 1.61532 25.8508 1 27.9999 1V-1C25.4634 -1 23.0937 -0.272528 21.0917 0.985582L22.1559 2.67897ZM26.9977 11.7393C26.9263 7.55274 25.1387 3.78323 22.3113 1.10613L20.9362 2.55842C23.3893 4.88104 24.9361 8.14587 24.998 11.7734L26.9977 11.7393ZM25.6683 12.7005C25.6259 12.6857 25.5869 12.6592 25.5579 12.6244L27.0943 11.344C26.885 11.0928 26.6177 10.9135 26.3275 10.8122L25.6683 12.7005ZM25.5579 12.6244L27.1082 14.4847L28.6446 13.2043L27.0943 11.344L25.5579 12.6244ZM28.775 14.2832C29.4155 12.9714 30.2042 11.7719 30.8848 10.8418L29.2707 9.66083C28.5465 10.6505 27.6867 11.9538 26.9778 13.4058L28.775 14.2832ZM30.8847 10.8418C31.3162 10.2522 31.7044 9.77051 31.9845 9.43662L30.4521 8.1514C30.1489 8.51284 29.7326 9.0295 29.2707 9.66083L30.8847 10.8418ZM31.9845 9.43662C32.1245 9.26972 32.2373 9.13985 32.3149 9.052L30.8159 7.728C30.7279 7.8276 30.6039 7.97041 30.4521 8.1514L31.9845 9.43662ZM32.3149 9.052C32.3537 9.00808 32.3837 8.97467 32.4038 8.95238L30.92 7.61143C30.8949 7.63911 30.8599 7.67817 30.8159 7.728L32.3149 9.052ZM32.4022 8.9542L32.4285 8.92524L30.9479 7.58064L30.9216 7.60961L32.4022 8.9542ZM32.4257 8.92823L32.4331 8.92022L30.958 7.56964L30.9506 7.57765L32.4257 8.92823ZM32.4316 8.92184L32.4338 8.91948L30.9616 7.56566L30.9595 7.56802L32.4316 8.92184ZM32.433 8.92028L32.4337 8.91951L30.9631 7.56409L30.9624 7.56486L32.433 8.92028ZM32.9276 8.01462L32.376 7.5064L31.0208 8.97721L31.5723 9.48543L32.9276 8.01462ZM32.4303 8.92322C32.4427 8.90995 32.3515 9.01665 32.2105 9.10071C32.0394 9.20275 31.8524 9.24538 31.6767 9.24156C31.5241 9.23825 31.4073 9.20065 31.3469 9.17797C31.2825 9.15379 31.2338 9.12786 31.2072 9.11282C31.1551 9.08346 31.1174 9.05584 31.1056 9.04713C31.0892 9.03503 31.0765 9.02493 31.0701 9.01976C31.0572 9.00933 31.0475 9.0009 31.0446 8.99838C31.0404 8.99479 31.0372 8.99196 31.0357 8.99063C31.0311 8.98655 31.0287 8.98428 31.0332 8.98845C31.0401 8.99472 31.0559 9.00923 31.0904 9.04098C31.1588 9.10388 31.2962 9.23049 31.5717 9.48483L32.9282 8.01522C32.6527 7.76084 32.5143 7.63329 32.4447 7.56923C32.4102 7.5375 32.3915 7.52033 32.381 7.51081C32.3769 7.50708 32.3701 7.50088 32.3634 7.49486C32.3613 7.49304 32.3577 7.48985 32.3532 7.48598C32.35 7.4832 32.3401 7.47459 32.327 7.46405C32.3205 7.45882 32.3078 7.44868 32.2914 7.43654C32.2795 7.4278 32.2418 7.40016 32.1897 7.3708C32.1757 7.36289 31.9876 7.24785 31.7201 7.24203C31.5444 7.23822 31.3574 7.28085 31.1863 7.38289C31.0453 7.46695 30.9542 7.57366 30.9665 7.56038L32.4303 8.92322ZM32.4332 8.92008C32.3403 9.02069 32.1827 9.02816 32.0804 8.93372L33.4369 7.46412C32.7259 6.80778 31.6184 6.85419 30.9636 7.56352L32.4332 8.92008ZM32.0804 8.93372C31.9787 8.83986 31.9727 8.68185 32.0661 8.58064L33.536 9.93683C34.191 9.22687 34.1473 8.1198 33.4369 7.46412L32.0804 8.93372ZM32.065 8.58183L32.0643 8.58261L33.5364 9.93642L33.5371 9.93563L32.065 8.58183ZM32.0628 8.58423L32.0581 8.58935L33.5332 9.93991L33.5379 9.9348L32.0628 8.58423ZM32.0553 8.59238L32.0345 8.61538L33.5151 9.95988L33.536 9.93688L32.0553 8.59238ZM32.0328 8.61715C32.0115 8.64077 31.9803 8.6756 31.9402 8.721L33.4392 10.045C33.4741 10.0055 33.5002 9.97633 33.5167 9.9581L32.0328 8.61715ZM31.9402 8.72099C31.86 8.81179 31.7443 8.94489 31.6014 9.11532L33.1338 10.4005C33.2649 10.2442 33.3694 10.124 33.4392 10.045L31.9402 8.72099ZM31.6014 9.11532C31.3156 9.45609 30.9203 9.94652 30.4812 10.5466L32.0953 11.7276C32.5039 11.1692 32.8711 10.7138 33.1338 10.4005L31.6014 9.11532ZM30.4812 10.5466C29.6045 11.7448 28.5466 13.3888 27.8393 15.1572L29.6962 15.9C30.3164 14.3496 31.268 12.8582 32.0953 11.7276L30.4812 10.5466ZM27.8393 15.1572C27.872 15.0754 27.9453 15.0169 28.0323 15.0031L28.3452 16.9785C28.9541 16.882 29.4673 16.4723 29.6962 15.9L27.8393 15.1572ZM28.0323 15.0031C28.1192 14.9893 28.2071 15.0223 28.2634 15.09L26.727 16.3703C27.1216 16.8439 27.7363 17.0749 28.3452 16.9785L28.0323 15.0031ZM28.2634 15.09L26.6537 13.1583L25.1173 14.4387L26.727 16.3703L28.2634 15.09Z"
            fill="black"
            fill-opacity="0.1"
            mask="url(#path-1-inside-1_2318_10339)"
    ></path>
    <mask id="path-3-inside-2_2318_10339" fill="white">
        <path
                fill-rule="evenodd"
                clip-rule="evenodd"
                d="M12 24C18.6274 24 24 18.6274 24 12C24 5.37258 18.6274 0 12 0C5.37258 0 0 5.37258 0 12C0 18.6274 5.37258 24 12 24ZM15.0322 14.6319C15.1842 14.3279 15.2602 13.9799 15.2602 13.5879C15.2602 12.9399 15.0202 12.4279 14.5402 12.0519C14.0602 11.6759 13.4322 11.4119 12.6562 11.2599L12.4642 11.2239V9.08794C12.7842 9.15194 13.0442 9.27994 13.2442 9.47194C13.4442 9.66393 13.5642 9.89993 13.6042 10.1799H15.0922C15.0362 9.48394 14.7642 8.93194 14.2762 8.52394C13.7962 8.10793 13.1922 7.85994 12.4642 7.77993V6.78394H11.5642V7.77993C11.1882 7.81193 10.8362 7.89594 10.5082 8.03193C10.1802 8.15993 9.89616 8.33194 9.65616 8.54794C9.41616 8.75594 9.22816 9.00393 9.09216 9.29193C8.95616 9.57994 8.88816 9.89994 8.88816 10.2519C8.88816 10.8439 9.09216 11.3239 9.50016 11.6919C9.91616 12.0519 10.5122 12.3119 11.2882 12.4719L11.5642 12.5319V14.8239C11.1962 14.7679 10.8842 14.6279 10.6282 14.4039C10.3722 14.1799 10.2202 13.8799 10.1722 13.5039H8.66016C8.73216 14.3199 9.03616 14.9439 9.57216 15.3759C10.1162 15.8079 10.7802 16.0559 11.5642 16.1199V17.0799H12.4642V16.1199C12.8402 16.0879 13.1962 16.0119 13.5322 15.8919C13.8762 15.7719 14.1722 15.6079 14.4202 15.3999C14.6762 15.1839 14.8802 14.9279 15.0322 14.6319ZM10.6882 10.7079C10.5122 10.5719 10.4242 10.3719 10.4242 10.1079C10.4242 9.83594 10.5322 9.61193 10.7482 9.43594C10.9642 9.25194 11.2362 9.13194 11.5642 9.07594V11.0439C11.1642 10.9559 10.8722 10.8439 10.6882 10.7079ZM13.3762 13.1199C13.6002 13.2719 13.7122 13.4839 13.7122 13.7559C13.7122 14.0519 13.5962 14.2919 13.3642 14.4759C13.1322 14.6599 12.8322 14.7799 12.4642 14.8359V12.7239C12.8562 12.8279 13.1602 12.9599 13.3762 13.1199Z"
        ></path>
    </mask>
    <path
            fill-rule="evenodd"
            clip-rule="evenodd"
            d="M12 24C18.6274 24 24 18.6274 24 12C24 5.37258 18.6274 0 12 0C5.37258 0 0 5.37258 0 12C0 18.6274 5.37258 24 12 24ZM15.0322 14.6319C15.1842 14.3279 15.2602 13.9799 15.2602 13.5879C15.2602 12.9399 15.0202 12.4279 14.5402 12.0519C14.0602 11.6759 13.4322 11.4119 12.6562 11.2599L12.4642 11.2239V9.08794C12.7842 9.15194 13.0442 9.27994 13.2442 9.47194C13.4442 9.66393 13.5642 9.89993 13.6042 10.1799H15.0922C15.0362 9.48394 14.7642 8.93194 14.2762 8.52394C13.7962 8.10793 13.1922 7.85994 12.4642 7.77993V6.78394H11.5642V7.77993C11.1882 7.81193 10.8362 7.89594 10.5082 8.03193C10.1802 8.15993 9.89616 8.33194 9.65616 8.54794C9.41616 8.75594 9.22816 9.00393 9.09216 9.29193C8.95616 9.57994 8.88816 9.89994 8.88816 10.2519C8.88816 10.8439 9.09216 11.3239 9.50016 11.6919C9.91616 12.0519 10.5122 12.3119 11.2882 12.4719L11.5642 12.5319V14.8239C11.1962 14.7679 10.8842 14.6279 10.6282 14.4039C10.3722 14.1799 10.2202 13.8799 10.1722 13.5039H8.66016C8.73216 14.3199 9.03616 14.9439 9.57216 15.3759C10.1162 15.8079 10.7802 16.0559 11.5642 16.1199V17.0799H12.4642V16.1199C12.8402 16.0879 13.1962 16.0119 13.5322 15.8919C13.8762 15.7719 14.1722 15.6079 14.4202 15.3999C14.6762 15.1839 14.8802 14.9279 15.0322 14.6319ZM10.6882 10.7079C10.5122 10.5719 10.4242 10.3719 10.4242 10.1079C10.4242 9.83594 10.5322 9.61193 10.7482 9.43594C10.9642 9.25194 11.2362 9.13194 11.5642 9.07594V11.0439C11.1642 10.9559 10.8722 10.8439 10.6882 10.7079ZM13.3762 13.1199C13.6002 13.2719 13.7122 13.4839 13.7122 13.7559C13.7122 14.0519 13.5962 14.2919 13.3642 14.4759C13.1322 14.6599 12.8322 14.7799 12.4642 14.8359V12.7239C12.8562 12.8279 13.1602 12.9599 13.3762 13.1199Z"
            fill="#5E5E6B"
    ></path>
    <path
            d="M15.0322 14.6319L15.9218 15.0888L15.9266 15.0792L15.0322 14.6319ZM14.5402 12.0519L15.1568 11.2647L15.1568 11.2647L14.5402 12.0519ZM12.6562 11.2599L12.8484 10.2786L12.8404 10.2771L12.6562 11.2599ZM12.4642 11.2239H11.4642V12.0539L12.2799 12.2068L12.4642 11.2239ZM12.4642 9.08794L12.6603 8.10736L11.4642 7.86813V9.08794H12.4642ZM13.2442 9.47194L12.5516 10.1933L12.5516 10.1933L13.2442 9.47194ZM13.6042 10.1799L12.6142 10.3214L12.7369 11.1799H13.6042V10.1799ZM15.0922 10.1799V11.1799H16.1758L16.0889 10.0997L15.0922 10.1799ZM14.2762 8.52394L13.6212 9.27962L13.6279 9.28543L13.6347 9.29113L14.2762 8.52394ZM12.4642 7.77993H11.4642V8.67606L12.3549 8.77395L12.4642 7.77993ZM12.4642 6.78394H13.4642V5.78394H12.4642V6.78394ZM11.5642 6.78394V5.78394H10.5642V6.78394H11.5642ZM11.5642 7.77993L11.649 8.77633L12.5642 8.69844V7.77993H11.5642ZM10.5082 8.03193L10.8717 8.96351L10.8815 8.9597L10.8912 8.95568L10.5082 8.03193ZM9.65616 8.54794L10.3111 9.30362L10.3182 9.29749L10.3251 9.29123L9.65616 8.54794ZM9.09216 9.29193L9.9964 9.71894L9.99641 9.71894L9.09216 9.29193ZM9.50016 11.6919L8.83039 12.4345L8.83801 12.4414L8.84578 12.4481L9.50016 11.6919ZM11.2882 12.4719L11.5006 11.4947L11.4901 11.4925L11.2882 12.4719ZM11.5642 12.5319H12.5642V11.726L11.7766 11.5548L11.5642 12.5319ZM11.5642 14.8239L11.4137 15.8126L12.5642 15.9876V14.8239H11.5642ZM10.6282 14.4039L9.96965 15.1565L9.96965 15.1565L10.6282 14.4039ZM10.1722 13.5039L11.1641 13.3773L11.0526 12.5039H10.1722V13.5039ZM8.66016 13.5039V12.5039H7.56804L7.66403 13.5918L8.66016 13.5039ZM9.57216 15.3759L8.94461 16.1546L8.95027 16.159L9.57216 15.3759ZM11.5642 16.1199H12.5642V15.1982L11.6455 15.1233L11.5642 16.1199ZM11.5642 17.0799H10.5642V18.0799H11.5642V17.0799ZM12.4642 17.0799V18.0799H13.4642V17.0799H12.4642ZM12.4642 16.1199L12.3794 15.1235L11.4642 15.2014V16.1199H12.4642ZM13.5322 15.8919L13.2028 14.9477L13.1958 14.9502L13.5322 15.8919ZM14.4202 15.3999L15.0628 16.1661L15.065 16.1642L14.4202 15.3999ZM10.6882 10.7079L10.0767 11.4992L10.0852 11.5058L10.0938 11.5121L10.6882 10.7079ZM10.7482 9.43594L11.3798 10.2112L11.3883 10.2043L11.3966 10.1972L10.7482 9.43594ZM11.5642 9.07594H12.5642V7.89073L11.3959 8.0902L11.5642 9.07594ZM11.5642 11.0439L11.3493 12.0206L12.5642 12.2879V11.0439H11.5642ZM13.3762 13.1199L12.7809 13.9235L12.7975 13.9358L12.8147 13.9474L13.3762 13.1199ZM13.3642 14.4759L13.9856 15.2594L13.9856 15.2594L13.3642 14.4759ZM12.4642 14.8359H11.4642V15.9996L12.6146 15.8246L12.4642 14.8359ZM12.4642 12.7239L12.7206 11.7574L11.4642 11.424V12.7239H12.4642ZM23 12C23 18.0751 18.0751 23 12 23V25C19.1797 25 25 19.1797 25 12H23ZM12 1C18.0751 1 23 5.92487 23 12H25C25 4.8203 19.1797 -1 12 -1V1ZM1 12C1 5.92487 5.92487 1 12 1V-1C4.8203 -1 -1 4.8203 -1 12H1ZM12 23C5.92487 23 1 18.0751 1 12H-1C-1 19.1797 4.8203 25 12 25V23ZM14.2602 13.5879C14.2602 13.8485 14.2104 14.0394 14.1377 14.1847L15.9266 15.0792C16.1579 14.6164 16.2602 14.1113 16.2602 13.5879H14.2602ZM13.9235 12.8392C14.1445 13.0123 14.2602 13.225 14.2602 13.5879H16.2602C16.2602 12.6549 15.8958 11.8436 15.1568 11.2647L13.9235 12.8392ZM12.4639 12.2413C13.1295 12.3717 13.599 12.585 13.9235 12.8392L15.1568 11.2647C14.5213 10.7669 13.7348 10.4522 12.8484 10.2786L12.4639 12.2413ZM12.2799 12.2068L12.4719 12.2428L12.8404 10.2771L12.6484 10.2411L12.2799 12.2068ZM11.4642 9.08794V11.2239H13.4642V9.08794H11.4642ZM13.9367 8.75055C13.5765 8.40475 13.1334 8.20199 12.6603 8.10736L12.268 10.0685C12.4349 10.1019 12.5118 10.1551 12.5516 10.1933L13.9367 8.75055ZM14.5941 10.0385C14.5232 9.54224 14.3013 9.10058 13.9367 8.75055L12.5516 10.1933C12.587 10.2273 12.6051 10.2576 12.6142 10.3214L14.5941 10.0385ZM15.0922 9.17994H13.6042V11.1799H15.0922V9.17994ZM13.6347 9.29113C13.8958 9.50937 14.0586 9.80272 14.0954 10.2601L16.0889 10.0997C16.0137 9.16515 15.6325 8.3545 14.9176 7.75675L13.6347 9.29113ZM12.3549 8.77395C12.9129 8.83527 13.3173 9.01619 13.6212 9.27962L14.9311 7.76825C14.2751 7.19968 13.4714 6.8846 12.5734 6.78592L12.3549 8.77395ZM11.4642 6.78394V7.77993H13.4642V6.78394H11.4642ZM11.5642 7.78394H12.4642V5.78394H11.5642V7.78394ZM12.5642 7.77993V6.78394H10.5642V7.77993H12.5642ZM10.8912 8.95568C11.1183 8.8615 11.3691 8.80015 11.649 8.77633L11.4794 6.78354C11.0073 6.82372 10.554 6.93037 10.1251 7.10819L10.8912 8.95568ZM10.3251 9.29123C10.4677 9.16289 10.6458 9.05165 10.8717 8.96351L10.1446 7.10036C9.71446 7.26822 9.32459 7.50098 8.98719 7.80464L10.3251 9.29123ZM9.99641 9.71894C10.0732 9.55627 10.1764 9.42032 10.3111 9.30362L9.00123 7.79225C8.65587 8.09155 8.38309 8.4516 8.18791 8.86493L9.99641 9.71894ZM9.88816 10.2519C9.88816 10.0319 9.92983 9.85992 9.9964 9.71894L8.18791 8.86493C7.98248 9.29995 7.88816 9.76797 7.88816 10.2519H9.88816ZM10.1699 10.9494C9.98978 10.7869 9.88816 10.5855 9.88816 10.2519H7.88816C7.88816 11.1024 8.19453 11.861 8.83039 12.4345L10.1699 10.9494ZM11.4901 11.4925C10.8124 11.3528 10.3967 11.1454 10.1545 10.9358L8.84578 12.4481C9.43557 12.9585 10.2119 13.2711 11.0862 13.4513L11.4901 11.4925ZM11.7766 11.5548L11.5006 11.4948L11.0757 13.4491L11.3517 13.5091L11.7766 11.5548ZM12.5642 14.8239V12.5319H10.5642V14.8239H12.5642ZM9.96965 15.1565C10.3825 15.5177 10.8758 15.7307 11.4137 15.8126L11.7146 13.8353C11.5165 13.8052 11.3858 13.7381 11.2867 13.6514L9.96965 15.1565ZM9.18021 13.6306C9.25535 14.2192 9.50836 14.7529 9.96965 15.1565L11.2867 13.6514C11.236 13.607 11.185 13.5407 11.1641 13.3773L9.18021 13.6306ZM8.66016 14.5039H10.1722V12.5039H8.66016V14.5039ZM10.1997 14.5973C9.91511 14.368 9.70929 14.0168 9.65629 13.416L7.66403 13.5918C7.75502 14.6231 8.15721 15.5199 8.94463 16.1545L10.1997 14.5973ZM11.6455 15.1233C11.0319 15.0732 10.5631 14.8859 10.194 14.5928L8.95027 16.159C9.66926 16.73 10.5284 17.0387 11.4828 17.1166L11.6455 15.1233ZM12.5642 17.0799V16.1199H10.5642V17.0799H12.5642ZM12.4642 16.0799H11.5642V18.0799H12.4642V16.0799ZM11.4642 16.1199V17.0799H13.4642V16.1199H11.4642ZM13.1958 14.9502C12.9455 15.0396 12.6744 15.0984 12.3794 15.1235L12.549 17.1163C13.0059 17.0774 13.4468 16.9843 13.8685 16.8337L13.1958 14.9502ZM13.7775 14.6337C13.6332 14.7548 13.4467 14.8626 13.2028 14.9477L13.8615 16.8361C14.3056 16.6812 14.7111 16.4611 15.0628 16.1661L13.7775 14.6337ZM14.1426 14.1751C14.0514 14.3527 13.9309 14.5044 13.7753 14.6356L15.065 16.1642C15.4214 15.8635 15.7089 15.5032 15.9217 15.0887L14.1426 14.1751ZM9.42416 10.1079C9.42416 10.6167 9.60847 11.1374 10.0767 11.4992L11.2996 9.91665C11.3413 9.94885 11.381 9.99751 11.4055 10.0532C11.4277 10.1037 11.4242 10.1296 11.4242 10.1079H9.42416ZM10.1165 8.6607C9.674 9.02125 9.42416 9.52691 9.42416 10.1079H11.4242C11.4242 10.1064 11.4243 10.113 11.4215 10.1257C11.4187 10.1387 11.4137 10.1542 11.4059 10.1702C11.389 10.2053 11.3717 10.2178 11.3798 10.2112L10.1165 8.6607ZM11.3959 8.0902C10.9215 8.17119 10.4747 8.35522 10.0997 8.67469L11.3966 10.1972C11.4536 10.1486 11.5508 10.0927 11.7325 10.0617L11.3959 8.0902ZM12.5642 11.0439V9.07594H10.5642V11.0439H12.5642ZM10.0938 11.5121C10.4475 11.7735 10.9036 11.9225 11.3493 12.0206L11.779 10.0673C11.6138 10.0309 11.491 9.99389 11.4033 9.96026C11.313 9.92563 11.281 9.90259 11.2825 9.90376L10.0938 11.5121ZM14.7122 13.7559C14.7122 13.1544 14.4375 12.6316 13.9377 12.2925L12.8147 13.9474C12.8089 13.9435 12.7738 13.9166 12.744 13.8601C12.7142 13.8037 12.7122 13.7606 12.7122 13.7559H14.7122ZM13.9856 15.2594C14.4566 14.8858 14.7122 14.3573 14.7122 13.7559H12.7122C12.7122 13.7644 12.7114 13.7637 12.713 13.7559C12.7148 13.7478 12.7184 13.736 12.7248 13.7228C12.7312 13.7095 12.7382 13.6994 12.7434 13.693C12.7484 13.6869 12.7495 13.6871 12.7428 13.6924L13.9856 15.2594ZM12.6146 15.8246C13.1111 15.749 13.5863 15.5761 13.9856 15.2594L12.7428 13.6924C12.6781 13.7438 12.5532 13.8109 12.3137 13.8473L12.6146 15.8246ZM11.4642 12.7239V14.8359H13.4642V12.7239H11.4642ZM13.9714 12.3164C13.6158 12.0529 13.1788 11.8789 12.7206 11.7574L12.2077 13.6905C12.5336 13.7769 12.7046 13.8669 12.7809 13.9235L13.9714 12.3164Z"
            fill="black"
            fill-opacity="0.1"
            mask="url(#path-3-inside-2_2318_10339)"
    ></path>
</svg>
