<svg width="80" height="56" viewBox="0 0 80 56" fill="none" xmlns="http://www.w3.org/2000/svg">
    <mask id="mask0_1886_7973" maskUnits="userSpaceOnUse" x="0" y="0" width="80" height="56">
        <path d="M0.03125 0.146484H79.7382V55.8533H0.03125V0.146484Z" fill="#00A1E0"></path>
    </mask>
    <g mask="url(#mask0_1886_7973)">
        <path fill-rule="evenodd" clip-rule="evenodd" d="M33.1175 6.2448C35.6904 3.56501 39.2713 1.90554 43.2274 1.90554C48.5021 1.90554 53.0735 4.83747 55.5351 9.20606C57.7201 8.22877 60.0867 7.72422 62.4801 7.72543C71.9746 7.72543 79.6816 15.4951 79.6816 25.0825C79.6816 34.6699 71.9746 42.4396 62.4801 42.4396C61.3197 42.4396 60.1885 42.3229 59.0808 42.1024C56.927 45.9432 52.8098 48.5527 48.1211 48.5527C46.2122 48.5564 44.3278 48.1232 42.612 47.2861C40.4288 52.417 35.3446 56.0232 29.4252 56.0232C23.242 56.0232 17.9966 52.1238 15.9746 46.641C15.0747 46.8311 14.1574 46.9266 13.2376 46.926C5.88231 46.926 -0.0664062 40.8862 -0.0664062 33.4684C-0.0664062 28.4841 2.61198 24.1449 6.58561 21.7993C5.7426 19.8563 5.30868 17.7604 5.31088 15.6423C5.31088 7.08099 12.2559 0.161621 20.8127 0.161621C25.8237 0.161621 30.3072 2.55115 33.1204 6.26005" fill="#00A1E0"></path>
    </g>
    <path fill-rule="evenodd" clip-rule="evenodd" d="M11.5494 29.1141C11.4993 29.2448 11.5672 29.2721 11.5834 29.2953C11.7331 29.4038 11.8852 29.4823 12.0376 29.5706C12.8522 30.0016 13.62 30.1277 14.4229 30.1277C16.0581 30.1277 17.0749 29.2569 17.0749 27.8554V27.8278C17.0749 26.5319 15.9262 26.0599 14.8537 25.7227L14.7133 25.6773C13.9016 25.414 13.2012 25.1847 13.2012 24.6511V24.6238C13.2012 24.1664 13.6115 23.8293 14.2445 23.8293C14.9478 23.8293 15.7859 24.0635 16.3221 24.3599C16.3221 24.3599 16.4809 24.4626 16.5387 24.3092C16.57 24.2263 16.8434 23.4941 16.8727 23.4121C16.9038 23.3261 16.8493 23.2614 16.7933 23.2279C16.1779 22.8526 15.3281 22.5976 14.449 22.5976L14.2858 22.5981C12.7883 22.5981 11.7422 23.5041 11.7422 24.8V24.8279C11.7422 26.1942 12.8968 26.6398 13.9752 26.9477L14.1486 27.0016C14.934 27.2432 15.6138 27.4531 15.6138 28.0043V28.0319C15.6138 28.5391 15.1714 28.9174 14.4622 28.9174C14.1864 28.9174 13.3076 28.9127 12.3552 28.3104C12.2401 28.2433 12.1744 28.1949 12.0856 28.1407C12.0388 28.1122 11.9215 28.0609 11.8705 28.2146L11.5482 29.1117M35.4896 29.1117C35.4395 29.2425 35.5075 29.2698 35.5242 29.2929C35.6733 29.4014 35.826 29.48 35.9784 29.5682C36.793 29.9992 37.5608 30.1253 38.3637 30.1253C39.9989 30.1253 41.0157 29.2545 41.0157 27.8531V27.8255C41.0157 26.5296 39.87 26.0575 38.7945 25.7204L38.6541 25.6749C37.8424 25.4116 37.142 25.1824 37.142 24.6487V24.6215C37.142 24.1641 37.5523 23.8269 38.1853 23.8269C38.8886 23.8269 39.7237 24.0612 40.2629 24.3576C40.2629 24.3576 40.4218 24.4602 40.4798 24.3069C40.5108 24.2239 40.7845 23.4918 40.8109 23.4097C40.8423 23.3238 40.7875 23.259 40.7318 23.2256C40.1164 22.8503 39.2666 22.5952 38.3875 22.5952L38.224 22.5958C36.7265 22.5958 35.6804 23.5018 35.6804 24.7977V24.8255C35.6804 26.1918 36.8349 26.6375 37.9133 26.9453L38.0865 26.9993C38.8748 27.2409 39.5517 27.4508 39.5517 28.002V28.0296C39.5517 28.5368 39.1092 28.915 38.4001 28.915C38.1237 28.915 37.2426 28.9103 36.2931 28.3081C36.1779 28.241 36.1105 28.1946 36.0232 28.1383C35.9936 28.1196 35.8556 28.0656 35.8084 28.2122L35.4861 29.1094M51.8377 26.3651C51.8377 27.1567 51.69 27.7812 51.4011 28.2239C51.1127 28.6608 50.6773 28.8748 50.0707 28.8748C49.4641 28.8748 49.0304 28.6626 48.7461 28.2269C48.4598 27.7871 48.3154 27.1597 48.3154 26.368C48.3154 25.5764 48.4607 24.9548 48.7461 24.518C49.0298 24.0841 49.4612 23.8759 50.0707 23.8759C50.6802 23.8759 51.1139 24.0861 51.4011 24.518C51.6918 24.9548 51.8377 25.5764 51.8377 26.368M53.2033 24.8991C53.0688 24.4447 52.8604 24.0459 52.582 23.7117C52.3034 23.3775 51.952 23.1077 51.533 22.9142C51.1168 22.7192 50.6245 22.621 50.0678 22.621C49.511 22.621 49.0216 22.7198 48.6026 22.9142C48.1864 23.1089 47.8319 23.3775 47.5535 23.7117C47.2757 24.0459 47.067 24.4447 46.9322 24.8991C46.7989 25.3507 46.7312 25.8432 46.7312 26.368C46.7312 26.8928 46.7989 27.3854 46.9322 27.8369C47.0661 28.2914 47.2751 28.6901 47.5535 29.0244C47.8322 29.3586 48.1864 29.6254 48.6026 29.816C49.0216 30.006 49.5139 30.1027 50.0678 30.1027C50.6216 30.1027 51.1139 30.006 51.53 29.816C51.9461 29.626 52.3007 29.3586 52.5791 29.0244C52.8572 28.6901 53.0656 28.2914 53.2004 27.8369C53.3334 27.3854 53.4011 26.8928 53.4011 26.368C53.4011 25.8461 53.3334 25.3507 53.2004 24.8991M64.4238 28.652C64.379 28.5192 64.2494 28.5693 64.2494 28.5693C64.0511 28.6453 63.8392 28.7156 63.6135 28.7508C63.3861 28.7866 63.133 28.8045 62.8663 28.8045C62.207 28.8045 61.6795 28.6077 61.3044 28.2181C60.9264 27.8281 60.7154 27.2007 60.7183 26.3504C60.7204 25.5764 60.9073 24.9959 61.2429 24.5502C61.574 24.1104 62.0839 23.8817 62.7579 23.8817C63.3205 23.8817 63.7513 23.9471 64.2026 24.0884C64.2026 24.0884 64.3095 24.1351 64.3608 23.994C64.4807 23.6627 64.5692 23.4252 64.6978 23.0617C64.7341 22.9576 64.645 22.9136 64.6125 22.901C64.4355 22.8318 64.0176 22.7184 63.7012 22.6706C63.4052 22.6254 63.0623 22.602 62.6755 22.602C62.1012 22.602 61.5913 22.7002 61.1546 22.8949C60.718 23.0892 60.3488 23.3581 60.0557 23.6923C59.7627 24.0266 59.54 24.4253 59.3905 24.8798C59.2426 25.3313 59.1678 25.8268 59.1678 26.3516C59.1678 27.4833 59.4726 28.401 60.0763 29.0724C60.6799 29.7468 61.5883 30.0869 62.7722 30.0869C63.4726 30.0869 64.1905 29.9453 64.7063 29.7409C64.7063 29.7409 64.8048 29.6934 64.762 29.5785L64.425 28.652M66.8133 25.6028C66.8786 25.163 66.999 24.7965 67.1883 24.5121C67.4717 24.0782 67.9034 23.8407 68.51 23.8407C69.1166 23.8407 69.518 24.0794 69.8052 24.5121C69.9957 24.798 70.0789 25.1777 70.11 25.6028L66.7986 25.6022L66.8133 25.6028ZM71.414 24.6353C71.2977 24.1984 71.0096 23.7557 70.822 23.5534C70.5231 23.2338 70.233 23.008 69.9429 22.8849C69.5241 22.7067 69.0735 22.6152 68.6184 22.616C68.0411 22.616 67.5166 22.7137 67.0916 22.9122C66.6667 23.1121 66.3092 23.3842 66.0279 23.7243C65.7469 24.0644 65.5356 24.4661 65.4008 24.9264C65.266 25.3808 65.198 25.8793 65.198 26.4012C65.198 26.9348 65.2686 27.4303 65.4075 27.8789C65.5479 28.3304 65.7738 28.7262 66.0786 29.0546C66.3834 29.3859 66.7731 29.6439 67.242 29.8257C67.7079 30.006 68.2735 30.0995 68.9211 30.0975C70.2574 30.0931 70.9607 29.7955 71.2478 29.6342C71.2991 29.6055 71.3475 29.5559 71.2871 29.4131L70.9853 28.5658C70.939 28.4394 70.8112 28.4852 70.8112 28.4852C70.4801 28.6089 70.0112 28.8312 68.9123 28.8282C68.1944 28.827 67.664 28.6151 67.3299 28.2829C66.99 27.9428 66.82 27.4473 66.7936 26.7436L71.4237 26.7471C71.4237 26.7471 71.5456 26.746 71.5582 26.6269C71.5631 26.5777 71.7167 25.677 71.4201 24.6361L71.414 24.6353ZM29.8023 25.6028C29.8676 25.163 29.9883 24.7965 30.1774 24.5121C30.461 24.0782 30.8924 23.8407 31.499 23.8407C32.1056 23.8407 32.507 24.0794 32.7942 24.5121C32.9844 24.798 33.0676 25.1777 33.099 25.6028L29.7876 25.6022L29.8023 25.6028ZM34.403 24.6353C34.287 24.1984 33.9986 23.7557 33.8111 23.5534C33.5122 23.2338 33.222 23.008 32.9319 22.8849C32.5131 22.7067 32.0625 22.6152 31.6074 22.616C31.0301 22.616 30.5056 22.7137 30.0807 22.9122C29.6557 23.1121 29.2982 23.3842 29.0169 23.7243C28.7365 24.0644 28.5246 24.4661 28.3898 24.9264C28.2553 25.3808 28.1876 25.8793 28.1876 26.4012C28.1876 26.9348 28.2576 27.4303 28.3974 27.8789C28.5375 28.3304 28.7637 28.7262 29.0656 29.0546C29.3703 29.3859 29.7601 29.6439 30.2289 29.8257C30.6949 30.006 31.2575 30.0995 31.9081 30.0975C33.2443 30.0931 33.9476 29.7955 34.2348 29.6342C34.2858 29.6055 34.3344 29.5559 34.2738 29.4131L33.9719 28.5658C33.9253 28.4394 33.7976 28.4852 33.7976 28.4852C33.4664 28.6089 32.9976 28.8312 31.8987 28.8282C31.1837 28.827 30.6503 28.6151 30.3163 28.2829C29.9763 27.9428 29.8064 27.4473 29.78 26.7436L34.41 26.7471C34.41 26.7471 34.5319 26.746 34.5445 26.6269C34.5495 26.5777 34.7031 25.677 34.4062 24.6361L34.403 24.6353ZM19.8096 28.6227C19.6282 28.4779 19.603 28.4424 19.5429 28.3483C19.4512 28.2067 19.4043 28.0052 19.4043 27.7472C19.4043 27.3426 19.5391 27.0494 19.8175 26.853C19.8146 26.8536 20.216 26.507 21.1596 26.5187C21.5796 26.5263 21.9986 26.562 22.4138 26.6257V28.7279H22.4144C22.4144 28.7279 21.8283 28.8543 21.1661 28.8942C20.2254 28.9508 19.8093 28.6233 19.8122 28.6242L19.8096 28.6227ZM21.6499 25.3682C21.4623 25.3545 21.2191 25.3477 20.929 25.3477C20.5334 25.3477 20.1495 25.397 19.792 25.4937C19.4316 25.5911 19.1063 25.7418 18.8279 25.9423C18.5488 26.1416 18.3191 26.4024 18.1568 26.7046C17.993 27.0095 17.9095 27.3672 17.9095 27.7718C17.9095 28.1823 17.9807 28.5371 18.1214 28.8273C18.2592 29.1152 18.4667 29.3642 18.7251 29.5515C18.982 29.7386 19.2994 29.877 19.6657 29.9591C20.0291 30.042 20.4393 30.084 20.8906 30.084C21.3653 30.084 21.8371 30.0441 22.2943 29.967C22.6836 29.8998 23.0715 29.8243 23.4577 29.7406C23.6118 29.7052 23.7829 29.6585 23.7829 29.6585C23.8972 29.6295 23.8884 29.5073 23.8884 29.5073L23.8858 25.2853C23.8858 24.3588 23.6385 23.6698 23.1503 23.2446C22.6638 22.8195 21.9517 22.6055 21.0286 22.6055C20.6829 22.6055 20.1231 22.6524 19.7891 22.7195C19.7891 22.7195 18.781 22.9154 18.3649 23.2414C18.3649 23.2414 18.2735 23.2977 18.3233 23.4252L18.6515 24.3048C18.6922 24.4189 18.8033 24.3799 18.8033 24.3799C18.8033 24.3799 18.8382 24.3661 18.8792 24.3418C19.7671 23.858 20.8924 23.8727 20.8924 23.8727C21.3905 23.8727 21.7774 23.9738 22.0352 24.1717C22.2875 24.3655 22.4162 24.6584 22.4162 25.2741V25.4697C22.0206 25.4122 21.6543 25.3791 21.6543 25.3791L21.6499 25.3682ZM58.866 22.9846C58.8727 22.9691 58.8762 22.9525 58.8762 22.9356C58.8763 22.9188 58.8731 22.9021 58.8666 22.8866C58.8601 22.871 58.8506 22.857 58.8385 22.8452C58.8265 22.8334 58.8122 22.8242 58.7966 22.818C58.7177 22.7881 58.3248 22.7052 58.0229 22.6864C57.4427 22.65 57.1204 22.748 56.8303 22.8781C56.5437 23.0074 56.2266 23.2153 56.0508 23.4557L56.0502 22.8928C56.0502 22.8154 55.9954 22.753 55.9174 22.753H54.7335C54.6568 22.753 54.6011 22.8154 54.6011 22.8928V29.7829C54.6012 29.8201 54.616 29.8558 54.6423 29.8821C54.6686 29.9084 54.7043 29.9232 54.7415 29.9233H55.9546C55.9918 29.9232 56.0275 29.9084 56.0537 29.8821C56.08 29.8557 56.0947 29.8201 56.0947 29.7829V26.3232C56.0947 25.8599 56.1457 25.3996 56.2474 25.1094C56.3476 24.8223 56.4839 24.5933 56.6518 24.4291C56.812 24.2706 57.008 24.1529 57.2232 24.0861C57.4252 24.0281 57.6343 23.9987 57.8445 23.9987C58.0862 23.9987 58.3514 24.0609 58.3514 24.0609C58.4405 24.0709 58.49 24.0163 58.5202 23.936C58.5996 23.7246 58.825 23.0916 58.8689 22.9655" fill="#FFFFFE"></path>
    <path fill-rule="evenodd" clip-rule="evenodd" d="M47.5372 19.8043C47.3873 19.759 47.2347 19.7228 47.0804 19.6959C46.8728 19.6612 46.6626 19.6449 46.4521 19.6472C45.6161 19.6472 44.957 19.8835 44.4943 20.3503C44.0348 20.8135 43.7221 21.5192 43.5654 22.4478L43.5088 22.7612H42.4594C42.4594 22.7612 42.3314 22.7559 42.3044 22.8958L42.1321 23.8574C42.1201 23.9495 42.1597 24.007 42.2827 24.0064H43.3043L42.2678 29.7949C42.1866 30.2611 42.0937 30.6446 41.9909 30.9351C41.8895 31.2219 41.7904 31.4368 41.6685 31.5928C41.5504 31.7438 41.4385 31.8549 41.2454 31.9197C41.086 31.9733 40.9025 31.998 40.7015 31.998C40.5895 31.998 40.4407 31.9792 40.3308 31.9572C40.2209 31.9355 40.1638 31.9109 40.0814 31.8763C40.0814 31.8763 39.9616 31.8306 39.9144 31.9508C39.876 32.049 39.6038 32.7981 39.5715 32.8907C39.5387 32.9822 39.5847 33.0543 39.6427 33.0752C39.7787 33.1238 39.8798 33.1549 40.065 33.1986C40.3223 33.2593 40.5391 33.2631 40.7422 33.2631C41.1677 33.2631 41.5554 33.2033 41.8769 33.0872C42.2004 32.9702 42.482 32.7664 42.7311 32.4905C43.0004 32.1929 43.1698 31.8813 43.3318 31.4561C43.4921 31.0348 43.6287 30.5118 43.738 29.9022L44.7794 24.0064H46.3021C46.3021 24.0064 46.4304 24.0111 46.4571 23.8718L46.6294 22.9101C46.6414 22.8181 46.6021 22.7606 46.4785 22.7612H45.0007C45.008 22.7278 45.0751 22.2076 45.2448 21.718C45.3172 21.509 45.4534 21.3404 45.5689 21.2246C45.6767 21.1143 45.8095 21.0316 45.956 20.9836C46.1166 20.9339 46.284 20.9097 46.4521 20.912C46.5913 20.912 46.7279 20.9287 46.8319 20.9504C46.9752 20.9809 47.0309 20.997 47.0684 21.0082C47.219 21.0542 47.2392 21.0097 47.2688 20.9367L47.6222 19.9656C47.6586 19.8612 47.5701 19.8172 47.5372 19.8043ZM26.8855 29.8072C26.8855 29.8846 26.8304 29.9477 26.7531 29.9477H25.5273C25.4496 29.9477 25.3945 29.8846 25.3945 29.8072V19.936C25.3945 19.8589 25.4496 19.7964 25.5273 19.7964H26.7531C26.8304 19.7964 26.8855 19.8589 26.8855 19.936V29.8072Z" fill="#FFFFFE"></path>
</svg>
