<svg xmlns="http://www.w3.org/2000/svg" width="95" height="24" fill="none">
    <path fill="#000" d="m30.43 18.803 1.182-2.72c1.279.944 2.976 1.435 4.655 1.435 1.24 0 2.022-.472 2.022-1.19-.019-2.003-7.42-.435-7.478-5.462-.019-2.55 2.27-4.516 5.513-4.516 1.927 0 3.854.472 5.227 1.55l-1.106 2.777c-1.26-.793-2.824-1.36-4.312-1.36-1.01 0-1.678.472-1.678 1.077.019 1.965 7.478.888 7.554 5.688 0 2.608-2.232 4.441-5.437 4.441-2.346 0-4.502-.548-6.142-1.72ZM75.812 15.1a3.438 3.438 0 0 1-2.976 1.72c-1.888 0-3.414-1.512-3.414-3.383 0-1.87 1.526-3.382 3.414-3.382 1.278 0 2.385.699 2.976 1.72l3.262-1.796a7.183 7.183 0 0 0-6.238-3.628c-3.948 0-7.153 3.175-7.153 7.086 0 3.912 3.204 7.087 7.153 7.087a7.122 7.122 0 0 0 6.238-3.628l-3.262-1.796ZM43.65.473h4.082v19.786H43.65V.473Zm37.027 0v19.786h4.082v-5.934l4.845 5.934h5.227l-6.161-7.05 5.704-6.576h-4.998l-4.617 5.462V.473h-4.082ZM59.864 15.137c-.59.964-1.812 1.682-3.185 1.682-1.889 0-3.415-1.512-3.415-3.383 0-1.87 1.526-3.382 3.415-3.382 1.373 0 2.594.756 3.185 1.738v3.345Zm0-8.504V8.24c-.667-1.115-2.327-1.89-4.063-1.89-3.586 0-6.41 3.137-6.41 7.068 0 3.93 2.824 7.105 6.41 7.105 1.736 0 3.396-.775 4.063-1.89v1.607h4.083V6.633h-4.083Z"></path>
    <path fill="#E01E5A" d="M5.196 15.118a2.504 2.504 0 0 1-2.518 2.495A2.504 2.504 0 0 1 .16 15.118a2.504 2.504 0 0 1 2.518-2.494h2.518v2.494Zm1.26 0a2.504 2.504 0 0 1 2.517-2.494 2.504 2.504 0 0 1 2.518 2.494v6.237a2.504 2.504 0 0 1-2.518 2.494 2.504 2.504 0 0 1-2.518-2.494v-6.237Z"></path>
    <path fill="#36C5F0" d="M8.973 5.102a2.504 2.504 0 0 1-2.518-2.494A2.504 2.504 0 0 1 8.973.113a2.504 2.504 0 0 1 2.518 2.495v2.494H8.973Zm0 1.266a2.504 2.504 0 0 1 2.518 2.495 2.504 2.504 0 0 1-2.518 2.494H2.659A2.504 2.504 0 0 1 .14 8.863a2.504 2.504 0 0 1 2.518-2.495h6.314Z"></path>
    <path fill="#2EB67D" d="M19.065 8.863a2.504 2.504 0 0 1 2.518-2.495A2.504 2.504 0 0 1 24.1 8.863a2.504 2.504 0 0 1-2.518 2.494h-2.518V8.863Zm-1.26 0a2.504 2.504 0 0 1-2.517 2.494 2.504 2.504 0 0 1-2.518-2.494V2.608A2.504 2.504 0 0 1 15.288.113a2.504 2.504 0 0 1 2.518 2.495v6.255Z"></path>
    <path fill="#ECB22E" d="M15.288 18.86a2.504 2.504 0 0 1 2.518 2.495 2.504 2.504 0 0 1-2.518 2.494 2.504 2.504 0 0 1-2.518-2.494V18.86h2.518Zm0-1.247a2.504 2.504 0 0 1-2.518-2.495 2.504 2.504 0 0 1 2.518-2.494h6.314a2.504 2.504 0 0 1 2.518 2.494 2.504 2.504 0 0 1-2.518 2.495h-6.314Z"></path>
</svg>
