<svg viewBox="0 0 36 36" fill="none" xmlns="http://www.w3.org/2000/svg">
    <g clip-path="url(#clip0_2324_10351)">
        <g filter="url(#filter0_d_2324_10351)">
            <mask id="path-1-inside-1_2324_10351" fill="white">
                <path
                        fill-rule="evenodd"
                        clip-rule="evenodd"
                        d="M18 36C27.9411 36 36 27.9411 36 18C36 8.05887 27.9411 0 18 0C8.05887 0 0 8.05887 0 18C0 27.9411 8.05887 36 18 36ZM18.8156 10.6191C18.5591 9.79364 17.4423 9.79364 17.1858 10.6191L15.8846 14.8064C15.7699 15.1756 15.4403 15.3519 15.0691 15.3519H10.8585C10.0284 15.3519 9.68334 16.4625 10.3548 16.9726L13.762 19.6341C14.0623 19.8623 14.1879 20.2667 14.0732 20.6358L12.7721 24.8232C12.5156 25.6486 13.4191 26.335 14.0906 25.8248L17.4971 23.2369C17.7974 23.0088 18.204 23.0088 18.5043 23.2369L21.9108 25.8248C22.5823 26.335 23.4858 25.6486 23.2293 24.8232L21.9281 20.6358C21.8134 20.2667 21.9391 19.8623 22.2394 19.6341L25.6452 16.9726C26.3167 16.4625 25.9716 15.3519 25.1415 15.3519H20.9309C20.5597 15.3519 20.2314 15.1755 20.1167 14.8064L18.8156 10.6191Z"
                ></path>
            </mask>
            <path
                    fill-rule="evenodd"
                    clip-rule="evenodd"
                    d="M18 36C27.9411 36 36 27.9411 36 18C36 8.05887 27.9411 0 18 0C8.05887 0 0 8.05887 0 18C0 27.9411 8.05887 36 18 36ZM18.8156 10.6191C18.5591 9.79364 17.4423 9.79364 17.1858 10.6191L15.8846 14.8064C15.7699 15.1756 15.4403 15.3519 15.0691 15.3519H10.8585C10.0284 15.3519 9.68334 16.4625 10.3548 16.9726L13.762 19.6341C14.0623 19.8623 14.1879 20.2667 14.0732 20.6358L12.7721 24.8232C12.5156 25.6486 13.4191 26.335 14.0906 25.8248L17.4971 23.2369C17.7974 23.0088 18.204 23.0088 18.5043 23.2369L21.9108 25.8248C22.5823 26.335 23.4858 25.6486 23.2293 24.8232L21.9281 20.6358C21.8134 20.2667 21.9391 19.8623 22.2394 19.6341L25.6452 16.9726C26.3167 16.4625 25.9716 15.3519 25.1415 15.3519H20.9309C20.5597 15.3519 20.2314 15.1755 20.1167 14.8064L18.8156 10.6191Z"
                    fill="#5E5E6B"
            ></path>
            <path
                    d="M17.1858 10.6191L18.1408 10.9158V10.9158L17.1858 10.6191ZM18.8156 10.6191L17.8606 10.9158L18.8156 10.6191ZM15.8846 14.8064L16.8396 15.1032V15.1031L15.8846 14.8064ZM10.3548 16.9726L10.9705 16.1845L10.9598 16.1763L10.3548 16.9726ZM13.762 19.6341L13.1463 20.4223L13.157 20.4304L13.762 19.6341ZM14.0732 20.6358L15.0282 20.9326L15.0282 20.9326L14.0732 20.6358ZM12.7721 24.8232L11.8171 24.5264H11.8171L12.7721 24.8232ZM14.0906 25.8248L13.4856 25.0286L14.0906 25.8248ZM17.4971 23.2369L16.8921 22.4406L16.8921 22.4406L17.4971 23.2369ZM18.5043 23.2369L19.1092 22.4406L18.5043 23.2369ZM21.9108 25.8248L22.5157 25.0286L21.9108 25.8248ZM23.2293 24.8232L24.1842 24.5264L23.2293 24.8232ZM21.9281 20.6358L22.8831 20.3391V20.3391L21.9281 20.6358ZM22.2394 19.6341L22.8444 20.4305L22.8551 20.4221L22.2394 19.6341ZM25.6452 16.9726L25.0402 16.1762L25.0294 16.1847L25.6452 16.9726ZM20.1167 14.8064L19.1618 15.1031V15.1032L20.1167 14.8064ZM35 18C35 27.3888 27.3888 35 18 35V37C28.4934 37 37 28.4934 37 18H35ZM18 1C27.3888 1 35 8.61116 35 18H37C37 7.50659 28.4934 -1 18 -1V1ZM1 18C1 8.61116 8.61116 1 18 1V-1C7.50659 -1 -1 7.50659 -1 18H1ZM18 35C8.61116 35 1 27.3888 1 18H-1C-1 28.4934 7.50659 37 18 37V35ZM18.1408 10.9158C18.1415 10.9135 18.1303 10.9425 18.093 10.9691C18.061 10.9919 18.028 11 18.0007 11C17.9734 11 17.9403 10.9919 17.9084 10.9691C17.871 10.9425 17.8599 10.9135 17.8606 10.9158L19.7705 10.3223C19.2227 8.55922 16.7787 8.55923 16.2308 10.3223L18.1408 10.9158ZM16.8396 15.1031L18.1408 10.9158L16.2308 10.3223L14.9297 14.5097L16.8396 15.1031ZM15.0691 16.3519C15.7526 16.3519 16.5611 15.9993 16.8396 15.1032L14.9297 14.5097C14.9351 14.4922 14.9471 14.4652 14.9695 14.4363C14.9916 14.4076 15.0169 14.386 15.0399 14.3716C15.0837 14.3439 15.1012 14.3519 15.0691 14.3519V16.3519ZM10.8585 16.3519H15.0691V14.3519H10.8585V16.3519ZM10.9598 16.1763C10.9713 16.1851 10.989 16.2079 10.9967 16.2352C11.0023 16.2553 10.9993 16.2653 10.9985 16.2677C10.9979 16.2698 10.992 16.2883 10.964 16.3109C10.9493 16.3228 10.9302 16.3341 10.9082 16.342C10.8857 16.35 10.8677 16.3519 10.8585 16.3519V14.3519C9.93272 14.3519 9.30172 14.9884 9.08862 15.6742C8.87636 16.3573 9.03177 17.2233 9.7499 17.7689L10.9598 16.1763ZM14.3776 18.8461L10.9704 16.1845L9.73923 17.7607L13.1464 20.4222L14.3776 18.8461ZM15.0282 20.9326C15.2635 20.1752 15.0133 19.3289 14.3669 18.8379L13.157 20.4304C13.1328 20.412 13.1222 20.3915 13.1183 20.3788C13.1144 20.3662 13.1141 20.3526 13.1183 20.3391L15.0282 20.9326ZM13.727 25.1199L15.0282 20.9326L13.1183 20.3391L11.8171 24.5264L13.727 25.1199ZM13.4856 25.0286C13.4887 25.0262 13.5017 25.0175 13.5246 25.0101C13.5472 25.0028 13.5721 24.9993 13.5966 25.0001C13.6447 25.0016 13.6745 25.0181 13.6883 25.0286C13.7021 25.039 13.7141 25.0539 13.7214 25.0753C13.7308 25.1028 13.7262 25.1226 13.727 25.1199L11.8171 24.5264C11.5544 25.372 11.8925 26.176 12.4784 26.6211C13.0709 27.0712 13.9612 27.179 14.6955 26.6211L13.4856 25.0286ZM16.8921 22.4406L13.4856 25.0286L14.6955 26.6211L18.102 24.0332L16.8921 22.4406ZM19.1092 22.4406C18.4514 21.9409 17.55 21.9409 16.8921 22.4406L18.102 24.0332C18.0767 24.0524 18.0406 24.0658 18.0007 24.0658C17.9608 24.0658 17.9246 24.0524 17.8994 24.0332L19.1092 22.4406ZM22.5157 25.0286L19.1092 22.4406L17.8994 24.0332L21.3058 26.6211L22.5157 25.0286ZM22.2743 25.1199C22.2752 25.1226 22.2705 25.1028 22.2799 25.0753C22.2873 25.0539 22.2993 25.039 22.3131 25.0286C22.3268 25.0181 22.3567 25.0016 22.4047 25.0001C22.4292 24.9993 22.4541 25.0028 22.4768 25.0101C22.4997 25.0175 22.5126 25.0262 22.5157 25.0286L21.3058 26.6211C22.0402 27.179 22.9304 27.0712 23.523 26.6211C24.1088 26.176 24.447 25.372 24.1842 24.5264L22.2743 25.1199ZM20.9732 20.9326L22.2743 25.1199L24.1842 24.5264L22.8831 20.3391L20.9732 20.9326ZM21.6344 18.8379C20.9881 19.3289 20.7378 20.1752 20.9732 20.9326L22.8831 20.3391C22.8873 20.3526 22.887 20.3662 22.8831 20.3788C22.8791 20.3915 22.8685 20.412 22.8443 20.4304L21.6344 18.8379ZM25.0294 16.1847L21.6236 18.8462L22.8551 20.4221L26.2609 17.7605L25.0294 16.1847ZM25.1415 16.3519C25.1323 16.3519 25.1143 16.35 25.0918 16.342C25.0698 16.3341 25.0507 16.3228 25.036 16.3109C25.008 16.2883 25.0021 16.2698 25.0015 16.2677C25.0007 16.2653 24.9977 16.2553 25.0033 16.2352C25.011 16.2079 25.0287 16.1851 25.0402 16.1763L26.2501 17.7689C26.9682 17.2233 27.1236 16.3573 26.9114 15.6742C26.6983 14.9884 26.0673 14.3519 25.1415 14.3519V16.3519ZM20.9309 16.3519H25.1415V14.3519H20.9309V16.3519ZM19.1618 15.1032C19.4398 15.9978 20.2455 16.3519 20.9309 16.3519V14.3519C20.8989 14.3519 20.9171 14.344 20.9617 14.3721C20.985 14.3868 21.0103 14.4085 21.0324 14.4372C21.0546 14.4661 21.0664 14.4927 21.0717 14.5097L19.1618 15.1032ZM17.8606 10.9158L19.1618 15.1031L21.0717 14.5097L19.7705 10.3223L17.8606 10.9158Z"
                    fill="black"
                    fill-opacity="0.1"
                    mask="url(#path-1-inside-1_2324_10351)"
            ></path>
        </g>
    </g>
    <defs>
        <filter
                id="filter0_d_2324_10351"
                x="-3"
                y="-2"
                width="42"
                height="42"
                filterUnits="userSpaceOnUse"
                color-interpolation-filters="sRGB"
        >
            <feFlood flood-opacity="0" result="BackgroundImageFix"></feFlood>
            <feColorMatrix
                    in="SourceAlpha"
                    type="matrix"
                    values="0 0 0 0 0 0 0 0 0 0 0 0 0 0 0 0 0 0 127 0"
                    result="hardAlpha"
            ></feColorMatrix>
            <feOffset dy="1"></feOffset>
            <feGaussianBlur stdDeviation="1.5"></feGaussianBlur>
            <feColorMatrix
                    type="matrix"
                    values="0 0 0 0 0.0627451 0 0 0 0 0.0980392 0 0 0 0 0.141176 0 0 0 0.05 0"
            ></feColorMatrix>
            <feBlend
                    mode="normal"
                    in2="BackgroundImageFix"
                    result="effect1_dropShadow_2324_10351"
            ></feBlend>
            <feBlend
                    mode="normal"
                    in="SourceGraphic"
                    in2="effect1_dropShadow_2324_10351"
                    result="shape"
            ></feBlend>
        </filter>
        <clipPath id="clip0_2324_10351">
            <rect width="36" height="36" fill="white"></rect>
        </clipPath>
    </defs>
</svg>
