<svg xmlns="http://www.w3.org/2000/svg" width="61" height="27" fill="none">
    <path fill="#057ffa" fill-rule="evenodd" d="M60.766 14.12c0-4.432-2.062-7.928-6.003-7.928-3.958 0-6.353 3.496-6.353 7.893 0 5.21 2.827 7.841 6.885 7.841 1.979 0 3.475-.467 4.606-1.125V17.34c-1.13.589-2.428.952-4.074.952-1.613 0-3.043-.588-3.226-2.63h8.132c0-.226.033-1.126.033-1.541Zm-8.215-1.645c0-1.956 1.147-2.77 2.195-2.77 1.014 0 2.095.814 2.095 2.77h-4.29ZM41.99 6.192c-1.63 0-2.678.796-3.26 1.35l-.216-1.073h-3.659v20.183l4.158-.918.016-4.898c.6.45 1.48 1.09 2.944 1.09 2.977 0 5.687-2.492 5.687-7.98-.016-5.02-2.76-7.754-5.67-7.754Zm-.998 11.926c-.981 0-1.563-.363-1.963-.813l-.016-6.422c.432-.502 1.03-.848 1.979-.848 1.513 0 2.56 1.765 2.56 4.033 0 2.32-1.03 4.05-2.56 4.05ZM29.137 5.17l4.174-.934V.722l-4.174.917V5.17Z" clip-rule="evenodd"></path>
    <path fill="#057ffa" d="M33.31 6.485h-4.173v15.146h4.174V6.485Z"></path>
    <path fill="#057ffa" fill-rule="evenodd" d="m24.663 7.767-.266-1.28h-3.592v15.145h4.157V11.367c.981-1.332 2.644-1.09 3.16-.9v-3.98c-.532-.209-2.478-.59-3.46 1.28ZM16.348 2.73l-4.058.9-.017 13.864c0 2.562 1.846 4.449 4.308 4.449 1.363 0 2.36-.26 2.91-.571v-3.514c-.532.225-3.16 1.021-3.16-1.54v-6.146h3.16V6.485h-3.16l.017-3.756ZM5.106 10.882c0-.675.532-.934 1.413-.934 1.264 0 2.86.398 4.124 1.107V6.988C9.263 6.416 7.9 6.19 6.52 6.19 3.143 6.191.9 8.026.9 11.09c0 4.777 6.319 4.016 6.319 6.076 0 .796-.666 1.056-1.597 1.056-1.38 0-3.143-.589-4.54-1.385v4.12a11.14 11.14 0 0 0 4.54.986c3.46 0 5.837-1.783 5.837-4.881-.017-5.158-6.352-4.241-6.352-6.18Z" clip-rule="evenodd"></path>
</svg>
