<svg width="44" height="44" viewBox="0 0 44 44" fill="none" xmlns="http://www.w3.org/2000/svg">
    <g clip-path="url(#clip0_1886_7860)">
        <mask id="mask0_1886_7860" maskUnits="userSpaceOnUse" x="-10" y="-10" width="64" height="64">
            <path d="M-9.69141 -9.73499H53.7154V53.6719H-9.69141V-9.73499Z" fill="white"></path>
        </mask>
        <g mask="url(#mask0_1886_7860)">
            <path d="M21.9747 43.916C34.0787 43.916 43.8908 34.1039 43.8908 21.9999C43.8908 9.89597 34.0787 0.0837937 21.9747 0.0837937C9.87077 0.0837937 0.0585938 9.89597 0.0585938 21.9999C0.0585938 34.1039 9.87077 43.916 21.9747 43.916Z" fill="#1AB4D7"></path>
            <path d="M10.5502 21.9366L14.2904 18.1872C14.4144 18.0608 14.4836 17.8935 14.4836 17.7161C14.4836 17.3462 14.1829 17.0459 13.8131 17.0459C13.633 17.0459 13.4641 17.1165 13.3367 17.2454C13.3363 17.2462 9.59991 20.9805 9.59991 20.9805L5.8464 17.2398C5.71957 17.1148 5.55151 17.0459 5.3733 17.0459C5.00392 17.0459 4.70322 17.3461 4.70322 17.7155C4.70322 17.8958 4.77517 18.0649 4.90431 18.1923L8.64395 21.9314L4.90625 25.6761C4.77487 25.8055 4.70322 25.975 4.70322 26.156C4.70322 26.5258 5.00392 26.8257 5.3733 26.8257C5.5518 26.8257 5.72002 26.7565 5.8464 26.63L9.59409 22.8874L13.3276 26.6164C13.46 26.7533 13.6308 26.8262 13.8131 26.8262C14.1826 26.8262 14.4832 26.5258 14.4832 26.156C14.4832 25.9776 14.4141 25.81 14.2883 25.6836L10.5502 21.9366Z" fill="white"></path>
            <path d="M32.7773 21.9356C32.7773 22.6071 33.3234 23.1533 33.9957 23.1533C34.6664 23.1533 35.2127 22.6071 35.2127 21.9356C35.2127 21.2639 34.6664 20.7178 33.9957 20.7178C33.3234 20.7178 32.7773 21.2639 32.7773 21.9356Z" fill="white"></path>
            <path d="M30.4771 21.9359C30.4771 19.9913 32.059 18.4091 34.0038 18.4091C35.9477 18.4091 37.5299 19.9913 37.5299 21.9359C37.5299 23.88 35.9477 25.4615 34.0038 25.4615C32.059 25.4615 30.4771 23.88 30.4771 21.9359ZM29.0898 21.9359C29.0898 24.645 31.2943 26.8491 34.0038 26.8491C36.7133 26.8491 38.9189 24.645 38.9189 21.9359C38.9189 19.2264 36.7133 17.0217 34.0038 17.0217C31.2943 17.0217 29.0898 19.2264 29.0898 21.9359Z" fill="white"></path>
            <path d="M28.7397 17.1059L28.5336 17.1053C27.9146 17.1053 27.3177 17.3005 26.8191 17.6848C26.7534 17.3841 26.4847 17.1579 26.1646 17.1579C25.7962 17.1579 25.501 17.4531 25.5001 17.8222C25.5001 17.8236 25.5023 26.0986 25.5023 26.0986C25.5033 26.4671 25.8039 26.7666 26.1725 26.7666C26.541 26.7666 26.8415 26.4671 26.8425 26.0978C26.8425 26.0961 26.8428 21.0089 26.8428 21.0089C26.8428 19.3127 26.9979 18.6277 28.4508 18.4462C28.5851 18.4295 28.7312 18.4321 28.7317 18.4321C29.1293 18.4184 29.4118 18.1453 29.4118 17.776C29.4118 17.4066 29.1102 17.1059 28.7397 17.1059Z" fill="white"></path>
            <path d="M15.8487 21.1269C15.8487 21.1086 15.8501 21.0895 15.851 21.0707C16.2401 19.5327 17.633 18.3946 19.2918 18.3946C20.9707 18.3946 22.3764 19.5606 22.7455 21.1269H15.8487ZM24.1178 21.0004C23.8291 19.6332 23.0805 18.5101 21.9407 17.7889C20.2745 16.7311 18.0744 16.7896 16.465 17.9341C15.1523 18.868 14.3945 20.3956 14.3945 21.9693C14.3945 22.3639 14.4421 22.7622 14.5411 23.1543C15.0368 25.1042 16.7131 26.5803 18.7117 26.825C19.3047 26.8968 19.882 26.8624 20.4797 26.7076C20.9934 26.5826 21.4904 26.3743 21.9484 26.0808C22.4237 25.7753 22.8208 25.3723 23.2054 24.89C23.2132 24.8811 23.221 24.8733 23.2288 24.864C23.4957 24.5329 23.4462 24.0621 23.1529 23.8374C22.9055 23.6478 22.4901 23.5709 22.1633 23.9894C22.0931 24.0895 22.0147 24.1925 21.9285 24.2954C21.6686 24.5826 21.3462 24.8608 20.9599 25.0766C20.4683 25.3392 19.9081 25.4893 19.3126 25.4926C17.3634 25.4709 16.3204 24.1103 15.9494 23.1391C15.8846 22.9578 15.8346 22.7697 15.7998 22.576C15.7952 22.5397 15.7919 22.5048 15.7906 22.4726C16.1936 22.4726 22.7853 22.4714 22.7853 22.4714C23.7443 22.4513 24.2604 21.7744 24.1178 21.0004Z" fill="white"></path>
        </g>
    </g>
    <defs>
        <clipPath id="clip0_1886_7860">
            <rect width="44" height="44" fill="white"></rect>
        </clipPath>
    </defs>
</svg>
